{
.appVersion = "1282";
classes = (
{
automatic = 1;

glyphs = (
{
color = 1;
glyphname = .notdef;
lastChange = "2019-12-17 06:53:50 +0000";
layers = (
{
layerId = "EA94BB3F-1054-4F03-AAB6-69C3B81B3CC3";
paths = (
{
closed = 1;
nodes = (
"1136 -354 LINE",
"1136 1410 LINE",
"136 1410 LINE",
"136 -354 LINE"
);
},
{
closed = 1;
nodes = (
"248 1298 LINE",
"1024 1298 LINE",
"1024 -242 LINE",
"248 -242 LINE"
);
}
);
width = 1272;
},
{
layerId = "1A84AFAC-8532-492C-A52A-D2ACD869B7F8";
paths = (
{
closed = 1;
nodes = (
"1136 -354 LINE",
"1136 1410 LINE",
"136 1410 LINE",
"136 -354 LINE"
);
},
{
closed = 1;
nodes = (
"248 1298 LINE",
"1024 1298 LINE",
"1024 -242 LINE",
"248 -242 LINE"
);
}
);
width = 1272;
},
{
layerId = "16E03120-9D89-4B3A-B1E3-633A6E865927";
paths = (
{
closed = 1;
nodes = (
"1304 -369 LINE",
"1304 1425 LINE",
"174 1425 LINE",
"174 -369 LINE"
);
},
{
closed = 1;
nodes = (
"416 1283 LINE",
"1062 1283 LINE",
"1062 -227 LINE",
"416 -227 LINE"
);
}
);
width = 1478;
},
{
layerId = "5EAC5215-9D4A-4BA0-8B26-A551FA1A966A";
paths = (
{
closed = 1;
nodes = (
"1277 -369 LINE",
"1277 1425 LINE",
"147 1425 LINE",
"147 -369 LINE"
);
},
{
closed = 1;
nodes = (
"389 1283 LINE",
"1035 1283 LINE",
"1035 -227 LINE",
"389 -227 LINE"
);
}
);
width = 1424;
},
{
layerId = "B4536172-55B8-4884-A498-BDE07D5884DA";
paths = (
{
closed = 1;
nodes = (
"1220 -362 LINE",
"1220 1418 LINE",
"155 1418 LINE",
"155 -362 LINE"
);
},
{
closed = 1;
nodes = (
"332 1291 LINE",
"1043 1291 LINE",
"1043 -235 LINE",
"332 -235 LINE"
);
}
);
width = 1375;
},
{
layerId = "09CD4194-2486-478D-AB32-B0AA8D4EDA22";
paths = (
{
closed = 1;
nodes = (
"1174 -354 LINE",
"1174 1410 LINE",
"174 1410 LINE",
"174 -354 LINE"
);
},
{
closed = 1;
nodes = (
"286 1298 LINE",
"1062 1298 LINE",
"1062 -242 LINE",
"286 -242 LINE"
);
}
);
width = 1348;
},
{
background = {
paths = (
{
closed = 1;
nodes = (
"1219 -337 LINE",
"1219 1419 LINE",
"16 1419 LINE",
"16 -337 LINE"
);
},
{
closed = 1;
nodes = (
"306 1150 LINE",
"931 1150 LINE",
"931 -68 LINE",
"306 -68 LINE"
);
}
);
};
layerId = "66066CCB-AAC9-4485-8967-3F6B885ABFA4";
paths = (
{
closed = 1;
nodes = (
"1219 -337 LINE",
"1219 1419 LINE",
"16 1419 LINE",
"16 -337 LINE"
);
},
{
closed = 1;
nodes = (
"306 1150 LINE",
"931 1150 LINE",
"931 -68 LINE",
"306 -68 LINE"
);
}
);
width = 1235;
},
{
background = {
paths = (
{
closed = 1;
nodes = (
"1132 -354 LINE",
"1132 1410 LINE",
"103 1410 LINE",
"103 -354 LINE"
);
},
{
closed = 1;
nodes = (
"218 1298 LINE",
"1018 1298 LINE",
"1018 -242 LINE",
"218 -242 LINE"
);
}
);
};
layerId = "B71E0DD6-B640-4F5E-B48D-BF5E04BC2E71";
paths = (
{
closed = 1;
nodes = (
"1132 -354 LINE",
"1132 1410 LINE",
"103 1410 LINE",
"103 -354 LINE"
);
},
{
closed = 1;
nodes = (
"218 1298 LINE",
"1018 1298 LINE",
"1018 -242 LINE",
"218 -242 LINE"
);
}
);
width = 1235;
}
);
note = .notdef;
unicode = 007F;
},
{
color = 1;
glyphname = A;
lastChange = "2019-12-24 21:30:41 +0000";
layers = (
{
anchors = (
{
name = bottom;
position = "{619, 0}";
},
{
name = ogonek;
position = "{1179, 20}";
},
{
name = top;
position = "{643, 1430}";
}
);
background = {
paths = (
{
closed = 1;
nodes = (
"-13 36 LINE",
"-13 0 LINE",
"437 0 LINE",
"437 36 LINE",
"371 36 LINE SMOOTH",
"269 36 OFFCURVE",
"227 54 OFFCURVE",
"227 98 CURVE SMOOTH",
"227 112 OFFCURVE",
"237 150 OFFCURVE",
"253 196 CURVE SMOOTH",
"351 468 LINE",
"839 468 LINE",
"1003 36 LINE",
"791 36 LINE",
"791 0 LINE",
"1415 0 LINE",
"1415 36 LINE",
"1233 36 LINE",
"691 1452 LINE",
"665 1452 LINE",
"213 200 LINE SMOOTH",
"163 56 OFFCURVE",
"143 36 OFFCURVE",
"55 36 CURVE SMOOTH"
);
},
{
closed = 1;
nodes = (
"363 502 LINE",
"587 1138 LINE",
"827 502 LINE"
);
}
);
};
layerId = "EA94BB3F-1054-4F03-AAB6-69C3B81B3CC3";
paths = (
{
closed = 1;
nodes = (
"75 0 LINE",
"559 1196 LINE",
"531 1197 LINE",
"1009 0 LINE",
"1247 0 LINE",
"643 1486 LINE",
"41 0 LINE"
);
},
{
closed = 1;
nodes = (
"833 466 LINE",
"819 502 LINE",
"268 502 LINE",
"253 466 LINE"
);
}
);
width = 1288;
},
{
anchors = (
{
name = bottom;
position = "{677, -80}";
},
{
name = ogonek;
position = "{1253, 0}";
},
{
name = top;
position = "{701, 1350}";
}
);
layerId = "16E03120-9D89-4B3A-B1E3-633A6E865927";
paths = (
{
closed = 1;
nodes = (
"149 0 LINE",
"624 1072 LINE",
"581 1012 LINE",
"1033 0 LINE",
"1367 0 LINE",
"701 1500 LINE",
"40 0 LINE"
);
},
{
closed = 1;
nodes = (
"970 391 LINE",
"944 457 LINE",
"280 457 LINE",
"252 391 LINE"
);
}
);
width = 1407;
},
{
anchors = (
{
name = bottom;
position = "{616, 0}";
},
{
name = ogonek;
position = "{1116, 10}";
},
{
name = top;
position = "{639, 1430}";
}
);
background = {
paths = (
{
closed = 1;
nodes = (
"52 0 LINE",
"532 1186 LINE",
"609 1377 LINE",
"1158 0 LINE",
"1243 0 LINE",
"641 1482 LINE",
"41 0 LINE"
);
},
{
closed = 1;
nodes = (
"826 476 LINE",
"819 492 LINE",
"245 492 LINE",
"239 476 LINE"
);
}
);
};
layerId = "1A84AFAC-8532-492C-A52A-D2ACD869B7F8";
paths = (
{
closed = 1;
nodes = (
"62 0 LINE",
"625 1391 LINE",
"605 1386 LINE",
"1158 0 LINE",
"1243 0 LINE",
"641 1482 LINE",
"41 0 LINE"
);
},
{
closed = 1;
nodes = (
"1010 466 LINE",
"999 492 LINE",
"245 492 LINE",
"235 466 LINE"
);
}
);
width = 1284;
},
{
anchors = (
{
name = bottom;
position = "{677, -80}";
},
{
name = ogonek;
position = "{1237, 0}";
},
{
name = top;
position = "{701, 1350}";
}
);
layerId = "5EAC5215-9D4A-4BA0-8B26-A551FA1A966A";
paths = (
{
closed = 1;
nodes = (
"151 0 LINE",
"643 1072 LINE",
"605 1043 LINE",
"1052 0 LINE",
"1367 0 LINE",
"727 1500 LINE",
"40 0 LINE"
);
},
{
closed = 1;
nodes = (
"976 321 LINE",
"950 347 LINE",
"286 347 LINE",
"258 321 LINE"
);
}
);
width = 1407;
},
{
anchors = (
{
name = bottom;
position = "{652, -40}";
},
{
name = ogonek;
position = "{1182, -25}";
},
{
name = top;
position = "{664, 1390}";
}
);
background = {
paths = (
{
closed = 1;
nodes = (
"112 36 LINE",
"112 0 LINE",
"562 0 LINE",
"562 36 LINE",
"496 36 LINE SMOOTH",
"394 36 OFFCURVE",
"352 54 OFFCURVE",
"352 98 CURVE SMOOTH",
"352 112 OFFCURVE",
"362 150 OFFCURVE",
"378 196 CURVE SMOOTH",
"476 468 LINE",
"964 468 LINE",
"1128 36 LINE",
"916 36 LINE",
"916 0 LINE",
"1540 0 LINE",
"1540 36 LINE",
"1358 36 LINE",
"816 1452 LINE",
"790 1452 LINE",
"338 200 LINE SMOOTH",
"288 56 OFFCURVE",
"268 36 OFFCURVE",
"180 36 CURVE SMOOTH"
);
},
{
closed = 1;
nodes = (
"488 502 LINE",
"712 1138 LINE",
"952 502 LINE"
);
}
);
};
layerId = "B4536172-55B8-4884-A498-BDE07D5884DA";
paths = (
{
closed = 1;
nodes = (
"108 0 LINE",
"639 1224 LINE",
"612 1204 LINE",
"1117 0 LINE",
"1320 0 LINE",
"692 1489 LINE",
"41 0 LINE"
);
},
{
closed = 1;
nodes = (
"996 398 LINE",
"981 416 LINE",
"270 416 LINE",
"254 398 LINE"
);
}
);
width = 1361;
},
{
anchors = (
{
name = bottom;
position = "{626, 0}";
},
{
name = ogonek;
position = "{1216, 0}";
},
{
name = top;
position = "{626, 1430}";
}
);
background = {
paths = (
{
closed = 1;
nodes = (
"62 0 LINE",
"542 1186 LINE",
"619 1377 LINE",
"1168 0 LINE",
"1253 0 LINE",
"651 1482 LINE",
"51 0 LINE"
);
},
{
closed = 1;
nodes = (
"836 476 LINE",
"829 492 LINE",
"255 492 LINE",
"249 476 LINE"
);
}
);
};
layerId = "09CD4194-2486-478D-AB32-B0AA8D4EDA22";
paths = (
{
closed = 1;
nodes = (
"65 0 LINE",
"634 1376 LINE",
"619 1365 LINE",
"1181 0 LINE",
"1273 0 LINE",
"656 1477 LINE",
"41 0 LINE"
);
},
{
closed = 1;
nodes = (
"1015 474 LINE",
"1011 484 LINE",
"253 484 LINE",
"249 474 LINE"
);
}
);
width = 1314;
},
{
anchors = (
{
name = bottom;
position = "{722, 0}";
},
{
name = ogonek;
position = "{1280, 0}";
},
{
name = top;
position = "{722, 1430}";
}
);
layerId = "66066CCB-AAC9-4485-8967-3F6B885ABFA4";
paths = (
{
closed = 1;
nodes = (
"176 0 LINE",
"638 942 LINE",
"612 956 LINE",
"1058 0 LINE",
"1469 0 LINE",
"720 1479 LINE",
"-23 0 LINE"
);
},
{
closed = 1;
nodes = (
"1041 313 LINE",
"961 519 LINE",
"288 519 LINE",
"199 313 LINE"
);
}
);
width = 1444;
},
{
anchors = (
{
name = bottom;
position = "{764, 0}";
},
{
name = ogonek;
position = "{1375, 0}";
},
{
name = top;
position = "{764, 1430}";
}
);
background = {
anchors = (
{
name = bottom;
position = "{764, 0}";
},
{
name = ogonek;
position = "{1375, 10}";
},
{
name = top;
position = "{764, 1430}";
}
);
paths = (
{
closed = 1;
nodes = (
"215 0 LINE",
"801 1357 LINE",
"724 1350 LINE",
"1309 0 LINE",
"1398 0 LINE",
"763 1466 LINE",
"130 0 LINE"
);
},
{
closed = 1;
nodes = (
"1162 510 LINE",
"1131 587 LINE",
"398 587 LINE",
"367 510 LINE"
);
}
);
};
layerId = "B71E0DD6-B640-4F5E-B48D-BF5E04BC2E71";
paths = (
{
closed = 1;
nodes = (
"215 0 LINE",
"801 1357 LINE",
"724 1350 LINE",
"1309 0 LINE",
"1398 0 LINE",
"763 1466 LINE",
"130 0 LINE"
);
},
{
closed = 1;
nodes = (
"1162 510 LINE",
"1131 587 LINE",
"398 587 LINE",
"367 510 LINE"
);
}
);
width = 1528;
}
);
leftKerningGroup = A;
note = A;
rightKerningGroup = A;
unicode = 0041;
},
{
glyphname = Adieresis;
lastChange = "2019-12-24 21:23:34 +0000";
layers = (
{
background = {
paths = (
{
closed = 1;
nodes = (
"-6 34 LINE",
"-6 0 LINE",
"414 0 LINE",
"414 34 LINE",
"352 34 LINE SMOOTH",
"258 34 OFFCURVE",
"218 50 OFFCURVE",
"218 92 CURVE SMOOTH",
"218 104 OFFCURVE",
"228 140 OFFCURVE",
"242 182 CURVE SMOOTH",
"334 436 LINE",
"790 436 LINE",
"942 34 LINE",
"744 34 LINE",
"744 0 LINE",
"1326 0 LINE",
"1326 34 LINE",
"1156 34 LINE",
"652 1354 LINE",
"626 1354 LINE",
"206 186 LINE SMOOTH",
"158 52 OFFCURVE",
"140 34 OFFCURVE",
"58 34 CURVE SMOOTH"
);
},
{
closed = 1;
nodes = (
"346 468 LINE",
"554 1062 LINE",
"778 468 LINE"
);
},
{
closed = 1;
nodes = (
"772 1698 OFFCURVE",
"728 1656 OFFCURVE",
"728 1602 CURVE SMOOTH",
"728 1550 OFFCURVE",
"772 1506 OFFCURVE",
"824 1506 CURVE SMOOTH",
"876 1506 OFFCURVE",
"920 1550 OFFCURVE",
"920 1602 CURVE SMOOTH",
"920 1654 OFFCURVE",
"876 1698 OFFCURVE",
"826 1698 CURVE SMOOTH"
);
},
{
closed = 1;
nodes = (
"396 1698 OFFCURVE",
"352 1656 OFFCURVE",
"352 1602 CURVE SMOOTH",
"352 1550 OFFCURVE",
"396 1506 OFFCURVE",
"448 1506 CURVE SMOOTH",
"500 1506 OFFCURVE",
"544 1550 OFFCURVE",
"544 1602 CURVE SMOOTH",
"544 1654 OFFCURVE",
"500 1698 OFFCURVE",
"450 1698 CURVE SMOOTH"
);
}
);
};
components = (
{
name = A;
},
{
name = dieresiscomb.case;
transform = "{1, 0, 0, 1, 307, 0}";
}
);
layerId = "EA94BB3F-1054-4F03-AAB6-69C3B81B3CC3";
width = 1288;
},
{
components = (
{
name = A;
},
{
name = dieresiscomb.case;
transform = "{1, 0, 0, 1, 461, 500}";
}
);
layerId = "1A84AFAC-8532-492C-A52A-D2ACD869B7F8";
width = 1284;
},
{
components = (
{
name = A;
},
{
name = dieresiscomb.case;
transform = "{1, 0, 0, 1, 302, -80}";
}
);
layerId = "16E03120-9D89-4B3A-B1E3-633A6E865927";
width = 1407;
},
{
components = (
{
name = A;
},
{
name = dieresiscomb.case;
transform = "{1, 0, 0, 1, 308, -80}";
}
);
layerId = "5EAC5215-9D4A-4BA0-8B26-A551FA1A966A";
width = 1407;
},
{
background = {
paths = (
{
closed = 1;
nodes = (
"-6 34 LINE",
"-6 0 LINE",
"414 0 LINE",
"414 34 LINE",
"352 34 LINE SMOOTH",
"258 34 OFFCURVE",
"218 50 OFFCURVE",
"218 92 CURVE SMOOTH",
"218 104 OFFCURVE",
"228 140 OFFCURVE",
"242 182 CURVE SMOOTH",
"334 436 LINE",
"790 436 LINE",
"942 34 LINE",
"744 34 LINE",
"744 0 LINE",
"1326 0 LINE",
"1326 34 LINE",
"1156 34 LINE",
"652 1354 LINE",
"626 1354 LINE",
"206 186 LINE SMOOTH",
"158 52 OFFCURVE",
"140 34 OFFCURVE",
"58 34 CURVE SMOOTH"
);
},
{
closed = 1;
nodes = (
"346 468 LINE",
"554 1062 LINE",
"778 468 LINE"
);
},
{
closed = 1;
nodes = (
"772 1698 OFFCURVE",
"728 1656 OFFCURVE",
"728 1602 CURVE SMOOTH",
"728 1550 OFFCURVE",
"772 1506 OFFCURVE",
"824 1506 CURVE SMOOTH",
"876 1506 OFFCURVE",
"920 1550 OFFCURVE",
"920 1602 CURVE SMOOTH",
"920 1654 OFFCURVE",
"876 1698 OFFCURVE",
"826 1698 CURVE SMOOTH"
);
},
{
closed = 1;
nodes = (
"396 1698 OFFCURVE",
"352 1656 OFFCURVE",
"352 1602 CURVE SMOOTH",
"352 1550 OFFCURVE",
"396 1506 OFFCURVE",
"448 1506 CURVE SMOOTH",
"500 1506 OFFCURVE",
"544 1550 OFFCURVE",
"544 1602 CURVE SMOOTH",
"544 1654 OFFCURVE",
"500 1698 OFFCURVE",
"450 1698 CURVE SMOOTH"
);
}
);
};
components = (
{
name = A;
},
{
name = dieresiscomb.case;
transform = "{1, 0, 0, 1, 352, -40}";
}
);
layerId = "B4536172-55B8-4884-A498-BDE07D5884DA";
width = 1361;
},
{
components = (
{
name = A;
},
{
name = dieresiscomb.case;
transform = "{1, 0, 0, 1, 401, 0}";
}
);
layerId = "09CD4194-2486-478D-AB32-B0AA8D4EDA22";
width = 1314;
},
{
background = {
components = (
{
name = A;
},
{
name = dieresiscomb;
transform = "{1, 0, 0, 1, 311, 510}";
}
);
};
components = (
{
name = A;
},
{
name = dieresiscomb.case;
transform = "{1, 0, 0, 1, 311, 0}";
}
);
layerId = "66066CCB-AAC9-4485-8967-3F6B885ABFA4";
width = 1444;
},
{
background = {
components = (
{
name = A;
},
{
name = dieresiscomb;
transform = "{1, 0, 0, 1, 516, 441}";
}
);
};
components = (
{
name = A;
},
{
name = dieresiscomb.case;
transform = "{1, 0, 0, 1, 511, 0}";
}
);
layerId = "B71E0DD6-B640-4F5E-B48D-BF5E04BC2E71";
width = 1528;
}
);
leftKerningGroup = A;
note = Adieresis;
rightKerningGroup = A;
unicode = 00C4;
},
{
glyphname = Aring;
lastChange = "2019-12-24 21:24:20 +0000";
layers = (
{
background = {
paths = (
{
closed = 1;
nodes = (
"-6 34 LINE",
"-6 0 LINE",
"414 0 LINE",
"414 34 LINE",
"352 34 LINE SMOOTH",
"258 34 OFFCURVE",
"218 50 OFFCURVE",
"218 92 CURVE SMOOTH",
"218 104 OFFCURVE",
"228 140 OFFCURVE",
"242 182 CURVE SMOOTH",
"334 436 LINE",
"790 436 LINE",
"942 34 LINE",
"744 34 LINE",
"744 0 LINE",
"1326 0 LINE",
"1326 34 LINE",
"1156 34 LINE",
"652 1354 LINE",
"626 1354 LINE",
"206 186 LINE SMOOTH",
"158 52 OFFCURVE",
"140 34 OFFCURVE",
"58 34 CURVE SMOOTH"
);
},
{
closed = 1;
nodes = (
"346 468 LINE",
"554 1062 LINE",
"778 468 LINE"
);
},
{
closed = 1;
nodes = (
"538 1812 OFFCURVE",
"454 1730 OFFCURVE",
"454 1628 CURVE SMOOTH",
"454 1524 OFFCURVE",
"538 1440 OFFCURVE",
"640 1440 CURVE SMOOTH",
"742 1440 OFFCURVE",
"826 1524 OFFCURVE",
"826 1626 CURVE SMOOTH",
"826 1726 OFFCURVE",
"742 1812 OFFCURVE",
"642 1812 CURVE SMOOTH"
);
},
{
closed = 1;
nodes = (
"714 1762 OFFCURVE",
"776 1700 OFFCURVE",
"776 1626 CURVE SMOOTH",
"776 1552 OFFCURVE",
"714 1490 OFFCURVE",
"640 1490 CURVE SMOOTH",
"564 1490 OFFCURVE",
"504 1552 OFFCURVE",
"504 1628 CURVE SMOOTH",
"504 1702 OFFCURVE",
"566 1762 OFFCURVE",
"642 1762 CURVE SMOOTH"
);
}
);
};
components = (
{
name = A;
},
{
name = ringcomb.case;
transform = "{1, 0, 0, 1, 375, 0}";
}
);
layerId = "EA94BB3F-1054-4F03-AAB6-69C3B81B3CC3";
width = 1288;
},
{
components = (
{
name = A;
},
{
name = ringcomb.case;
transform = "{1, 0, 0, 1, 406, 500}";
}
);
layerId = "1A84AFAC-8532-492C-A52A-D2ACD869B7F8";
width = 1284;
},
{
components = (
{
name = A;
},
{
name = ringcomb.case;
transform = "{1, 0, 0, 1, 417, -80}";
}
);
layerId = "16E03120-9D89-4B3A-B1E3-633A6E865927";
width = 1407;
},
{
components = (
{
name = A;
},
{
name = ringcomb.case;
transform = "{1, 0, 0, 1, 473, -80}";
}
);
layerId = "5EAC5215-9D4A-4BA0-8B26-A551FA1A966A";
width = 1407;
},
{
background = {
paths = (
{
closed = 1;
nodes = (
"-6 34 LINE",
"-6 0 LINE",
"414 0 LINE",
"414 34 LINE",
"352 34 LINE SMOOTH",
"258 34 OFFCURVE",
"218 50 OFFCURVE",
"218 92 CURVE SMOOTH",
"218 104 OFFCURVE",
"228 140 OFFCURVE",
"242 182 CURVE SMOOTH",
"334 436 LINE",
"790 436 LINE",
"942 34 LINE",
"744 34 LINE",
"744 0 LINE",
"1326 0 LINE",
"1326 34 LINE",
"1156 34 LINE",
"652 1354 LINE",
"626 1354 LINE",
"206 186 LINE SMOOTH",
"158 52 OFFCURVE",
"140 34 OFFCURVE",
"58 34 CURVE SMOOTH"
);
},
{
closed = 1;
nodes = (
"346 468 LINE",
"554 1062 LINE",
"778 468 LINE"
);
},
{
closed = 1;
nodes = (
"538 1812 OFFCURVE",
"454 1730 OFFCURVE",
"454 1628 CURVE SMOOTH",
"454 1524 OFFCURVE",
"538 1440 OFFCURVE",
"640 1440 CURVE SMOOTH",
"742 1440 OFFCURVE",
"826 1524 OFFCURVE",
"826 1626 CURVE SMOOTH",
"826 1726 OFFCURVE",
"742 1812 OFFCURVE",
"642 1812 CURVE SMOOTH"
);
},
{
closed = 1;
nodes = (
"714 1762 OFFCURVE",
"776 1700 OFFCURVE",
"776 1626 CURVE SMOOTH",
"776 1552 OFFCURVE",
"714 1490 OFFCURVE",
"640 1490 CURVE SMOOTH",
"564 1490 OFFCURVE",
"504 1552 OFFCURVE",
"504 1628 CURVE SMOOTH",
"504 1702 OFFCURVE",
"566 1762 OFFCURVE",
"642 1762 CURVE SMOOTH"
);
}
);
};
components = (
{
name = A;
},
{
name = ringcomb.case;
transform = "{1, 0, 0, 1, 405, -40}";
}
);
layerId = "B4536172-55B8-4884-A498-BDE07D5884DA";
width = 1361;
},
{
components = (
{
name = A;
},
{
name = ringcomb.case;
transform = "{1, 0, 0, 1, 393, 0}";
}
);
layerId = "09CD4194-2486-478D-AB32-B0AA8D4EDA22";
width = 1314;
},
{
background = {
components = (
{
name = A;
},
{
name = ringcomb;
transform = "{1, 0, 0, 1, 435, 510}";
}
);
};
components = (
{
name = A;
},
{
name = ringcomb.case;
transform = "{1, 0, 0, 1, 435, 0}";
}
);
layerId = "66066CCB-AAC9-4485-8967-3F6B885ABFA4";
width = 1444;
},
{
background = {
components = (
{
name = A;
},
{
name = ringcomb;
transform = "{1, 0, 0, 1, 519, 441}";
}
);
};
components = (
{
name = A;
},
{
name = ringcomb.case;
transform = "{1, 0, 0, 1, 519, 0}";
}
);
layerId = "B71E0DD6-B640-4F5E-B48D-BF5E04BC2E71";
width = 1528;
}
);
leftKerningGroup = A;
note = Aring;
rightKerningGroup = A;
unicode = 00C5;
},
{
color = 1;
glyphname = AE;
lastChange = "2019-12-24 19:38:52 +0000";
layers = (
{
anchors = (
{
name = bottom;
position = "{927, 0}";
},
{
name = top;
position = "{927, 1430}";
}
);
background = {
paths = (
{
closed = 1;
nodes = (
"9 0 LINE",
"113 2 OFFCURVE",
"191 4 OFFCURVE",
"245 4 CURVE SMOOTH",
"295 4 OFFCURVE",
"375 2 OFFCURVE",
"477 0 CURVE",
"477 34 LINE",
"415 34 LINE SMOOTH",
"329 34 OFFCURVE",
"291 48 OFFCURVE",
"291 80 CURVE SMOOTH",
"291 104 OFFCURVE",
"315 162 OFFCURVE",
"351 230 CURVE SMOOTH",
"461 436 LINE",
"909 436 LINE",
"909 34 LINE",
"691 34 LINE",
"691 0 LINE",
"1775 0 LINE",
"1775 394 LINE",
"1741 394 LINE",
"1741 374 LINE SMOOTH",
"1741 274 OFFCURVE",
"1717 184 OFFCURVE",
"1677 142 CURVE SMOOTH",
"1605 62 OFFCURVE",
"1499 34 OFFCURVE",
"1277 34 CURVE SMOOTH",
"1103 34 LINE",
"1103 660 LINE",
"1169 660 LINE SMOOTH",
"1303 660 OFFCURVE",
"1359 644 OFFCURVE",
"1385 598 CURVE",
"1401 572 OFFCURVE",
"1413 510 OFFCURVE",
"1413 456 CURVE SMOOTH",
"1413 432 LINE",
"1445 432 LINE",
"1445 936 LINE",
"1413 936 LINE",
"1413 912 LINE SMOOTH",
"1413 880 OFFCURVE",
"1403 814 OFFCURVE",
"1395 792 CURVE SMOOTH",
"1369 720 OFFCURVE",
"1309 694 OFFCURVE",
"1171 694 CURVE SMOOTH",
"1103 694 LINE",
"1103 1300 LINE",
"1283 1300 LINE SMOOTH",
"1439 1300 OFFCURVE",
"1537 1276 OFFCURVE",
"1589 1222 CURVE",
"1627 1186 OFFCURVE",
"1665 1088 OFFCURVE",
"1665 1026 CURVE SMOOTH",
"1665 1008 LINE",
"1699 1008 LINE",
"1667 1334 LINE",
"675 1334 LINE",
"675 1300 LINE",
"885 1300 LINE",
"303 210 LINE SMOOTH",
"283 172 OFFCURVE",
"247 118 OFFCURVE",
"223 90 CURVE SMOOTH",
"191 52 OFFCURVE",
"143 34 OFFCURVE",
"75 34 CURVE SMOOTH",
"9 34 LINE"
);
},
{
closed = 1;
nodes = (
"909 1276 LINE",
"909 470 LINE",
"477 470 LINE"
);
}
);
};
layerId = "EA94BB3F-1054-4F03-AAB6-69C3B81B3CC3";
paths = (
{
closed = 1;
nodes = (
"73 0 LINE",
"933 1430 LINE",
"897 1430 LINE",
"37 0 LINE"
);
},
{
closed = 1;
nodes = (
"1021 466 LINE",
"1021 502 LINE",
"347 502 LINE",
"347 466 LINE"
);
},
{
closed = 1;
nodes = (
"1747 0 LINE",
"1747 36 LINE",
"1010 36 LINE",
"1103 13 LINE",
"1103 723 LINE",
"1010 710 LINE",
"1747 710 LINE",
"1747 746 LINE",
"1010 746 LINE",
"1103 733 LINE",
"1103 1417 LINE",
"1010 1394 LINE",
"1747 1394 LINE",
"1747 1430 LINE",
"897 1430 LINE",
"897 0 LINE"
);
}
);
width = 1810;
},
{
anchors = (
{
name = bottom;
position = "{852, -20}";
},
{
name = top;
position = "{852, 1450}";
}
);
layerId = "1A84AFAC-8532-492C-A52A-D2ACD869B7F8";
paths = (
{
closed = 1;
nodes = (
"103 -10 LINE",
"951 1440 LINE",
"885 1440 LINE",
"37 -10 LINE"
);
},
{
closed = 1;
nodes = (
"975 459 LINE",
"975 486 LINE",
"333 486 LINE",
"333 459 LINE"
);
},
{
closed = 1;
nodes = (
"1552 -10 LINE",
"1552 17 LINE",
"973 17 LINE",
"1002 0 LINE",
"1002 745 LINE",
"974 715 LINE",
"1552 715 LINE",
"1552 742 LINE",
"974 742 LINE",
"1002 722 LINE",
"1002 1440 LINE",
"973 1413 LINE",
"1552 1413 LINE",
"1552 1440 LINE",
"942 1440 LINE",
"942 -10 LINE"
);
}
);
width = 1613;
},
{
anchors = (
{
name = bottom;
position = "{1009, 0}";
},
{
name = top;
position = "{1009, 1430}";
}
);
layerId = "16E03120-9D89-4B3A-B1E3-633A6E865927";
paths = (
{
closed = 1;
nodes = (
"193 -15 LINE",
"1071 1445 LINE",
"915 1445 LINE",
"37 -15 LINE"
);
},
{
closed = 1;
nodes = (
"1169 451 LINE",
"1169 517 LINE",
"415 517 LINE",
"415 451 LINE"
);
},
{
closed = 1;
nodes = (
"1895 -15 LINE",
"1895 51 LINE",
"958 51 LINE",
"1251 -1 LINE",
"1251 748 LINE",
"1070 695 LINE",
"1895 695 LINE",
"1895 761 LINE",
"1070 761 LINE",
"1251 708 LINE",
"1251 1431 LINE",
"958 1379 LINE",
"1895 1379 LINE",
"1895 1445 LINE",
"915 1445 LINE",
"915 -15 LINE"
);
}
);
width = 1965;
},
{
anchors = (
{
name = bottom;
position = "{924, 0}";
},
{
name = top;
position = "{924, 1430}";
}
);
background = {
paths = (
{
closed = 1;
nodes = (
"941 -15 LINE",
"1819 1445 LINE",
"1663 1445 LINE",
"785 -15 LINE"
);
},
{
closed = 1;
nodes = (
"1917 451 LINE",
"1917 517 LINE",
"1163 517 LINE",
"1163 451 LINE"
);
},
{
closed = 1;
nodes = (
"2643 -15 LINE",
"2643 51 LINE",
"1706 51 LINE",
"1999 -1 LINE",
"1999 748 LINE",
"1818 695 LINE",
"2643 695 LINE",
"2643 761 LINE",
"1818 761 LINE",
"1999 708 LINE",
"1999 1431 LINE",
"1706 1379 LINE",
"2643 1379 LINE",
"2643 1445 LINE",
"1663 1445 LINE",
"1663 -15 LINE"
);
}
);
};
layerId = "5EAC5215-9D4A-4BA0-8B26-A551FA1A966A";
paths = (
{
closed = 1;
nodes = (
"168 0 LINE",
"939 1445 LINE",
"750 1445 LINE",
"-22 0 LINE"
);
},
{
closed = 1;
nodes = (
"1024 411 LINE",
"998 437 LINE",
"374 437 LINE",
"346 411 LINE"
);
},
{
closed = 1;
nodes = (
"1789 0 LINE",
"1789 26 LINE",
"1004 26 LINE",
"1165 13 LINE",
"1165 752 LINE",
"1032 715 LINE",
"1789 715 LINE",
"1789 741 LINE",
"1004 741 LINE",
"1165 708 LINE",
"1165 1431 LINE",
"892 1419 LINE",
"1789 1419 LINE",
"1789 1445 LINE",
"925 1445 LINE",
"925 0 LINE"
);
}
);
width = 1849;
},
{
anchors = (
{
name = bottom;
position = "{888, -10}";
},
{
name = top;
position = "{888, 1440}";
}
);
background = {
paths = (
{
closed = 1;
nodes = (
"-54 0 LINE",
"50 2 OFFCURVE",
"128 4 OFFCURVE",
"182 4 CURVE SMOOTH",
"232 4 OFFCURVE",
"312 2 OFFCURVE",
"414 0 CURVE",
"414 34 LINE",
"352 34 LINE SMOOTH",
"266 34 OFFCURVE",
"228 48 OFFCURVE",
"228 80 CURVE SMOOTH",
"228 104 OFFCURVE",
"252 162 OFFCURVE",
"288 230 CURVE SMOOTH",
"398 436 LINE",
"846 436 LINE",
"846 34 LINE",
"628 34 LINE",
"628 0 LINE",
"1712 0 LINE",
"1712 394 LINE",
"1678 394 LINE",
"1678 374 LINE SMOOTH",
"1678 274 OFFCURVE",
"1654 184 OFFCURVE",
"1614 142 CURVE SMOOTH",
"1542 62 OFFCURVE",
"1436 34 OFFCURVE",
"1214 34 CURVE SMOOTH",
"1040 34 LINE",
"1040 660 LINE",
"1106 660 LINE SMOOTH",
"1240 660 OFFCURVE",
"1296 644 OFFCURVE",
"1322 598 CURVE",
"1338 572 OFFCURVE",
"1350 510 OFFCURVE",
"1350 456 CURVE SMOOTH",
"1350 432 LINE",
"1382 432 LINE",
"1382 936 LINE",
"1350 936 LINE",
"1350 912 LINE SMOOTH",
"1350 880 OFFCURVE",
"1340 814 OFFCURVE",
"1332 792 CURVE SMOOTH",
"1306 720 OFFCURVE",
"1246 694 OFFCURVE",
"1108 694 CURVE SMOOTH",
"1040 694 LINE",
"1040 1300 LINE",
"1220 1300 LINE SMOOTH",
"1376 1300 OFFCURVE",
"1474 1276 OFFCURVE",
"1526 1222 CURVE",
"1564 1186 OFFCURVE",
"1602 1088 OFFCURVE",
"1602 1026 CURVE SMOOTH",
"1602 1008 LINE",
"1636 1008 LINE",
"1604 1334 LINE",
"612 1334 LINE",
"612 1300 LINE",
"822 1300 LINE",
"240 210 LINE SMOOTH",
"220 172 OFFCURVE",
"184 118 OFFCURVE",
"160 90 CURVE SMOOTH",
"128 52 OFFCURVE",
"80 34 OFFCURVE",
"12 34 CURVE SMOOTH",
"-54 34 LINE"
);
},
{
closed = 1;
nodes = (
"846 1276 LINE",
"846 470 LINE",
"414 470 LINE"
);
}
);
};
layerId = "B4536172-55B8-4884-A498-BDE07D5884DA";
paths = (
{
closed = 1;
nodes = (
"136 -5 LINE",
"945 1443 LINE",
"833 1443 LINE",
"23 -5 LINE"
);
},
{
closed = 1;
nodes = (
"1000 435 LINE",
"987 462 LINE",
"369 462 LINE",
"355 435 LINE"
);
},
{
closed = 1;
nodes = (
"1671 -5 LINE",
"1671 22 LINE",
"989 22 LINE",
"1084 7 LINE",
"1084 749 LINE",
"1003 715 LINE",
"1671 715 LINE",
"1671 742 LINE",
"989 742 LINE",
"1084 715 LINE",
"1084 1436 LINE",
"933 1416 LINE",
"1671 1416 LINE",
"1671 1443 LINE",
"934 1443 LINE",
"934 -5 LINE"
);
}
);
width = 1731;
},
{
anchors = (
{
name = bottom;
position = "{852, -20}";
},
{
name = top;
position = "{852, 1450}";
}
);
layerId = "09CD4194-2486-478D-AB32-B0AA8D4EDA22";
paths = (
{
closed = 1;
nodes = (
"103 -10 LINE",
"951 1440 LINE",
"915 1440 LINE",
"67 -10 LINE"
);
},
{
closed = 1;
nodes = (
"975 459 LINE",
"975 486 LINE",
"363 486 LINE",
"363 459 LINE"
);
},
{
closed = 1;
nodes = (
"1552 -10 LINE",
"1552 17 LINE",
"973 17 LINE",
"1002 0 LINE",
"1002 745 LINE",
"974 715 LINE",
"1552 715 LINE",
"1552 742 LINE",
"974 742 LINE",
"1002 722 LINE",
"1002 1440 LINE",
"973 1413 LINE",
"1552 1413 LINE",
"1552 1440 LINE",
"942 1440 LINE",
"942 -10 LINE"
);
}
);
width = 1613;
},
{
anchors = (
{
name = bottom;
position = "{1019, 0}";
},
{
name = top;
position = "{1019, 1430}";
}
);
background = {
anchors = (
{
name = bottom;
position = "{1019, 0}";
},
{
name = top;
position = "{1019, 1430}";
}
);
paths = (
{
closed = 1;
nodes = (
"205 -18 LINE",
"1200 1437 LINE",
"955 1437 LINE",
"-41 -18 LINE"
);
},
{
closed = 1;
nodes = (
"1235 405 LINE",
"1235 598 LINE",
"422 598 LINE",
"422 405 LINE"
);
},
{
closed = 1;
nodes = (
"1982 -18 LINE",
"1982 175 LINE",
"986 175 LINE",
"984 44 LINE",
"1319 -7 LINE",
"1319 808 LINE",
"1106 755 LINE",
"1110 625 LINE",
"1982 625 LINE",
"1982 818 LINE",
"1111 818 LINE",
"1107 688 LINE",
"1319 633 LINE",
"1319 1424 LINE",
"985 1375 LINE",
"987 1244 LINE",
"1982 1244 LINE",
"1982 1437 LINE",
"932 1437 LINE",
"932 -18 LINE"
);
}
);
};
layerId = "66066CCB-AAC9-4485-8967-3F6B885ABFA4";
paths = (
{
closed = 1;
nodes = (
"162 -18 LINE",
"1157 1437 LINE",
"912 1437 LINE",
"-84 -18 LINE"
);
},
{
closed = 1;
nodes = (
"1235 405 LINE",
"1235 598 LINE",
"422 598 LINE",
"422 405 LINE"
);
},
{
closed = 1;
nodes = (
"1982 -18 LINE",
"1982 175 LINE",
"986 175 LINE",
"1319 -7 LINE",
"1319 808 LINE",
"1110 625 LINE",
"1982 625 LINE",
"1982 818 LINE",
"1111 818 LINE",
"1319 633 LINE",
"1319 1424 LINE",
"987 1244 LINE",
"1982 1244 LINE",
"1982 1437 LINE",
"932 1437 LINE",
"932 -18 LINE"
);
}
);
width = 2037;
},
{
anchors = (
{
name = bottom;
position = "{946, 0}";
},
{
name = top;
position = "{946, 1430}";
}
);
background = {
anchors = (
{
name = bottom;
position = "{946, 0}";
},
{
name = top;
position = "{946, 1430}";
}
);
paths = (
{
closed = 1;
nodes = (
"220 0 LINE",
"1126 1430 LINE",
"1036 1430 LINE",
"130 0 LINE"
);
},
{
closed = 1;
nodes = (
"1142 444 LINE",
"1142 522 LINE",
"477 522 LINE",
"477 444 LINE"
);
},
{
closed = 1;
nodes = (
"1753 0 LINE",
"1753 78 LINE",
"1131 78 LINE",
"1173 12 LINE",
"1173 761 LINE",
"1145 689 LINE",
"1753 689 LINE",
"1753 767 LINE",
"1111 767 LINE",
"1173 701 LINE",
"1173 1423 LINE",
"1032 1352 LINE",
"1753 1352 LINE",
"1753 1430 LINE",
"1089 1430 LINE",
"1089 0 LINE"
);
}
);
};
layerId = "B71E0DD6-B640-4F5E-B48D-BF5E04BC2E71";
paths = (
{
closed = 1;
nodes = (
"220 0 LINE",
"1126 1430 LINE",
"1036 1430 LINE",
"130 0 LINE"
);
},
{
closed = 1;
nodes = (
"1142 444 LINE",
"1142 522 LINE",
"477 522 LINE",
"477 444 LINE"
);
},
{
closed = 1;
nodes = (
"1753 0 LINE",
"1753 78 LINE",
"1131 78 LINE",
"1173 12 LINE",
"1173 761 LINE",
"1145 689 LINE",
"1753 689 LINE",
"1753 767 LINE",
"1111 767 LINE",
"1173 701 LINE",
"1173 1423 LINE",
"1032 1352 LINE",
"1753 1352 LINE",
"1753 1430 LINE",
"1089 1430 LINE",
"1089 0 LINE"
);
}
);
width = 1891;
}
);
leftKerningGroup = A;
note = AE;
rightKerningGroup = E;
unicode = 00C6;
},
{
color = 1;
glyphname = B;
lastChange = "2019-12-24 19:38:52 +0000";
layers = (
{
anchors = (
{
name = bottom;
position = "{623, 0}";
},
{
name = top;
position = "{623, 1430}";
}
);
background = {
paths = (
{
closed = 1;
nodes = (
"56 1430 LINE",
"56 1394 LINE",
"264 1394 LINE",
"264 36 LINE",
"56 36 LINE",
"56 0 LINE",
"684 0 LINE SMOOTH",
"930 0 OFFCURVE",
"978 10 OFFCURVE",
"1084 82 CURVE SMOOTH",
"1188 154 OFFCURVE",
"1248 266 OFFCURVE",
"1248 388 CURVE SMOOTH",
"1248 534 OFFCURVE",
"1170 650 OFFCURVE",
"1026 708 CURVE SMOOTH",
"970 732 OFFCURVE",
"924 742 OFFCURVE",
"814 758 CURVE",
"924 766 OFFCURVE",
"974 776 OFFCURVE",
"1032 804 CURVE SMOOTH",
"1146 858 OFFCURVE",
"1214 962 OFFCURVE",
"1214 1084 CURVE SMOOTH",
"1214 1250 OFFCURVE",
"1102 1366 OFFCURVE",
"906 1408 CURVE SMOOTH",
"816 1428 OFFCURVE",
"772 1430 OFFCURVE",
"570 1430 CURVE SMOOTH"
);
},
{
closed = 1;
nodes = (
"472 1394 LINE",
"516 1394 LINE SMOOTH",
"706 1394 OFFCURVE",
"782 1378 OFFCURVE",
"866 1320 CURVE SMOOTH",
"954 1262 OFFCURVE",
"1002 1172 OFFCURVE",
"1002 1062 CURVE SMOOTH",
"1002 964 OFFCURVE",
"968 886 OFFCURVE",
"906 838 CURVE SMOOTH",
"842 788 OFFCURVE",
"762 776 OFFCURVE",
"510 776 CURVE SMOOTH",
"472 776 LINE"
);
},
{
closed = 1;
nodes = (
"472 746 LINE",
"508 746 LINE SMOOTH",
"634 746 OFFCURVE",
"748 732 OFFCURVE",
"804 710 CURVE SMOOTH",
"948 652 OFFCURVE",
"1016 550 OFFCURVE",
"1016 396 CURVE SMOOTH",
"1016 272 OFFCURVE",
"964 156 OFFCURVE",
"880 98 CURVE SMOOTH",
"814 52 OFFCURVE",
"728 36 OFFCURVE",
"532 36 CURVE SMOOTH",
"472 36 LINE"
);
}
);
};
layerId = "EA94BB3F-1054-4F03-AAB6-69C3B81B3CC3";
paths = (
{
closed = 1;
nodes = (
"536 0 LINE SMOOTH",
"880 0 OFFCURVE",
"1102 80 OFFCURVE",
"1102 406 CURVE SMOOTH",
"1102 670 OFFCURVE",
"956 732 OFFCURVE",
"788 756 CURVE",
"788 760 LINE",
"926 798 OFFCURVE",
"1040 856 OFFCURVE",
"1040 1054 CURVE SMOOTH",
"1040 1312 OFFCURVE",
"846 1430 OFFCURVE",
"536 1430 CURVE SMOOTH",
"144 1430 LINE",
"144 0 LINE"
);
},
{
closed = 1;
nodes = (
"350 748 LINE",
"257 740 LINE",
"586 740 LINE SMOOTH",
"800 740 OFFCURVE",
"884 570 OFFCURVE",
"884 406 CURVE SMOOTH",
"884 208 OFFCURVE",
"760 36 OFFCURVE",
"536 36 CURVE SMOOTH",
"257 36 LINE",
"350 13 LINE"
);
},
{
closed = 1;
nodes = (
"350 1417 LINE",
"257 1394 LINE",
"536 1394 LINE SMOOTH",
"792 1394 OFFCURVE",
"822 1154 OFFCURVE",
"822 1034 CURVE SMOOTH",
"822 888 OFFCURVE",
"778 776 OFFCURVE",
"536 776 CURVE SMOOTH",
"257 776 LINE",
"350 767 LINE"
);
}
);
width = 1173;
},
{
anchors = (
{
name = bottom;
position = "{493, 0}";
},
{
name = top;
position = "{493, 1430}";
}
);
layerId = "1A84AFAC-8532-492C-A52A-D2ACD869B7F8";
paths = (
{
closed = 1;
nodes = (
"526 0 LINE SMOOTH",
"796 0 OFFCURVE",
"972 151 OFFCURVE",
"972 386 CURVE SMOOTH",
"972 586 OFFCURVE",
"844 747 OFFCURVE",
"664 762 CURVE",
"665 750 LINE",
"812 782 OFFCURVE",
"930 899 OFFCURVE",
"930 1074 CURVE SMOOTH",
"930 1275 OFFCURVE",
"774 1430 OFFCURVE",
"546 1430 CURVE SMOOTH",
"144 1430 LINE",
"144 0 LINE"
);
},
{
closed = 1;
nodes = (
"204 755 LINE",
"159 747 LINE",
"556 747 LINE SMOOTH",
"758 747 OFFCURVE",
"904 630 OFFCURVE",
"904 397 CURVE SMOOTH",
"904 184 OFFCURVE",
"782 26 OFFCURVE",
"486 26 CURVE SMOOTH",
"185 26 LINE",
"204 10 LINE"
);
},
{
closed = 1;
nodes = (
"204 1420 LINE",
"175 1404 LINE",
"526 1404 LINE SMOOTH",
"786 1404 OFFCURVE",
"864 1238 OFFCURVE",
"864 1069 CURVE SMOOTH",
"864 837 OFFCURVE",
"717 768 OFFCURVE",
"546 768 CURVE SMOOTH",
"159 768 LINE",
"204 761 LINE"
);
}
);
width = 1046;
},
{
anchors = (
{
name = bottom;
position = "{688, 0}";
},
{
name = top;
position = "{688, 1430}";
}
);
layerId = "16E03120-9D89-4B3A-B1E3-633A6E865927";
paths = (
{
closed = 1;
nodes = (
"601 0 LINE SMOOTH",
"1034 0 OFFCURVE",
"1262 121 OFFCURVE",
"1262 415 CURVE SMOOTH",
"1262 618 OFFCURVE",
"1138 725 OFFCURVE",
"918 769 CURVE",
"918 767 LINE",
"1100 827 OFFCURVE",
"1190 912 OFFCURVE",
"1190 1059 CURVE SMOOTH",
"1190 1315 OFFCURVE",
"959 1444 OFFCURVE",
"601 1444 CURVE SMOOTH",
"144 1444 LINE",
"144 0 LINE"
);
},
{
closed = 1;
nodes = (
"480 757 LINE",
"368 732 LINE",
"651 732 LINE SMOOTH",
"811 732 OFFCURVE",
"894 583 OFFCURVE",
"894 415 CURVE SMOOTH",
"894 204 OFFCURVE",
"768 66 OFFCURVE",
"601 66 CURVE SMOOTH",
"187 66 LINE",
"480 14 LINE"
);
},
{
closed = 1;
nodes = (
"480 1420 LINE",
"187 1378 LINE",
"601 1378 LINE SMOOTH",
"794 1378 OFFCURVE",
"832 1166 OFFCURVE",
"832 1039 CURVE SMOOTH",
"832 862 OFFCURVE",
"767 798 OFFCURVE",
"601 798 CURVE SMOOTH",
"406 798 LINE",
"480 773 LINE"
);
}
);
width = 1327;
},
{
anchors = (
{
name = bottom;
position = "{687, 0}";
},
{
name = top;
position = "{687, 1430}";
}
);
layerId = "5EAC5215-9D4A-4BA0-8B26-A551FA1A966A";
paths = (
{
closed = 1;
nodes = (
"700 0 LINE SMOOTH",
"1073 0 OFFCURVE",
"1231 104 OFFCURVE",
"1231 395 CURVE SMOOTH",
"1231 691 OFFCURVE",
"1067 766 OFFCURVE",
"847 810 CURVE",
"851 802 LINE",
"1065 832 OFFCURVE",
"1169 927 OFFCURVE",
"1169 1104 CURVE SMOOTH",
"1169 1338 OFFCURVE",
"988 1444 OFFCURVE",
"650 1444 CURVE SMOOTH",
"143 1444 LINE",
"143 0 LINE"
);
},
{
closed = 1;
nodes = (
"403 787 LINE",
"367 782 LINE",
"620 782 LINE SMOOTH",
"830 782 OFFCURVE",
"981 689 OFFCURVE",
"981 395 CURVE SMOOTH",
"981 80 OFFCURVE",
"807 26 OFFCURVE",
"600 26 CURVE SMOOTH",
"186 26 LINE",
"403 14 LINE"
);
},
{
closed = 1;
nodes = (
"403 1430 LINE",
"186 1418 LINE",
"530 1418 LINE SMOOTH",
"823 1418 OFFCURVE",
"915 1288 OFFCURVE",
"915 1099 CURVE SMOOTH",
"915 884 OFFCURVE",
"796 808 OFFCURVE",
"640 808 CURVE SMOOTH",
"375 808 LINE",
"403 803 LINE"
);
}
);
width = 1302;
},
{
anchors = (
{
name = bottom;
position = "{636, 0}";
},
{
name = top;
position = "{636, 1430}";
}
);
background = {
paths = (
{
closed = 1;
nodes = (
"26 1430 LINE",
"26 1394 LINE",
"234 1394 LINE",
"234 36 LINE",
"26 36 LINE",
"26 0 LINE",
"654 0 LINE SMOOTH",
"900 0 OFFCURVE",
"948 10 OFFCURVE",
"1054 82 CURVE SMOOTH",
"1158 154 OFFCURVE",
"1218 266 OFFCURVE",
"1218 388 CURVE SMOOTH",
"1218 534 OFFCURVE",
"1140 650 OFFCURVE",
"996 708 CURVE SMOOTH",
"940 732 OFFCURVE",
"894 742 OFFCURVE",
"784 758 CURVE",
"894 766 OFFCURVE",
"944 776 OFFCURVE",
"1002 804 CURVE SMOOTH",
"1116 858 OFFCURVE",
"1184 962 OFFCURVE",
"1184 1084 CURVE SMOOTH",
"1184 1250 OFFCURVE",
"1072 1366 OFFCURVE",
"876 1408 CURVE SMOOTH",
"786 1428 OFFCURVE",
"742 1430 OFFCURVE",
"540 1430 CURVE SMOOTH"
);
},
{
closed = 1;
nodes = (
"442 1394 LINE",
"486 1394 LINE SMOOTH",
"676 1394 OFFCURVE",
"752 1378 OFFCURVE",
"836 1320 CURVE SMOOTH",
"924 1262 OFFCURVE",
"972 1172 OFFCURVE",
"972 1062 CURVE SMOOTH",
"972 964 OFFCURVE",
"938 886 OFFCURVE",
"876 838 CURVE SMOOTH",
"812 788 OFFCURVE",
"732 776 OFFCURVE",
"480 776 CURVE SMOOTH",
"442 776 LINE"
);
},
{
closed = 1;
nodes = (
"442 746 LINE",
"478 746 LINE SMOOTH",
"604 746 OFFCURVE",
"718 732 OFFCURVE",
"774 710 CURVE SMOOTH",
"918 652 OFFCURVE",
"986 550 OFFCURVE",
"986 396 CURVE SMOOTH",
"986 272 OFFCURVE",
"934 156 OFFCURVE",
"850 98 CURVE SMOOTH",
"784 52 OFFCURVE",
"698 36 OFFCURVE",
"502 36 CURVE SMOOTH",
"442 36 LINE"
);
}
);
};
layerId = "B4536172-55B8-4884-A498-BDE07D5884DA";
paths = (
{
closed = 1;
nodes = (
"609 0 LINE SMOOTH",
"976 0 OFFCURVE",
"1145 108 OFFCURVE",
"1145 391 CURVE SMOOTH",
"1145 660 OFFCURVE",
"993 768 OFFCURVE",
"720 785 CURVE",
"722 780 LINE",
"964 794 OFFCURVE",
"1093 906 OFFCURVE",
"1093 1089 CURVE SMOOTH",
"1093 1309 OFFCURVE",
"912 1437 OFFCURVE",
"609 1437 CURVE SMOOTH",
"144 1437 LINE",
"144 0 LINE"
);
},
{
closed = 1;
nodes = (
"310 771 LINE",
"269 768 LINE",
"589 768 LINE SMOOTH",
"820 768 OFFCURVE",
"974 697 OFFCURVE",
"974 396 CURVE SMOOTH",
"974 114 OFFCURVE",
"836 18 OFFCURVE",
"554 18 CURVE SMOOTH",
"192 18 LINE",
"310 12 LINE"
);
},
{
closed = 1;
nodes = (
"310 1425 LINE",
"187 1419 LINE",
"539 1419 LINE SMOOTH",
"836 1419 OFFCURVE",
"920 1268 OFFCURVE",
"920 1084 CURVE SMOOTH",
"920 850 OFFCURVE",
"783 786 OFFCURVE",
"594 786 CURVE SMOOTH",
"273 786 LINE",
"310 782 LINE"
);
}
);
width = 1217;
},
{
anchors = (
{
name = bottom;
position = "{585, 0}";
},
{
name = top;
position = "{585, 1430}";
}
);
layerId = "09CD4194-2486-478D-AB32-B0AA8D4EDA22";
paths = (
{
closed = 1;
nodes = (
"518 0 LINE SMOOTH",
"878 0 OFFCURVE",
"1058 111 OFFCURVE",
"1058 386 CURVE SMOOTH",
"1058 628 OFFCURVE",
"918 769 OFFCURVE",
"593 759 CURVE",
"593 758 LINE",
"862 755 OFFCURVE",
"1016 884 OFFCURVE",
"1016 1074 CURVE SMOOTH",
"1016 1280 OFFCURVE",
"836 1430 OFFCURVE",
"568 1430 CURVE SMOOTH",
"144 1430 LINE",
"144 0 LINE"
);
},
{
closed = 1;
nodes = (
"216 755 LINE",
"171 753 LINE",
"558 753 LINE SMOOTH",
"810 753 OFFCURVE",
"966 704 OFFCURVE",
"966 397 CURVE SMOOTH",
"966 148 OFFCURVE",
"864 10 OFFCURVE",
"508 10 CURVE SMOOTH",
"197 10 LINE",
"216 10 LINE"
);
},
{
closed = 1;
nodes = (
"216 1420 LINE",
"187 1420 LINE",
"548 1420 LINE SMOOTH",
"848 1420 OFFCURVE",
"924 1247 OFFCURVE",
"924 1069 CURVE SMOOTH",
"924 816 OFFCURVE",
"769 763 OFFCURVE",
"548 763 CURVE SMOOTH",
"171 763 LINE",
"216 761 LINE"
);
}
);
width = 1132;
},
{
anchors = (
{
name = bottom;
position = "{688, 0}";
},
{
name = top;
position = "{688, 1430}";
}
);
background = {
anchors = (
{
name = bottom;
position = "{688, 0}";
},
{
name = top;
position = "{688, 1430}";
}
);
paths = (
{
closed = 1;
nodes = (
"626 0 LINE SMOOTH",
"1113 0 OFFCURVE",
"1329 132 OFFCURVE",
"1329 442 CURVE SMOOTH",
"1329 651 OFFCURVE",
"1211 771 OFFCURVE",
"984 817 CURVE",
"964 701 LINE",
"1166 765 OFFCURVE",
"1254 859 OFFCURVE",
"1254 1019 CURVE SMOOTH",
"1254 1295 OFFCURVE",
"1039 1436 OFFCURVE",
"626 1436 CURVE SMOOTH",
"135 1436 LINE",
"135 0 LINE"
);
},
{
closed = 1;
nodes = (
"522 813 LINE",
"387 791 LINE",
"389 660 LINE",
"678 660 LINE SMOOTH",
"819 660 OFFCURVE",
"908 574 OFFCURVE",
"908 441 CURVE SMOOTH",
"908 293 OFFCURVE",
"794 193 OFFCURVE",
"626 193 CURVE SMOOTH",
"189 193 LINE",
"187 62 LINE",
"522 11 LINE"
);
},
{
closed = 1;
nodes = (
"522 1411 LINE",
"188 1375 LINE",
"190 1243 LINE",
"626 1243 LINE SMOOTH",
"815 1243 OFFCURVE",
"844 1092 OFFCURVE",
"844 1000 CURVE SMOOTH",
"844 888 OFFCURVE",
"794 854 OFFCURVE",
"626 854 CURVE SMOOTH",
"431 854 LINE",
"427 724 LINE",
"522 699 LINE"
);
}
);
};
layerId = "66066CCB-AAC9-4485-8967-3F6B885ABFA4";
paths = (
{
closed = 1;
nodes = (
"626 0 LINE SMOOTH",
"1113 0 OFFCURVE",
"1329 132 OFFCURVE",
"1329 442 CURVE SMOOTH",
"1329 651 OFFCURVE",
"1211 771 OFFCURVE",
"984 817 CURVE",
"964 701 LINE",
"1166 765 OFFCURVE",
"1254 859 OFFCURVE",
"1254 1019 CURVE SMOOTH",
"1254 1295 OFFCURVE",
"1039 1436 OFFCURVE",
"626 1436 CURVE SMOOTH",
"135 1436 LINE",
"135 0 LINE"
);
},
{
closed = 1;
nodes = (
"522 813 LINE",
"389 660 LINE",
"678 660 LINE SMOOTH",
"819 660 OFFCURVE",
"908 574 OFFCURVE",
"908 441 CURVE SMOOTH",
"908 293 OFFCURVE",
"794 193 OFFCURVE",
"626 193 CURVE SMOOTH",
"189 193 LINE",
"522 11 LINE"
);
},
{
closed = 1;
nodes = (
"522 1411 LINE",
"190 1243 LINE",
"626 1243 LINE SMOOTH",
"815 1243 OFFCURVE",
"844 1092 OFFCURVE",
"844 1000 CURVE SMOOTH",
"844 888 OFFCURVE",
"794 854 OFFCURVE",
"626 854 CURVE SMOOTH",
"431 854 LINE",
"522 699 LINE"
);
}
);
width = 1376;
},
{
anchors = (
{
name = bottom;
position = "{608, 0}";
},
{
name = top;
position = "{608, 1430}";
}
);
background = {
anchors = (
{
name = bottom;
position = "{608, 0}";
},
{
name = top;
position = "{608, 1430}";
}
);
paths = (
{
closed = 1;
nodes = (
"582 0 LINE SMOOTH",
"896 0 OFFCURVE",
"1080 148 OFFCURVE",
"1080 401 CURVE SMOOTH",
"1080 609 OFFCURVE",
"946 767 OFFCURVE",
"742 784 CURVE",
"750 727 LINE",
"925 764 OFFCURVE",
"1032 890 OFFCURVE",
"1032 1058 CURVE SMOOTH",
"1032 1279 OFFCURVE",
"857 1430 OFFCURVE",
"600 1430 CURVE SMOOTH",
"168 1430 LINE",
"168 0 LINE"
);
},
{
closed = 1;
nodes = (
"251 777 LINE",
"207 720 LINE",
"617 720 LINE SMOOTH",
"843 720 OFFCURVE",
"988 601 OFFCURVE",
"988 410 CURVE SMOOTH",
"988 199 OFFCURVE",
"825 77 OFFCURVE",
"544 77 CURVE SMOOTH",
"214 77 LINE",
"251 13 LINE"
);
},
{
closed = 1;
nodes = (
"251 1418 LINE",
"175 1353 LINE",
"582 1353 LINE SMOOTH",
"808 1353 OFFCURVE",
"941 1244 OFFCURVE",
"941 1050 CURVE SMOOTH",
"941 864 OFFCURVE",
"802 793 OFFCURVE",
"600 793 CURVE SMOOTH",
"196 793 LINE",
"251 736 LINE"
);
}
);
};
layerId = "B71E0DD6-B640-4F5E-B48D-BF5E04BC2E71";
paths = (
{
closed = 1;
nodes = (
"582 0 LINE SMOOTH",
"896 0 OFFCURVE",
"1080 148 OFFCURVE",
"1080 401 CURVE SMOOTH",
"1080 609 OFFCURVE",
"946 767 OFFCURVE",
"742 784 CURVE",
"750 727 LINE",
"925 764 OFFCURVE",
"1032 890 OFFCURVE",
"1032 1058 CURVE SMOOTH",
"1032 1279 OFFCURVE",
"857 1430 OFFCURVE",
"600 1430 CURVE SMOOTH",
"168 1430 LINE",
"168 0 LINE"
);
},
{
closed = 1;
nodes = (
"251 777 LINE",
"207 720 LINE",
"617 720 LINE SMOOTH",
"843 720 OFFCURVE",
"988 601 OFFCURVE",
"988 410 CURVE SMOOTH",
"988 199 OFFCURVE",
"825 77 OFFCURVE",
"544 77 CURVE SMOOTH",
"214 77 LINE",
"251 13 LINE"
);
},
{
closed = 1;
nodes = (
"251 1418 LINE",
"175 1353 LINE",
"582 1353 LINE SMOOTH",
"808 1353 OFFCURVE",
"941 1244 OFFCURVE",
"941 1050 CURVE SMOOTH",
"941 864 OFFCURVE",
"802 793 OFFCURVE",
"600 793 CURVE SMOOTH",
"196 793 LINE",
"251 736 LINE"
);
}
);
width = 1216;
}
);
leftKerningGroup = H;
note = B;
rightKerningGroup = B;
unicode = 0042;
},
{
color = 1;
glyphname = C;
lastChange = "2019-12-24 19:38:52 +0000";
layers = (
{
anchors = (
{
name = bottom;
position = "{755, 0}";
},
{
name = top;
position = "{759, 1430}";
}
);
background = {
paths = (
{
closed = 1;
nodes = (
"939 -26 OFFCURVE",
"1115 42 OFFCURVE",
"1245 182 CURVE SMOOTH",
"1283 224 OFFCURVE",
"1317 268 OFFCURVE",
"1345 318 CURVE",
"1165 318 LINE",
"1085 122 OFFCURVE",
"941 4 OFFCURVE",
"759 4 CURVE SMOOTH",
"473 4 OFFCURVE",
"283 288 OFFCURVE",
"283 712 CURVE SMOOTH",
"283 1142 OFFCURVE",
"473 1430 OFFCURVE",
"759 1430 CURVE SMOOTH",
"939 1430 OFFCURVE",
"1083 1314 OFFCURVE",
"1161 1118 CURVE",
"1339 1118 LINE",
"1313 1166 OFFCURVE",
"1281 1208 OFFCURVE",
"1245 1244 CURVE SMOOTH",
"1121 1374 OFFCURVE",
"931 1460 OFFCURVE",
"759 1460 CURVE SMOOTH",
"585 1460 OFFCURVE",
"395 1370 OFFCURVE",
"273 1244 CURVE SMOOTH",
"151 1118 OFFCURVE",
"71 930 OFFCURVE",
"71 712 CURVE SMOOTH",
"71 508 OFFCURVE",
"141 320 OFFCURVE",
"273 182 CURVE SMOOTH",
"403 44 OFFCURVE",
"577 -26 OFFCURVE",
"759 -26 CURVE SMOOTH"
);
}
);
};
layerId = "EA94BB3F-1054-4F03-AAB6-69C3B81B3CC3";
paths = (
{
closed = 1;
nodes = (
"1009 -26 OFFCURVE",
"1225 106 OFFCURVE",
"1345 318 CURVE",
"1165 318 LINE",
"1084 120 OFFCURVE",
"940 4 OFFCURVE",
"758 4 CURVE SMOOTH",
"473 4 OFFCURVE",
"283 288 OFFCURVE",
"283 715 CURVE SMOOTH",
"283 1141 OFFCURVE",
"473 1430 OFFCURVE",
"759 1430 CURVE SMOOTH",
"939 1430 OFFCURVE",
"1083 1314 OFFCURVE",
"1161 1118 CURVE",
"1339 1118 LINE",
"1234 1312 OFFCURVE",
"988 1460 OFFCURVE",
"757 1460 CURVE SMOOTH",
"376 1460 OFFCURVE",
"71 1117 OFFCURVE",
"71 718 CURVE SMOOTH",
"71 300 OFFCURVE",
"357 -26 OFFCURVE",
"764 -26 CURVE SMOOTH"
);
}
);
width = 1393;
},
{
anchors = (
{
name = bottom;
position = "{654, 0}";
},
{
name = top;
position = "{654, 1430}";
}
);
layerId = "1A84AFAC-8532-492C-A52A-D2ACD869B7F8";
paths = (
{
closed = 1;
nodes = (
"971 -6 OFFCURVE",
"1127 98 OFFCURVE",
"1245 308 CURVE",
"1185 308 LINE",
"1068 90 OFFCURVE",
"902 24 OFFCURVE",
"736 24 CURVE SMOOTH",
"387 24 OFFCURVE",
"151 315 OFFCURVE",
"151 718 CURVE SMOOTH",
"151 1131 OFFCURVE",
"392 1410 OFFCURVE",
"729 1410 CURVE SMOOTH",
"894 1410 OFFCURVE",
"1080 1343 OFFCURVE",
"1187 1128 CURVE",
"1242 1128 LINE",
"1136 1350 OFFCURVE",
"954 1440 OFFCURVE",
"731 1440 CURVE SMOOTH",
"338 1440 OFFCURVE",
"75 1154 OFFCURVE",
"75 715 CURVE SMOOTH",
"75 254 OFFCURVE",
"348 -6 OFFCURVE",
"730 -6 CURVE SMOOTH"
);
}
);
width = 1294;
},
{
anchors = (
{
name = bottom;
position = "{818, 0}";
},
{
name = top;
position = "{822, 1430}";
}
);
background = {
components = (
{
name = O;
transform = "{1, 0, 0, 1, -27, 0}";
}
);
};
layerId = "16E03120-9D89-4B3A-B1E3-633A6E865927";
paths = (
{
closed = 1;
nodes = (
"1110 -41 OFFCURVE",
"1362 109 OFFCURVE",
"1482 343 CURVE",
"1172 343 LINE",
"1088 134 OFFCURVE",
"969 29 OFFCURVE",
"821 29 CURVE SMOOTH",
"580 29 OFFCURVE",
"411 308 OFFCURVE",
"411 715 CURVE SMOOTH",
"411 1125 OFFCURVE",
"583 1405 OFFCURVE",
"822 1405 CURVE SMOOTH",
"969 1405 OFFCURVE",
"1087 1300 OFFCURVE",
"1167 1093 CURVE",
"1476 1093 LINE",
"1387 1293 OFFCURVE",
"1114 1475 OFFCURVE",
"820 1475 CURVE SMOOTH",
"429 1475 OFFCURVE",
"69 1153 OFFCURVE",
"69 718 CURVE SMOOTH",
"69 300 OFFCURVE",
"400 -41 OFFCURVE",
"827 -41 CURVE SMOOTH"
);
}
);
width = 1531;
},
{
anchors = (
{
name = bottom;
position = "{818, 0}";
},
{
name = top;
position = "{822, 1430}";
}
);
layerId = "5EAC5215-9D4A-4BA0-8B26-A551FA1A966A";
paths = (
{
closed = 1;
nodes = (
"1110 -41 OFFCURVE",
"1362 109 OFFCURVE",
"1477 333 CURVE",
"1172 343 LINE",
"1088 134 OFFCURVE",
"969 29 OFFCURVE",
"821 29 CURVE SMOOTH",
"580 29 OFFCURVE",
"411 309 OFFCURVE",
"411 715 CURVE SMOOTH",
"411 1126 OFFCURVE",
"583 1405 OFFCURVE",
"822 1405 CURVE SMOOTH",
"969 1405 OFFCURVE",
"1087 1300 OFFCURVE",
"1167 1093 CURVE",
"1470 1103 LINE",
"1384 1293 OFFCURVE",
"1109 1475 OFFCURVE",
"820 1475 CURVE SMOOTH",
"424 1475 OFFCURVE",
"69 1155 OFFCURVE",
"69 718 CURVE SMOOTH",
"69 302 OFFCURVE",
"400 -41 OFFCURVE",
"827 -41 CURVE SMOOTH"
);
}
);
width = 1525;
},
{
anchors = (
{
name = bottom;
position = "{769, 0}";
},
{
name = top;
position = "{771, 1430}";
}
);
background = {
paths = (
{
closed = 1;
nodes = (
"938 -26 OFFCURVE",
"1114 42 OFFCURVE",
"1244 182 CURVE SMOOTH",
"1282 224 OFFCURVE",
"1316 268 OFFCURVE",
"1344 318 CURVE",
"1164 318 LINE",
"1084 122 OFFCURVE",
"940 4 OFFCURVE",
"758 4 CURVE SMOOTH",
"472 4 OFFCURVE",
"282 288 OFFCURVE",
"282 712 CURVE SMOOTH",
"282 1142 OFFCURVE",
"472 1430 OFFCURVE",
"758 1430 CURVE SMOOTH",
"938 1430 OFFCURVE",
"1082 1314 OFFCURVE",
"1160 1118 CURVE",
"1338 1118 LINE",
"1312 1166 OFFCURVE",
"1280 1208 OFFCURVE",
"1244 1244 CURVE SMOOTH",
"1120 1374 OFFCURVE",
"930 1460 OFFCURVE",
"758 1460 CURVE SMOOTH",
"584 1460 OFFCURVE",
"394 1370 OFFCURVE",
"272 1244 CURVE SMOOTH",
"150 1118 OFFCURVE",
"70 930 OFFCURVE",
"70 712 CURVE SMOOTH",
"70 508 OFFCURVE",
"140 320 OFFCURVE",
"272 182 CURVE SMOOTH",
"402 44 OFFCURVE",
"576 -26 OFFCURVE",
"758 -26 CURVE SMOOTH"
);
}
);
};
layerId = "B4536172-55B8-4884-A498-BDE07D5884DA";
paths = (
{
closed = 1;
nodes = (
"1073 -24 OFFCURVE",
"1277 104 OFFCURVE",
"1414 321 CURVE",
"1231 326 LINE",
"1111 112 OFFCURVE",
"968 17 OFFCURVE",
"811 17 CURVE SMOOTH",
"516 17 OFFCURVE",
"287 312 OFFCURVE",
"287 717 CURVE SMOOTH",
"287 1129 OFFCURVE",
"520 1418 OFFCURVE",
"808 1418 CURVE SMOOTH",
"964 1418 OFFCURVE",
"1116 1322 OFFCURVE",
"1225 1111 CURVE",
"1404 1116 LINE",
"1293 1322 OFFCURVE",
"1064 1458 OFFCURVE",
"808 1458 CURVE SMOOTH",
"414 1458 OFFCURVE",
"70 1155 OFFCURVE",
"70 717 CURVE SMOOTH",
"70 278 OFFCURVE",
"407 -24 OFFCURVE",
"811 -24 CURVE SMOOTH"
);
}
);
width = 1460;
},
{
anchors = (
{
name = bottom;
position = "{719, 0}";
},
{
name = top;
position = "{719, 1430}";
}
);
background = {
components = (
{
name = O;
transform = "{1, 0, 0, 1, 12, 0}";
}
);
};
layerId = "09CD4194-2486-478D-AB32-B0AA8D4EDA22";
paths = (
{
closed = 1;
nodes = (
"1036 -6 OFFCURVE",
"1192 98 OFFCURVE",
"1350 308 CURVE",
"1290 308 LINE",
"1133 90 OFFCURVE",
"967 4 OFFCURVE",
"801 4 CURVE SMOOTH",
"452 4 OFFCURVE",
"162 315 OFFCURVE",
"162 718 CURVE SMOOTH",
"162 1131 OFFCURVE",
"457 1430 OFFCURVE",
"794 1430 CURVE SMOOTH",
"959 1430 OFFCURVE",
"1145 1343 OFFCURVE",
"1282 1128 CURVE",
"1337 1128 LINE",
"1201 1350 OFFCURVE",
"1019 1440 OFFCURVE",
"796 1440 CURVE SMOOTH",
"403 1440 OFFCURVE",
"70 1154 OFFCURVE",
"70 715 CURVE SMOOTH",
"70 254 OFFCURVE",
"413 -6 OFFCURVE",
"795 -6 CURVE SMOOTH"
);
}
);
width = 1395;
},
{
anchors = (
{
name = bottom;
position = "{793, 0}";
},
{
name = top;
position = "{793, 1430}";
}
);
background = {
anchors = (
{
name = bottom;
position = "{793, 0}";
},
{
name = top;
position = "{793, 1430}";
}
);
paths = (
{
closed = 1;
nodes = (
"1189 -45 OFFCURVE",
"1468 134 OFFCURVE",
"1600 443 CURVE",
"1209 443 LINE",
"1138 254 OFFCURVE",
"1015 154 OFFCURVE",
"851 154 CURVE SMOOTH",
"606 154 OFFCURVE",
"448 370 OFFCURVE",
"448 709 CURVE SMOOTH",
"448 1049 OFFCURVE",
"607 1269 OFFCURVE",
"851 1269 CURVE SMOOTH",
"1016 1269 OFFCURVE",
"1138 1169 OFFCURVE",
"1204 981 CURVE",
"1581 981 LINE",
"1502 1261 OFFCURVE",
"1177 1467 OFFCURVE",
"849 1467 CURVE SMOOTH",
"413 1467 OFFCURVE",
"56 1129 OFFCURVE",
"56 712 CURVE SMOOTH",
"56 293 OFFCURVE",
"413 -45 OFFCURVE",
"856 -45 CURVE SMOOTH"
);
}
);
};
layerId = "66066CCB-AAC9-4485-8967-3F6B885ABFA4";
paths = (
{
closed = 1;
nodes = (
"1189 -45 OFFCURVE",
"1468 134 OFFCURVE",
"1590 443 CURVE",
"1209 443 LINE",
"1138 254 OFFCURVE",
"1015 154 OFFCURVE",
"851 154 CURVE SMOOTH",
"606 154 OFFCURVE",
"448 370 OFFCURVE",
"448 709 CURVE SMOOTH",
"448 1049 OFFCURVE",
"607 1269 OFFCURVE",
"851 1269 CURVE SMOOTH",
"1016 1269 OFFCURVE",
"1138 1169 OFFCURVE",
"1204 981 CURVE",
"1571 981 LINE",
"1502 1261 OFFCURVE",
"1177 1467 OFFCURVE",
"849 1467 CURVE SMOOTH",
"413 1467 OFFCURVE",
"76 1129 OFFCURVE",
"76 712 CURVE SMOOTH",
"76 293 OFFCURVE",
"413 -45 OFFCURVE",
"856 -45 CURVE SMOOTH"
);
}
);
width = 1586;
},
{
anchors = (
{
name = bottom;
position = "{756, 0}";
},
{
name = top;
position = "{756, 1430}";
}
);
background = {
anchors = (
{
name = bottom;
position = "{756, 0}";
},
{
name = top;
position = "{756, 1430}";
}
);
paths = (
{
closed = 1;
nodes = (
"1073 -10 OFFCURVE",
"1244 101 OFFCURVE",
"1381 349 CURVE",
"1287 349 LINE",
"1192 169 OFFCURVE",
"1028 69 OFFCURVE",
"823 69 CURVE SMOOTH",
"476 69 OFFCURVE",
"237 333 OFFCURVE",
"237 717 CURVE SMOOTH",
"237 1102 OFFCURVE",
"473 1364 OFFCURVE",
"817 1364 CURVE SMOOTH",
"1028 1364 OFFCURVE",
"1205 1260 OFFCURVE",
"1288 1087 CURVE",
"1374 1087 LINE",
"1265 1323 OFFCURVE",
"1076 1443 OFFCURVE",
"819 1443 CURVE SMOOTH",
"417 1443 OFFCURVE",
"139 1145 OFFCURVE",
"139 716 CURVE SMOOTH",
"139 279 OFFCURVE",
"409 -10 OFFCURVE",
"819 -10 CURVE SMOOTH"
);
}
);
};
layerId = "B71E0DD6-B640-4F5E-B48D-BF5E04BC2E71";
paths = (
{
closed = 1;
nodes = (
"1073 -10 OFFCURVE",
"1244 101 OFFCURVE",
"1381 349 CURVE",
"1287 349 LINE",
"1192 169 OFFCURVE",
"1028 69 OFFCURVE",
"823 69 CURVE SMOOTH",
"476 69 OFFCURVE",
"237 333 OFFCURVE",
"237 717 CURVE SMOOTH",
"237 1102 OFFCURVE",
"473 1364 OFFCURVE",
"817 1364 CURVE SMOOTH",
"1028 1364 OFFCURVE",
"1205 1260 OFFCURVE",
"1288 1087 CURVE",
"1374 1087 LINE",
"1265 1323 OFFCURVE",
"1076 1443 OFFCURVE",
"819 1443 CURVE SMOOTH",
"417 1443 OFFCURVE",
"139 1145 OFFCURVE",
"139 716 CURVE SMOOTH",
"139 279 OFFCURVE",
"409 -10 OFFCURVE",
"819 -10 CURVE SMOOTH"
);
}
);
width = 1512;
}
);
leftKerningGroup = O;
note = C;
rightKerningGroup = C;
unicode = 0043;
},
{
glyphname = Ccedilla;
lastChange = "2019-12-24 21:14:18 +0000";
layers = (
{
background = {
paths = (
{
closed = 1;
nodes = (
"1170 22 LINE",
"1166 110 OFFCURVE",
"1164 188 OFFCURVE",
"1164 224 CURVE SMOOTH",
"1164 294 OFFCURVE",
"1166 364 OFFCURVE",
"1170 476 CURVE",
"1138 476 LINE",
"1136 372 OFFCURVE",
"1120 308 OFFCURVE",
"1084 242 CURVE SMOOTH",
"1002 96 OFFCURVE",
"852 6 OFFCURVE",
"690 6 CURVE SMOOTH",
"432 6 OFFCURVE",
"296 224 OFFCURVE",
"296 640 CURVE SMOOTH",
"296 844 OFFCURVE",
"332 1034 OFFCURVE",
"394 1148 CURVE SMOOTH",
"458 1266 OFFCURVE",
"558 1326 OFFCURVE",
"694 1326 CURVE SMOOTH",
"834 1326 OFFCURVE",
"954 1264 OFFCURVE",
"1048 1146 CURVE SMOOTH",
"1108 1066 OFFCURVE",
"1130 1006 OFFCURVE",
"1138 896 CURVE",
"1170 896 LINE",
"1170 926 LINE",
"1164 1152 LINE",
"1164 1188 OFFCURVE",
"1166 1224 OFFCURVE",
"1170 1300 CURVE",
"1138 1300 LINE",
"1130 1244 OFFCURVE",
"1112 1220 OFFCURVE",
"1076 1220 CURVE SMOOTH",
"1054 1220 OFFCURVE",
"1040 1228 OFFCURVE",
"980 1266 CURVE SMOOTH",
"886 1328 OFFCURVE",
"800 1354 OFFCURVE",
"692 1354 CURVE SMOOTH",
"524 1354 OFFCURVE",
"360 1272 OFFCURVE",
"238 1124 CURVE SMOOTH",
"136 1002 OFFCURVE",
"74 820 OFFCURVE",
"74 642 CURVE SMOOTH",
"74 280 OFFCURVE",
"332 -8 OFFCURVE",
"670 -22 CURVE",
"560 -216 LINE",
"576 -230 LINE",
"612 -208 OFFCURVE",
"622 -204 OFFCURVE",
"648 -204 CURVE SMOOTH",
"706 -204 OFFCURVE",
"746 -240 OFFCURVE",
"746 -290 CURVE SMOOTH",
"746 -348 OFFCURVE",
"698 -392 OFFCURVE",
"632 -392 CURVE SMOOTH",
"584 -392 OFFCURVE",
"526 -380 OFFCURVE",
"488 -360 CURVE",
"476 -388 LINE",
"536 -416 OFFCURVE",
"600 -432 OFFCURVE",
"662 -432 CURVE SMOOTH",
"784 -432 OFFCURVE",
"876 -372 OFFCURVE",
"876 -290 CURVE SMOOTH",
"876 -218 OFFCURVE",
"812 -168 OFFCURVE",
"720 -168 CURVE SMOOTH",
"682 -168 OFFCURVE",
"654 -174 OFFCURVE",
"610 -192 CURVE",
"708 -22 LINE",
"826 -16 OFFCURVE",
"892 8 OFFCURVE",
"978 72 CURVE SMOOTH",
"1028 108 OFFCURVE",
"1042 116 OFFCURVE",
"1068 116 CURVE SMOOTH",
"1104 116 OFFCURVE",
"1134 78 OFFCURVE",
"1138 22 CURVE"
);
}
);
};
components = (
{
name = C;
},
{
name = cedillacomb.case;
transform = "{1, 0, 0, 1, 493, 0}";
}
);
layerId = "EA94BB3F-1054-4F03-AAB6-69C3B81B3CC3";
width = 1393;
},
{
components = (
{
name = C;
transform = "{1, 0, 0, 1.014, 0, 0}";
},
{
name = cedillacomb.case;
transform = "{1, 0, 0, 1, 484, 0}";
}
);
layerId = "1A84AFAC-8532-492C-A52A-D2ACD869B7F8";
width = 1294;
},
{
components = (
{
name = C;
},
{
name = cedillacomb.case;
transform = "{1, 0, 0, 1, 520, 0}";
}
);
layerId = "16E03120-9D89-4B3A-B1E3-633A6E865927";
width = 1531;
},
{
components = (
{
name = C;
},
{
name = cedillacomb.case;
transform = "{1, 0, 0, 1, 540, 0}";
}
);
layerId = "5EAC5215-9D4A-4BA0-8B26-A551FA1A966A";
width = 1525;
},
{
background = {
paths = (
{
closed = 1;
nodes = (
"1170 22 LINE",
"1166 110 OFFCURVE",
"1164 188 OFFCURVE",
"1164 224 CURVE SMOOTH",
"1164 294 OFFCURVE",
"1166 364 OFFCURVE",
"1170 476 CURVE",
"1138 476 LINE",
"1136 372 OFFCURVE",
"1120 308 OFFCURVE",
"1084 242 CURVE SMOOTH",
"1002 96 OFFCURVE",
"852 6 OFFCURVE",
"690 6 CURVE SMOOTH",
"432 6 OFFCURVE",
"296 224 OFFCURVE",
"296 640 CURVE SMOOTH",
"296 844 OFFCURVE",
"332 1034 OFFCURVE",
"394 1148 CURVE SMOOTH",
"458 1266 OFFCURVE",
"558 1326 OFFCURVE",
"694 1326 CURVE SMOOTH",
"834 1326 OFFCURVE",
"954 1264 OFFCURVE",
"1048 1146 CURVE SMOOTH",
"1108 1066 OFFCURVE",
"1130 1006 OFFCURVE",
"1138 896 CURVE",
"1170 896 LINE",
"1170 926 LINE",
"1164 1152 LINE",
"1164 1188 OFFCURVE",
"1166 1224 OFFCURVE",
"1170 1300 CURVE",
"1138 1300 LINE",
"1130 1244 OFFCURVE",
"1112 1220 OFFCURVE",
"1076 1220 CURVE SMOOTH",
"1054 1220 OFFCURVE",
"1040 1228 OFFCURVE",
"980 1266 CURVE SMOOTH",
"886 1328 OFFCURVE",
"800 1354 OFFCURVE",
"692 1354 CURVE SMOOTH",
"524 1354 OFFCURVE",
"360 1272 OFFCURVE",
"238 1124 CURVE SMOOTH",
"136 1002 OFFCURVE",
"74 820 OFFCURVE",
"74 642 CURVE SMOOTH",
"74 280 OFFCURVE",
"332 -8 OFFCURVE",
"670 -22 CURVE",
"560 -216 LINE",
"576 -230 LINE",
"612 -208 OFFCURVE",
"622 -204 OFFCURVE",
"648 -204 CURVE SMOOTH",
"706 -204 OFFCURVE",
"746 -240 OFFCURVE",
"746 -290 CURVE SMOOTH",
"746 -348 OFFCURVE",
"698 -392 OFFCURVE",
"632 -392 CURVE SMOOTH",
"584 -392 OFFCURVE",
"526 -380 OFFCURVE",
"488 -360 CURVE",
"476 -388 LINE",
"536 -416 OFFCURVE",
"600 -432 OFFCURVE",
"662 -432 CURVE SMOOTH",
"784 -432 OFFCURVE",
"876 -372 OFFCURVE",
"876 -290 CURVE SMOOTH",
"876 -218 OFFCURVE",
"812 -168 OFFCURVE",
"720 -168 CURVE SMOOTH",
"682 -168 OFFCURVE",
"654 -174 OFFCURVE",
"610 -192 CURVE",
"708 -22 LINE",
"826 -16 OFFCURVE",
"892 8 OFFCURVE",
"978 72 CURVE SMOOTH",
"1028 108 OFFCURVE",
"1042 116 OFFCURVE",
"1068 116 CURVE SMOOTH",
"1104 116 OFFCURVE",
"1134 78 OFFCURVE",
"1138 22 CURVE"
);
}
);
};
components = (
{
name = C;
transform = "{1, 0, 0, 1.007, 0, 0}";
},
{
name = cedillacomb.case;
transform = "{1, 0, 0, 1, 535, 0}";
}
);
layerId = "B4536172-55B8-4884-A498-BDE07D5884DA";
width = 1460;
},
{
components = (
{
name = C;
transform = "{1, 0, 0, 1.014, 0, 0}";
},
{
name = cedillacomb.case;
transform = "{1, 0, 0, 1, 549, 0}";
}
);
layerId = "09CD4194-2486-478D-AB32-B0AA8D4EDA22";
width = 1395;
},
{
background = {
components = (
{
name = C;
},
{
name = cedillacomb;
transform = "{1, 0, 0, 1, 538, -8}";
}
);
};
components = (
{
name = C;
},
{
name = cedillacomb.case;
transform = "{1, 0, 0, 1, 487, 0}";
}
);
layerId = "66066CCB-AAC9-4485-8967-3F6B885ABFA4";
width = 1586;
},
{
background = {
components = (
{
name = C;
transform = "{1, 0, 0, 1.014, 0, 0}";
},
{
name = cedillacomb;
transform = "{1, 0, 0, 1, 578, 0}";
}
);
};
components = (
{
name = C;
transform = "{1, 0, 0, 1.014, 0, 0}";
},
{
name = cedillacomb.case;
transform = "{1, 0, 0, 1, 578, 0}";
}
);
layerId = "B71E0DD6-B640-4F5E-B48D-BF5E04BC2E71";
width = 1512;
}
);
leftKerningGroup = O;
note = Ccedilla;
rightKerningGroup = C;
unicode = 00C7;
},
{
color = 1;
glyphname = D;
lastChange = "2019-12-24 19:38:52 +0000";
layers = (
{
anchors = (
{
name = bottom;
position = "{745, 0}";
},
{
name = center;
position = "{259, 715}";
},
{
name = top;
position = "{745, 1430}";
}
);
background = {
paths = (
{
closed = 1;
nodes = (
"528 0 LINE SMOOTH",
"866 0 OFFCURVE",
"1008 54 OFFCURVE",
"1114 134 CURVE SMOOTH",
"1280 260 OFFCURVE",
"1364 459 OFFCURVE",
"1364 713 CURVE SMOOTH",
"1364 843 OFFCURVE",
"1342 956 OFFCURVE",
"1300 1054 CURVE SMOOTH",
"1216 1250 OFFCURVE",
"1058 1361 OFFCURVE",
"896 1400 CURVE SMOOTH",
"812 1420 OFFCURVE",
"696 1430 OFFCURVE",
"466 1430 CURVE SMOOTH",
"144 1430 LINE",
"144 0 LINE"
);
},
{
closed = 1;
nodes = (
"358 1417 LINE",
"265 1394 LINE",
"472 1394 LINE SMOOTH",
"995 1394 OFFCURVE",
"1128 1124 OFFCURVE",
"1128 719 CURVE SMOOTH",
"1128 252 OFFCURVE",
"951 36 OFFCURVE",
"472 36 CURVE SMOOTH",
"265 36 LINE",
"358 13 LINE"
);
}
);
};
layerId = "EA94BB3F-1054-4F03-AAB6-69C3B81B3CC3";
paths = (
{
closed = 1;
nodes = (
"528 0 LINE SMOOTH",
"808 0 OFFCURVE",
"982 34 OFFCURVE",
"1114 134 CURVE SMOOTH",
"1280 260 OFFCURVE",
"1364 459 OFFCURVE",
"1364 712 CURVE SMOOTH",
"1364 935 OFFCURVE",
"1299 1134 OFFCURVE",
"1144 1272 CURVE SMOOTH",
"966 1430 OFFCURVE",
"748 1430 OFFCURVE",
"466 1430 CURVE SMOOTH",
"144 1430 LINE",
"144 0 LINE"
);
},
{
closed = 1;
nodes = (
"358 1417 LINE",
"265 1394 LINE",
"472 1394 LINE SMOOTH",
"995 1394 OFFCURVE",
"1128 1124 OFFCURVE",
"1128 719 CURVE SMOOTH",
"1128 252 OFFCURVE",
"951 36 OFFCURVE",
"472 36 CURVE SMOOTH",
"265 36 LINE",
"358 13 LINE"
);
}
);
width = 1438;
},
{
anchors = (
{
name = bottom;
position = "{635, 0}";
},
{
name = center;
position = "{185, 715}";
},
{
name = top;
position = "{635, 1430}";
}
);
layerId = "1A84AFAC-8532-492C-A52A-D2ACD869B7F8";
paths = (
{
closed = 1;
nodes = (
"468 0 LINE SMOOTH",
"659 0 OFFCURVE",
"810 27 OFFCURVE",
"926 95 CURVE SMOOTH",
"1097 194 OFFCURVE",
"1189 381 OFFCURVE",
"1189 715 CURVE SMOOTH",
"1189 991 OFFCURVE",
"1127 1174 OFFCURVE",
"988 1286 CURVE SMOOTH",
"859 1390 OFFCURVE",
"665 1430 OFFCURVE",
"406 1430 CURVE SMOOTH",
"144 1430 LINE",
"144 0 LINE"
);
},
{
closed = 1;
nodes = (
"214 1415 LINE",
"190 1404 LINE",
"498 1404 LINE SMOOTH",
"940 1404 OFFCURVE",
"1124 1180 OFFCURVE",
"1124 719 CURVE SMOOTH",
"1124 250 OFFCURVE",
"933 26 OFFCURVE",
"488 26 CURVE SMOOTH",
"190 26 LINE",
"214 15 LINE"
);
}
);
width = 1269;
},
{
anchors = (
{
name = bottom;
position = "{810, 0}";
},
{
name = center;
position = "{324, 715}";
},
{
name = top;
position = "{810, 1430}";
}
);
layerId = "16E03120-9D89-4B3A-B1E3-633A6E865927";
paths = (
{
closed = 1;
nodes = (
"593 0 LINE SMOOTH",
"862 0 OFFCURVE",
"1037 0 OFFCURVE",
"1218 137 CURVE SMOOTH",
"1361 245 OFFCURVE",
"1494 440 OFFCURVE",
"1494 722 CURVE SMOOTH",
"1494 954 OFFCURVE",
"1398 1153 OFFCURVE",
"1252 1283 CURVE SMOOTH",
"1059 1454 OFFCURVE",
"847 1445 OFFCURVE",
"531 1445 CURVE SMOOTH",
"144 1445 LINE",
"144 0 LINE"
);
},
{
closed = 1;
nodes = (
"488 1441 LINE",
"195 1379 LINE",
"537 1379 LINE SMOOTH",
"957 1379 OFFCURVE",
"1128 1205 OFFCURVE",
"1128 729 CURVE SMOOTH",
"1128 256 OFFCURVE",
"959 66 OFFCURVE",
"537 66 CURVE SMOOTH",
"195 66 LINE",
"488 4 LINE"
);
}
);
width = 1564;
},
{
anchors = (
{
name = bottom;
position = "{770, 0}";
},
{
name = center;
position = "{284, 715}";
},
{
name = top;
position = "{770, 1430}";
}
);
layerId = "5EAC5215-9D4A-4BA0-8B26-A551FA1A966A";
paths = (
{
closed = 1;
nodes = (
"553 -15 LINE SMOOTH",
"835 -15 OFFCURVE",
"1051 52 OFFCURVE",
"1194 181 CURVE SMOOTH",
"1325 300 OFFCURVE",
"1394 472 OFFCURVE",
"1394 692 CURVE SMOOTH",
"1394 911 OFFCURVE",
"1325 1090 OFFCURVE",
"1197 1215 CURVE SMOOTH",
"1044 1364 OFFCURVE",
"805 1445 OFFCURVE",
"491 1445 CURVE SMOOTH",
"144 1445 LINE",
"144 -15 LINE"
);
},
{
closed = 1;
nodes = (
"404 1441 LINE",
"195 1419 LINE",
"497 1419 LINE SMOOTH",
"877 1419 OFFCURVE",
"1088 1152 OFFCURVE",
"1088 699 CURVE SMOOTH",
"1088 247 OFFCURVE",
"877 11 OFFCURVE",
"497 11 CURVE SMOOTH",
"195 11 LINE",
"404 -11 LINE"
);
}
);
width = 1465;
},
{
anchors = (
{
name = bottom;
position = "{703, 0}";
},
{
name = center;
position = "{229, 715}";
},
{
name = top;
position = "{703, 1430}";
}
);
background = {
paths = (
{
closed = 1;
nodes = (
"498 0 LINE SMOOTH",
"836 0 OFFCURVE",
"978 54 OFFCURVE",
"1084 134 CURVE SMOOTH",
"1250 260 OFFCURVE",
"1334 459 OFFCURVE",
"1334 713 CURVE SMOOTH",
"1334 843 OFFCURVE",
"1312 956 OFFCURVE",
"1270 1054 CURVE SMOOTH",
"1186 1250 OFFCURVE",
"1028 1361 OFFCURVE",
"866 1400 CURVE SMOOTH",
"782 1420 OFFCURVE",
"666 1430 OFFCURVE",
"436 1430 CURVE SMOOTH",
"114 1430 LINE",
"114 0 LINE"
);
},
{
closed = 1;
nodes = (
"328 1417 LINE",
"235 1394 LINE",
"442 1394 LINE SMOOTH",
"965 1394 OFFCURVE",
"1098 1124 OFFCURVE",
"1098 719 CURVE SMOOTH",
"1098 252 OFFCURVE",
"921 36 OFFCURVE",
"442 36 CURVE SMOOTH",
"235 36 LINE",
"328 13 LINE"
);
}
);
};
layerId = "B4536172-55B8-4884-A498-BDE07D5884DA";
paths = (
{
closed = 1;
nodes = (
"511 -8 LINE SMOOTH",
"759 -8 OFFCURVE",
"952 43 OFFCURVE",
"1090 154 CURVE SMOOTH",
"1234 270 OFFCURVE",
"1307 452 OFFCURVE",
"1307 704 CURVE SMOOTH",
"1307 952 OFFCURVE",
"1238 1130 OFFCURVE",
"1099 1251 CURVE SMOOTH",
"954 1377 OFFCURVE",
"737 1438 OFFCURVE",
"449 1438 CURVE SMOOTH",
"136 1438 LINE",
"136 -8 LINE"
);
},
{
closed = 1;
nodes = (
"309 1433 LINE",
"193 1420 LINE",
"472 1420 LINE SMOOTH",
"894 1420 OFFCURVE",
"1106 1176 OFFCURVE",
"1106 709 CURVE SMOOTH",
"1106 240 OFFCURVE",
"893 11 OFFCURVE",
"468 11 CURVE SMOOTH",
"193 11 LINE",
"309 -3 LINE"
);
}
);
width = 1367;
},
{
anchors = (
{
name = bottom;
position = "{635, 0}";
},
{
name = center;
position = "{173, 715}";
},
{
name = top;
position = "{635, 1430}";
}
);
layerId = "09CD4194-2486-478D-AB32-B0AA8D4EDA22";
paths = (
{
closed = 1;
nodes = (
"468 0 LINE SMOOTH",
"689 0 OFFCURVE",
"860 38 OFFCURVE",
"982 124 CURVE SMOOTH",
"1141 235 OFFCURVE",
"1219 425 OFFCURVE",
"1219 715 CURVE SMOOTH",
"1219 993 OFFCURVE",
"1148 1176 OFFCURVE",
"999 1288 CURVE SMOOTH",
"867 1388 OFFCURVE",
"668 1430 OFFCURVE",
"406 1430 CURVE SMOOTH",
"128 1430 LINE",
"128 0 LINE"
);
},
{
closed = 1;
nodes = (
"214 1425 LINE",
"190 1420 LINE",
"446 1420 LINE SMOOTH",
"911 1420 OFFCURVE",
"1124 1200 OFFCURVE",
"1124 719 CURVE SMOOTH",
"1124 233 OFFCURVE",
"908 10 OFFCURVE",
"438 10 CURVE SMOOTH",
"190 10 LINE",
"214 5 LINE"
);
}
);
width = 1269;
},
{
anchors = (
{
name = bottom;
position = "{810, 0}";
},
{
name = center;
position = "{810, 715}";
},
{
name = top;
position = "{810, 1430}";
}
);
background = {
anchors = (
{
name = bottom;
position = "{810, 0}";
},
{
name = center;
position = "{810, 715}";
},
{
name = top;
position = "{810, 1430}";
}
);
paths = (
{
closed = 1;
nodes = (
"618 0 LINE SMOOTH",
"1012 0 OFFCURVE",
"1094 14 OFFCURVE",
"1274 140 CURVE SMOOTH",
"1405 232 OFFCURVE",
"1566 428 OFFCURVE",
"1566 718 CURVE SMOOTH",
"1566 954 OFFCURVE",
"1443 1164 OFFCURVE",
"1311 1273 CURVE SMOOTH",
"1126 1425 OFFCURVE",
"1043 1437 OFFCURVE",
"554 1437 CURVE SMOOTH",
"135 1437 LINE",
"135 0 LINE"
);
},
{
closed = 1;
nodes = (
"530 1438 LINE",
"194 1375 LINE",
"197 1244 LINE",
"559 1244 LINE SMOOTH",
"997 1244 OFFCURVE",
"1149 1109 OFFCURVE",
"1149 725 CURVE SMOOTH",
"1149 338 OFFCURVE",
"990 193 OFFCURVE",
"560 193 CURVE SMOOTH",
"197 193 LINE",
"194 62 LINE",
"530 -1 LINE"
);
}
);
};
layerId = "66066CCB-AAC9-4485-8967-3F6B885ABFA4";
paths = (
{
closed = 1;
nodes = (
"618 0 LINE SMOOTH",
"1012 0 OFFCURVE",
"1094 14 OFFCURVE",
"1274 140 CURVE SMOOTH",
"1405 232 OFFCURVE",
"1566 428 OFFCURVE",
"1566 718 CURVE SMOOTH",
"1566 954 OFFCURVE",
"1443 1164 OFFCURVE",
"1311 1273 CURVE SMOOTH",
"1126 1425 OFFCURVE",
"1043 1437 OFFCURVE",
"554 1437 CURVE SMOOTH",
"135 1437 LINE",
"135 0 LINE"
);
},
{
closed = 1;
nodes = (
"530 1438 LINE",
"197 1244 LINE",
"559 1244 LINE SMOOTH",
"997 1244 OFFCURVE",
"1149 1109 OFFCURVE",
"1149 725 CURVE SMOOTH",
"1149 338 OFFCURVE",
"990 193 OFFCURVE",
"560 193 CURVE SMOOTH",
"197 193 LINE",
"530 -1 LINE"
);
}
);
width = 1620;
},
{
anchors = (
{
name = bottom;
position = "{705, 0}";
},
{
name = center;
position = "{705, 715}";
},
{
name = top;
position = "{705, 1430}";
}
);
background = {
anchors = (
{
name = bottom;
position = "{705, 0}";
},
{
name = center;
position = "{705, 715}";
},
{
name = top;
position = "{705, 1430}";
}
);
paths = (
{
closed = 1;
nodes = (
"510 0 LINE SMOOTH",
"732 0 OFFCURVE",
"874 30 OFFCURVE",
"1001 102 CURVE SMOOTH",
"1179 204 OFFCURVE",
"1270 412 OFFCURVE",
"1270 714 CURVE SMOOTH",
"1270 981 OFFCURVE",
"1198 1176 OFFCURVE",
"1061 1283 CURVE SMOOTH",
"923 1391 OFFCURVE",
"752 1430 OFFCURVE",
"447 1430 CURVE SMOOTH",
"168 1430 LINE",
"168 0 LINE"
);
},
{
closed = 1;
nodes = (
"261 1414 LINE",
"211 1353 LINE",
"528 1353 LINE SMOOTH",
"979 1353 OFFCURVE",
"1178 1157 OFFCURVE",
"1178 719 CURVE SMOOTH",
"1178 274 OFFCURVE",
"977 77 OFFCURVE",
"520 77 CURVE SMOOTH",
"211 77 LINE",
"261 16 LINE"
);
}
);
};
layerId = "B71E0DD6-B640-4F5E-B48D-BF5E04BC2E71";
paths = (
{
closed = 1;
nodes = (
"510 0 LINE SMOOTH",
"732 0 OFFCURVE",
"874 30 OFFCURVE",
"1001 102 CURVE SMOOTH",
"1179 204 OFFCURVE",
"1270 412 OFFCURVE",
"1270 714 CURVE SMOOTH",
"1270 981 OFFCURVE",
"1198 1176 OFFCURVE",
"1061 1283 CURVE SMOOTH",
"923 1391 OFFCURVE",
"752 1430 OFFCURVE",
"447 1430 CURVE SMOOTH",
"168 1430 LINE",
"168 0 LINE"
);
},
{
closed = 1;
nodes = (
"261 1414 LINE",
"211 1353 LINE",
"528 1353 LINE SMOOTH",
"979 1353 OFFCURVE",
"1178 1157 OFFCURVE",
"1178 719 CURVE SMOOTH",
"1178 274 OFFCURVE",
"977 77 OFFCURVE",
"520 77 CURVE SMOOTH",
"211 77 LINE",
"261 16 LINE"
);
}
);
width = 1410;
}
);
leftKerningGroup = H;
note = D;
rightKerningGroup = O;
unicode = 0044;
},
{
glyphname = Eth;
lastChange = "2019-12-24 21:16:26 +0000";
layers = (
{
background = {
paths = (
{
closed = 1;
nodes = (
"34 1334 LINE",
"34 1300 LINE",
"228 1300 LINE",
"228 710 LINE",
"50 710 LINE",
"50 676 LINE",
"228 676 LINE",
"228 34 LINE",
"34 34 LINE",
"34 0 LINE",
"556 0 LINE SMOOTH",
"812 0 OFFCURVE",
"920 18 OFFCURVE",
"1038 84 CURVE SMOOTH",
"1242 196 OFFCURVE",
"1362 410 OFFCURVE",
"1362 662 CURVE SMOOTH",
"1362 980 OFFCURVE",
"1176 1228 OFFCURVE",
"878 1306 CURVE SMOOTH",
"786 1332 OFFCURVE",
"752 1334 OFFCURVE",
"526 1334 CURVE SMOOTH"
);
},
{
closed = 1;
nodes = (
"426 676 LINE",
"718 676 LINE",
"718 710 LINE",
"426 710 LINE",
"426 1300 LINE",
"632 1300 OFFCURVE",
"690 1294 OFFCURVE",
"778 1270 CURVE SMOOTH",
"1018 1198 OFFCURVE",
"1144 996 OFFCURVE",
"1144 676 CURVE SMOOTH",
"1144 482 OFFCURVE",
"1108 328 OFFCURVE",
"1038 226 CURVE SMOOTH",
"968 124 OFFCURVE",
"830 56 OFFCURVE",
"660 40 CURVE SMOOTH",
"600 36 OFFCURVE",
"564 34 OFFCURVE",
"426 34 CURVE"
);
}
);
};
components = (
{
name = D;
},
{
name = strokeshortcomb;
transform = "{1, 0, 0, 1, -107, -37}";
}
);
layerId = "EA94BB3F-1054-4F03-AAB6-69C3B81B3CC3";
width = 1438;
},
{
components = (
{
name = D;
},
{
name = strokeshortcomb;
transform = "{1, 0, 0, 1, -56, -37}";
}
);
layerId = "1A84AFAC-8532-492C-A52A-D2ACD869B7F8";
width = 1269;
},
{
components = (
{
name = D;
},
{
name = strokeshortcomb;
transform = "{1, 0, 0, 1, -112, -37}";
}
);
layerId = "16E03120-9D89-4B3A-B1E3-633A6E865927";
width = 1564;
},
{
components = (
{
name = D;
},
{
name = strokeshortcomb;
transform = "{1, 0, 0, 1, -149, -37}";
}
);
layerId = "5EAC5215-9D4A-4BA0-8B26-A551FA1A966A";
width = 1465;
},
{
background = {
paths = (
{
closed = 1;
nodes = (
"34 1334 LINE",
"34 1300 LINE",
"228 1300 LINE",
"228 710 LINE",
"50 710 LINE",
"50 676 LINE",
"228 676 LINE",
"228 34 LINE",
"34 34 LINE",
"34 0 LINE",
"556 0 LINE SMOOTH",
"812 0 OFFCURVE",
"920 18 OFFCURVE",
"1038 84 CURVE SMOOTH",
"1242 196 OFFCURVE",
"1362 410 OFFCURVE",
"1362 662 CURVE SMOOTH",
"1362 980 OFFCURVE",
"1176 1228 OFFCURVE",
"878 1306 CURVE SMOOTH",
"786 1332 OFFCURVE",
"752 1334 OFFCURVE",
"526 1334 CURVE SMOOTH"
);
},
{
closed = 1;
nodes = (
"426 676 LINE",
"718 676 LINE",
"718 710 LINE",
"426 710 LINE",
"426 1300 LINE",
"632 1300 OFFCURVE",
"690 1294 OFFCURVE",
"778 1270 CURVE SMOOTH",
"1018 1198 OFFCURVE",
"1144 996 OFFCURVE",
"1144 676 CURVE SMOOTH",
"1144 482 OFFCURVE",
"1108 328 OFFCURVE",
"1038 226 CURVE SMOOTH",
"968 124 OFFCURVE",
"830 56 OFFCURVE",
"660 40 CURVE SMOOTH",
"600 36 OFFCURVE",
"564 34 OFFCURVE",
"426 34 CURVE"
);
}
);
};
components = (
{
name = D;
},
{
name = strokeshortcomb;
transform = "{1, 0, 0, 1, -165, -41}";
}
);
layerId = "B4536172-55B8-4884-A498-BDE07D5884DA";
width = 1367;
},
{
components = (
{
name = D;
},
{
name = strokeshortcomb;
transform = "{1, 0, 0, 1, -179, -45}";
}
);
layerId = "09CD4194-2486-478D-AB32-B0AA8D4EDA22";
width = 1269;
},
{
background = {
components = (
{
name = D;
},
{
name = strokeshortcomb;
transform = "{1, 0, 0, 1, 361, -37}";
}
);
};
components = (
{
name = D;
},
{
name = strokeshortcomb;
transform = "{1, 0, 0, 1, 362, -36}";
}
);
layerId = "66066CCB-AAC9-4485-8967-3F6B885ABFA4";
width = 1620;
},
{
background = {
components = (
{
name = D;
},
{
name = strokeshortcomb;
transform = "{1, 0, 0, 1, 439, -35}";
}
);
};
components = (
{
name = D;
},
{
name = strokeshortcomb;
transform = "{1, 0, 0, 1, 439, -35}";
}
);
layerId = "B71E0DD6-B640-4F5E-B48D-BF5E04BC2E71";
width = 1410;
}
);
leftKerningGroup = H;
note = Eth;
rightKerningGroup = O;
unicode = 00D0;
},
{
color = 1;
glyphname = E;
lastChange = "2019-12-24 19:38:52 +0000";
layers = (
{
anchors = (
{
name = bottom;
position = "{555, 0}";
},
{
name = ogonek;
position = "{983, 10}";
},
{
name = top;
position = "{555, 1430}";
},
{
name = topleft;
position = "{40, 1430}";
}
);
background = {
paths = (
{
closed = 1;
nodes = (
"502 36 LINE",
"502 712 LINE",
"584 712 LINE SMOOTH",
"694 712 OFFCURVE",
"766 706 OFFCURVE",
"806 694 CURVE",
"878 674 OFFCURVE",
"916 618 OFFCURVE",
"916 538 CURVE SMOOTH",
"916 464 LINE",
"952 464 LINE",
"952 1002 LINE",
"916 1002 LINE",
"916 934 LINE SMOOTH",
"916 870 OFFCURVE",
"876 802 OFFCURVE",
"822 776 CURVE",
"776 756 OFFCURVE",
"686 744 OFFCURVE",
"586 744 CURVE SMOOTH",
"502 744 LINE",
"502 1394 LINE",
"746 1394 LINE SMOOTH",
"944 1394 OFFCURVE",
"1060 1376 OFFCURVE",
"1130 1336 CURVE SMOOTH",
"1210 1290 OFFCURVE",
"1234 1246 OFFCURVE",
"1262 1080 CURVE",
"1294 1080 LINE",
"1262 1430 LINE",
"84 1430 LINE",
"84 1394 LINE",
"292 1394 LINE",
"292 36 LINE",
"84 36 LINE",
"84 0 LINE",
"1370 0 LINE",
"1370 420 LINE",
"1334 420 LINE",
"1334 338 LINE SMOOTH",
"1334 220 OFFCURVE",
"1280 142 OFFCURVE",
"1162 88 CURVE",
"1086 50 OFFCURVE",
"976 36 OFFCURVE",
"770 36 CURVE SMOOTH"
);
}
);
};
layerId = "EA94BB3F-1054-4F03-AAB6-69C3B81B3CC3";
paths = (
{
closed = 1;
nodes = (
"994 0 LINE",
"994 36 LINE",
"257 36 LINE",
"350 23 LINE",
"350 725 LINE",
"257 710 LINE",
"994 710 LINE",
"994 746 LINE",
"257 746 LINE",
"350 733 LINE",
"350 1417 LINE",
"257 1394 LINE",
"994 1394 LINE",
"994 1430 LINE",
"144 1430 LINE",
"144 0 LINE"
);
}
);
width = 1057;
},
{
anchors = (
{
name = bottom;
position = "{499, 0}";
},
{
name = ogonek;
position = "{951, 10}";
},
{
name = top;
position = "{499, 1430}";
},
{
name = topleft;
position = "{-46, 1430}";
}
);
layerId = "1A84AFAC-8532-492C-A52A-D2ACD869B7F8";
paths = (
{
closed = 1;
nodes = (
"888 0 LINE",
"888 26 LINE",
"179 26 LINE",
"204 12 LINE",
"204 738 LINE",
"172 715 LINE",
"888 715 LINE",
"888 741 LINE",
"179 741 LINE",
"204 727 LINE",
"204 1420 LINE",
"160 1404 LINE",
"888 1404 LINE",
"888 1430 LINE",
"144 1430 LINE",
"144 0 LINE"
);
}
);
width = 949;
},
{
anchors = (
{
name = bottom;
position = "{597, 0}";
},
{
name = ogonek;
position = "{1077, 10}";
},
{
name = top;
position = "{597, 1430}";
},
{
name = topleft;
position = "{16, 1430}";
}
);
layerId = "16E03120-9D89-4B3A-B1E3-633A6E865927";
paths = (
{
closed = 1;
nodes = (
"1124 0 LINE",
"1124 66 LINE",
"299 66 LINE",
"480 13 LINE",
"480 752 LINE",
"327 695 LINE",
"1124 695 LINE",
"1124 761 LINE",
"299 761 LINE",
"480 708 LINE",
"480 1431 LINE",
"187 1379 LINE",
"1124 1379 LINE",
"1124 1445 LINE",
"144 1445 LINE",
"144 0 LINE"
);
}
);
width = 1194;
},
{
anchors = (
{
name = bottom;
position = "{568, 0}";
},
{
name = ogonek;
position = "{1051, 10}";
},
{
name = top;
position = "{568, 1430}";
},
{
name = topleft;
position = "{-17, 1430}";
}
);
layerId = "5EAC5215-9D4A-4BA0-8B26-A551FA1A966A";
paths = (
{
closed = 1;
nodes = (
"1108 0 LINE",
"1108 26 LINE",
"223 26 LINE",
"404 13 LINE",
"404 752 LINE",
"251 715 LINE",
"1108 715 LINE",
"1108 741 LINE",
"223 741 LINE",
"404 708 LINE",
"404 1431 LINE",
"211 1419 LINE",
"1108 1419 LINE",
"1108 1445 LINE",
"144 1445 LINE",
"144 0 LINE"
);
}
);
width = 1168;
},
{
anchors = (
{
name = bottom;
position = "{535, 0}";
},
{
name = ogonek;
position = "{1003, 10}";
},
{
name = top;
position = "{535, 1430}";
},
{
name = topleft;
position = "{-30, 1430}";
}
);
background = {
paths = (
{
closed = 1;
nodes = (
"455 36 LINE",
"455 712 LINE",
"537 712 LINE SMOOTH",
"647 712 OFFCURVE",
"719 706 OFFCURVE",
"759 694 CURVE",
"831 674 OFFCURVE",
"869 618 OFFCURVE",
"869 538 CURVE SMOOTH",
"869 464 LINE",
"905 464 LINE",
"905 1002 LINE",
"869 1002 LINE",
"869 934 LINE SMOOTH",
"869 870 OFFCURVE",
"829 802 OFFCURVE",
"775 776 CURVE",
"729 756 OFFCURVE",
"639 744 OFFCURVE",
"539 744 CURVE SMOOTH",
"455 744 LINE",
"455 1394 LINE",
"699 1394 LINE SMOOTH",
"897 1394 OFFCURVE",
"1013 1376 OFFCURVE",
"1083 1336 CURVE SMOOTH",
"1163 1290 OFFCURVE",
"1187 1246 OFFCURVE",
"1215 1080 CURVE",
"1247 1080 LINE",
"1215 1430 LINE",
"37 1430 LINE",
"37 1394 LINE",
"245 1394 LINE",
"245 36 LINE",
"37 36 LINE",
"37 0 LINE",
"1323 0 LINE",
"1323 420 LINE",
"1287 420 LINE",
"1287 338 LINE SMOOTH",
"1287 220 OFFCURVE",
"1233 142 OFFCURVE",
"1115 88 CURVE",
"1039 50 OFFCURVE",
"929 36 OFFCURVE",
"723 36 CURVE SMOOTH"
);
}
);
};
layerId = "B4536172-55B8-4884-A498-BDE07D5884DA";
paths = (
{
closed = 1;
nodes = (
"1051 0 LINE",
"1051 18 LINE",
"215 18 LINE",
"317 11 LINE",
"317 744 LINE",
"222 719 LINE",
"1051 719 LINE",
"1051 737 LINE",
"215 737 LINE",
"317 720 LINE",
"317 1427 LINE",
"208 1420 LINE",
"1051 1420 LINE",
"1051 1438 LINE",
"144 1438 LINE",
"144 0 LINE"
);
}
);
width = 1110;
},
{
anchors = (
{
name = bottom;
position = "{502, 0}";
},
{
name = ogonek;
position = "{954, 10}";
},
{
name = top;
position = "{502, 1430}";
},
{
name = topleft;
position = "{-43, 1430}";
}
);
layerId = "09CD4194-2486-478D-AB32-B0AA8D4EDA22";
paths = (
{
closed = 1;
nodes = (
"994 0 LINE",
"994 10 LINE",
"207 10 LINE",
"230 8 LINE",
"230 735 LINE",
"193 723 LINE",
"994 723 LINE",
"994 733 LINE",
"207 733 LINE",
"230 731 LINE",
"230 1422 LINE",
"205 1420 LINE",
"994 1420 LINE",
"994 1430 LINE",
"144 1430 LINE",
"144 0 LINE"
);
}
);
width = 1051;
},
{
anchors = (
{
name = bottom;
position = "{618, 0}";
},
{
name = ogonek;
position = "{1112, 10}";
},
{
name = top;
position = "{618, 1430}";
},
{
name = topleft;
position = "{20, 1430}";
}
);
background = {
anchors = (
{
name = bottom;
position = "{623, 0}";
},
{
name = ogonek;
position = "{1113, 10}";
},
{
name = top;
position = "{623, 1430}";
},
{
name = topleft;
position = "{29, 1430}";
}
);
paths = (
{
closed = 1;
nodes = (
"1181 0 LINE",
"1181 193 LINE",
"309 193 LINE",
"305 63 LINE",
"519 7 LINE",
"519 814 LINE",
"-56 625 LINE",
"1181 625 LINE",
"1181 818 LINE",
"309 818 LINE",
"305 688 LINE",
"519 632 LINE",
"519 1426 LINE",
"184 1375 LINE",
"186 1244 LINE",
"1181 1244 LINE",
"1181 1437 LINE",
"132 1437 LINE",
"132 0 LINE"
);
}
);
};
layerId = "66066CCB-AAC9-4485-8967-3F6B885ABFA4";
paths = (
{
closed = 1;
nodes = (
"1181 0 LINE",
"1181 193 LINE",
"309 193 LINE",
"519 7 LINE",
"519 824 LINE",
"234 635 LINE",
"1181 635 LINE",
"1181 828 LINE",
"309 828 LINE",
"519 642 LINE",
"519 1426 LINE",
"186 1244 LINE",
"1181 1244 LINE",
"1181 1437 LINE",
"132 1437 LINE",
"132 0 LINE"
);
}
);
width = 1236;
},
{
anchors = (
{
name = bottom;
position = "{559, 0}";
},
{
name = ogonek;
position = "{1006, 10}";
},
{
name = top;
position = "{559, 1430}";
},
{
name = topleft;
position = "{20, 1430}";
}
);
background = {
anchors = (
{
name = bottom;
position = "{559, 0}";
},
{
name = ogonek;
position = "{1006, 10}";
},
{
name = top;
position = "{559, 1430}";
},
{
name = topleft;
position = "{20, 1430}";
}
);
paths = (
{
closed = 1;
nodes = (
"980 0 LINE",
"980 77 LINE",
"185 77 LINE",
"251 16 LINE",
"251 757 LINE",
"214 689 LINE",
"980 689 LINE",
"980 766 LINE",
"185 766 LINE",
"251 705 LINE",
"251 1419 LINE",
"204 1353 LINE",
"980 1353 LINE",
"980 1430 LINE",
"168 1430 LINE",
"168 0 LINE"
);
}
);
};
layerId = "B71E0DD6-B640-4F5E-B48D-BF5E04BC2E71";
paths = (
{
closed = 1;
nodes = (
"980 0 LINE",
"980 77 LINE",
"185 77 LINE",
"251 16 LINE",
"251 757 LINE",
"214 689 LINE",
"980 689 LINE",
"980 766 LINE",
"185 766 LINE",
"251 705 LINE",
"251 1419 LINE",
"204 1353 LINE",
"980 1353 LINE",
"980 1430 LINE",
"168 1430 LINE",
"168 0 LINE"
);
}
);
width = 1118;
}
);
leftKerningGroup = H;
leftMetricsKey = H;
note = E;
rightKerningGroup = E;
unicode = 0045;
},
{
glyphname = Eacute;
lastChange = "2019-12-24 21:21:01 +0000";
layers = (
{
background = {
paths = (
{
closed = 1;
nodes = (
"424 34 LINE",
"424 664 LINE",
"500 664 LINE SMOOTH",
"602 664 OFFCURVE",
"670 658 OFFCURVE",
"708 648 CURVE",
"774 628 OFFCURVE",
"810 576 OFFCURVE",
"810 502 CURVE SMOOTH",
"810 432 LINE",
"844 432 LINE",
"844 934 LINE",
"810 934 LINE",
"810 872 LINE SMOOTH",
"810 812 OFFCURVE",
"772 748 OFFCURVE",
"722 724 CURVE",
"680 706 OFFCURVE",
"596 694 OFFCURVE",
"502 694 CURVE SMOOTH",
"424 694 LINE",
"424 1300 LINE",
"652 1300 LINE SMOOTH",
"836 1300 OFFCURVE",
"944 1284 OFFCURVE",
"1010 1246 CURVE SMOOTH",
"1084 1204 OFFCURVE",
"1106 1162 OFFCURVE",
"1132 1008 CURVE",
"1162 1008 LINE",
"1132 1334 LINE",
"34 1334 LINE",
"34 1300 LINE",
"228 1300 LINE",
"228 34 LINE",
"34 34 LINE",
"34 0 LINE",
"1234 0 LINE",
"1234 392 LINE",
"1200 392 LINE",
"1200 316 LINE SMOOTH",
"1200 206 OFFCURVE",
"1150 132 OFFCURVE",
"1040 82 CURVE",
"968 46 OFFCURVE",
"866 34 OFFCURVE",
"674 34 CURVE SMOOTH"
);
},
{
closed = 1;
nodes = (
"406 1446 LINE",
"636 1596 LINE SMOOTH",
"692 1632 OFFCURVE",
"718 1664 OFFCURVE",
"718 1694 CURVE SMOOTH",
"718 1732 OFFCURVE",
"686 1758 OFFCURVE",
"642 1758 CURVE SMOOTH",
"594 1758 OFFCURVE",
"572 1740 OFFCURVE",
"516 1658 CURVE SMOOTH",
"368 1446 LINE"
);
}
);
};
components = (
{
name = E;
},
{
name = acutecomb.case;
transform = "{1, 0, 0, 1, 393, 0}";
}
);
layerId = "EA94BB3F-1054-4F03-AAB6-69C3B81B3CC3";
width = 1057;
},
{
components = (
{
name = E;
},
{
name = acutecomb.case;
transform = "{1, 0, 0, 1, 335, 500}";
}
);
layerId = "1A84AFAC-8532-492C-A52A-D2ACD869B7F8";
width = 949;
},
{
components = (
{
name = E;
},
{
name = acutecomb.case;
transform = "{1, 0, 0, 1, 322, 0}";
}
);
layerId = "16E03120-9D89-4B3A-B1E3-633A6E865927";
width = 1194;
},
{
components = (
{
name = E;
},
{
name = acutecomb.case;
transform = "{1, 0, 0, 1, 334, 0}";
}
);
layerId = "5EAC5215-9D4A-4BA0-8B26-A551FA1A966A";
width = 1168;
},
{
background = {
paths = (
{
closed = 1;
nodes = (
"424 34 LINE",
"424 664 LINE",
"500 664 LINE SMOOTH",
"602 664 OFFCURVE",
"670 658 OFFCURVE",
"708 648 CURVE",
"774 628 OFFCURVE",
"810 576 OFFCURVE",
"810 502 CURVE SMOOTH",
"810 432 LINE",
"844 432 LINE",
"844 934 LINE",
"810 934 LINE",
"810 872 LINE SMOOTH",
"810 812 OFFCURVE",
"772 748 OFFCURVE",
"722 724 CURVE",
"680 706 OFFCURVE",
"596 694 OFFCURVE",
"502 694 CURVE SMOOTH",
"424 694 LINE",
"424 1300 LINE",
"652 1300 LINE SMOOTH",
"836 1300 OFFCURVE",
"944 1284 OFFCURVE",
"1010 1246 CURVE SMOOTH",
"1084 1204 OFFCURVE",
"1106 1162 OFFCURVE",
"1132 1008 CURVE",
"1162 1008 LINE",
"1132 1334 LINE",
"34 1334 LINE",
"34 1300 LINE",
"228 1300 LINE",
"228 34 LINE",
"34 34 LINE",
"34 0 LINE",
"1234 0 LINE",
"1234 392 LINE",
"1200 392 LINE",
"1200 316 LINE SMOOTH",
"1200 206 OFFCURVE",
"1150 132 OFFCURVE",
"1040 82 CURVE",
"968 46 OFFCURVE",
"866 34 OFFCURVE",
"674 34 CURVE SMOOTH"
);
},
{
closed = 1;
nodes = (
"406 1446 LINE",
"636 1596 LINE SMOOTH",
"692 1632 OFFCURVE",
"718 1664 OFFCURVE",
"718 1694 CURVE SMOOTH",
"718 1732 OFFCURVE",
"686 1758 OFFCURVE",
"642 1758 CURVE SMOOTH",
"594 1758 OFFCURVE",
"572 1740 OFFCURVE",
"516 1658 CURVE SMOOTH",
"368 1446 LINE"
);
}
);
};
components = (
{
name = E;
},
{
name = acutecomb.case;
transform = "{1, 0, 0, 1, 324, 0}";
}
);
layerId = "B4536172-55B8-4884-A498-BDE07D5884DA";
width = 1110;
},
{
components = (
{
name = E;
},
{
name = acutecomb.case;
transform = "{1, 0, 0, 1, 333, 0}";
}
);
layerId = "09CD4194-2486-478D-AB32-B0AA8D4EDA22";
width = 1051;
},
{
background = {
components = (
{
name = E;
},
{
name = acutecomb;
transform = "{1, 0, 0, 1, 588, 453}";
}
);
};
components = (
{
name = E;
},
{
name = acutecomb.case;
transform = "{1, 0, 0, 1, 335, 0}";
}
);
layerId = "66066CCB-AAC9-4485-8967-3F6B885ABFA4";
width = 1236;
},
{
background = {
components = (
{
name = E;
},
{
name = acutecomb;
transform = "{1, 0, 0, 1, 324, 441}";
}
);
};
components = (
{
name = E;
},
{
name = acutecomb.case;
transform = "{1, 0, 0, 1, 324, 0}";
}
);
layerId = "B71E0DD6-B640-4F5E-B48D-BF5E04BC2E71";
width = 1118;
}
);
leftKerningGroup = H;
note = Eacute;
rightKerningGroup = E;
unicode = 00C9;
},
{
color = 1;
glyphname = F;
lastChange = "2019-12-24 19:38:52 +0000";
layers = (
{
anchors = (
{
name = bottom;
position = "{526, 0}";
},
{
name = top;
position = "{526, 1430}";
}
);
background = {
paths = (
{
closed = 1;
nodes = (
"1248 1054 LINE",
"1210 1430 LINE",
"44 1430 LINE",
"44 1394 LINE",
"252 1394 LINE",
"252 36 LINE",
"44 36 LINE",
"44 0 LINE",
"684 0 LINE",
"684 36 LINE",
"460 36 LINE",
"460 712 LINE",
"548 712 LINE SMOOTH",
"752 712 OFFCURVE",
"838 692 OFFCURVE",
"876 632 CURVE SMOOTH",
"894 606 OFFCURVE",
"908 536 OFFCURVE",
"908 472 CURVE SMOOTH",
"908 456 LINE",
"944 456 LINE",
"944 1016 LINE",
"908 1016 LINE",
"908 1004 LINE SMOOTH",
"908 948 OFFCURVE",
"896 876 OFFCURVE",
"880 846 CURVE SMOOTH",
"842 774 OFFCURVE",
"756 748 OFFCURVE",
"550 748 CURVE SMOOTH",
"460 748 LINE",
"460 1394 LINE",
"706 1394 LINE SMOOTH",
"898 1394 OFFCURVE",
"898 1394 OFFCURVE",
"944 1384 CURVE SMOOTH",
"1064 1366 OFFCURVE",
"1128 1328 OFFCURVE",
"1164 1250 CURVE SMOOTH",
"1194 1188 OFFCURVE",
"1208 1132 OFFCURVE",
"1208 1090 CURVE SMOOTH",
"1208 1054 LINE"
);
}
);
};
layerId = "EA94BB3F-1054-4F03-AAB6-69C3B81B3CC3";
paths = (
{
closed = 1;
nodes = (
"350 0 LINE",
"350 735 LINE",
"257 712 LINE",
"934 712 LINE",
"934 746 LINE",
"257 746 LINE",
"350 723 LINE",
"350 1417 LINE",
"257 1394 LINE",
"934 1394 LINE",
"934 1430 LINE",
"144 1430 LINE",
"144 0 LINE"
);
}
);
width = 983;
},
{
anchors = (
{
name = bottom;
position = "{506, 0}";
},
{
name = top;
position = "{506, 1430}";
}
);
background = {
paths = (
{
closed = 1;
nodes = (
"204 0 LINE",
"204 733 LINE",
"180 717 LINE",
"788 717 LINE",
"788 741 LINE",
"180 741 LINE",
"204 725 LINE",
"204 1420 LINE",
"180 1404 LINE",
"788 1404 LINE",
"788 1430 LINE",
"144 1430 LINE",
"144 0 LINE"
);
}
);
};
layerId = "1A84AFAC-8532-492C-A52A-D2ACD869B7F8";
paths = (
{
closed = 1;
nodes = (
"204 0 LINE",
"204 738 LINE",
"172 715 LINE",
"888 715 LINE",
"888 741 LINE",
"179 741 LINE",
"204 727 LINE",
"204 1420 LINE",
"160 1404 LINE",
"888 1404 LINE",
"888 1430 LINE",
"144 1430 LINE",
"144 0 LINE"
);
}
);
width = 936;
},
{
anchors = (
{
name = bottom;
position = "{567, 0}";
},
{
name = top;
position = "{567, 1430}";
}
);
layerId = "16E03120-9D89-4B3A-B1E3-633A6E865927";
paths = (
{
closed = 1;
nodes = (
"480 0 LINE",
"480 749 LINE",
"187 697 LINE",
"1064 697 LINE",
"1064 761 LINE",
"187 761 LINE",
"480 702 LINE",
"480 1421 LINE",
"187 1379 LINE",
"1064 1379 LINE",
"1064 1445 LINE",
"144 1445 LINE",
"144 0 LINE"
);
}
);
width = 1118;
},
{
anchors = (
{
name = bottom;
position = "{534, 0}";
},
{
name = top;
position = "{534, 1430}";
}
);
background = {
paths = (
{
closed = 1;
nodes = (
"447 -15 LINE",
"447 749 LINE",
"154 697 LINE",
"1031 697 LINE",
"1031 761 LINE",
"154 761 LINE",
"447 702 LINE",
"447 1421 LINE",
"154 1379 LINE",
"1031 1379 LINE",
"1031 1445 LINE",
"111 1445 LINE",
"111 -15 LINE"
);
}
);
};
layerId = "5EAC5215-9D4A-4BA0-8B26-A551FA1A966A";
paths = (
{
closed = 1;
nodes = (
"404 0 LINE",
"404 702 LINE",
"251 665 LINE",
"1108 665 LINE",
"1108 691 LINE",
"223 691 LINE",
"404 658 LINE",
"404 1431 LINE",
"181 1419 LINE",
"1108 1419 LINE",
"1108 1445 LINE",
"144 1445 LINE",
"144 0 LINE"
);
}
);
width = 1156;
},
{
anchors = (
{
name = bottom;
position = "{520, 0}";
},
{
name = top;
position = "{520, 1430}";
}
);
background = {
paths = (
{
closed = 1;
nodes = (
"1201 1054 LINE",
"1163 1430 LINE",
"-3 1430 LINE",
"-3 1394 LINE",
"205 1394 LINE",
"205 36 LINE",
"-3 36 LINE",
"-3 0 LINE",
"637 0 LINE",
"637 36 LINE",
"413 36 LINE",
"413 712 LINE",
"501 712 LINE SMOOTH",
"705 712 OFFCURVE",
"791 692 OFFCURVE",
"829 632 CURVE SMOOTH",
"847 606 OFFCURVE",
"861 536 OFFCURVE",
"861 472 CURVE SMOOTH",
"861 456 LINE",
"897 456 LINE",
"897 1016 LINE",
"861 1016 LINE",
"861 1004 LINE SMOOTH",
"861 948 OFFCURVE",
"849 876 OFFCURVE",
"833 846 CURVE SMOOTH",
"795 774 OFFCURVE",
"709 748 OFFCURVE",
"503 748 CURVE SMOOTH",
"413 748 LINE",
"413 1394 LINE",
"659 1394 LINE SMOOTH",
"851 1394 OFFCURVE",
"851 1394 OFFCURVE",
"897 1384 CURVE SMOOTH",
"1017 1366 OFFCURVE",
"1081 1328 OFFCURVE",
"1117 1250 CURVE SMOOTH",
"1147 1188 OFFCURVE",
"1161 1132 OFFCURVE",
"1161 1090 CURVE SMOOTH",
"1161 1054 LINE"
);
}
);
};
layerId = "B4536172-55B8-4884-A498-BDE07D5884DA";
paths = (
{
closed = 1;
nodes = (
"317 0 LINE",
"317 694 LINE",
"222 669 LINE",
"1051 669 LINE",
"1051 687 LINE",
"215 687 LINE",
"317 670 LINE",
"317 1427 LINE",
"193 1420 LINE",
"1051 1420 LINE",
"1051 1438 LINE",
"144 1438 LINE",
"144 0 LINE"
);
}
);
width = 1098;
},
{
anchors = (
{
name = bottom;
position = "{506, 0}";
},
{
name = top;
position = "{506, 1430}";
}
);
background = {
paths = (
{
closed = 1;
nodes = (
"204 0 LINE",
"204 733 LINE",
"180 717 LINE",
"788 717 LINE",
"788 741 LINE",
"180 741 LINE",
"204 725 LINE",
"204 1420 LINE",
"180 1404 LINE",
"788 1404 LINE",
"788 1430 LINE",
"144 1430 LINE",
"144 0 LINE"
);
}
);
};
layerId = "09CD4194-2486-478D-AB32-B0AA8D4EDA22";
paths = (
{
closed = 1;
nodes = (
"230 0 LINE",
"230 685 LINE",
"193 673 LINE",
"994 673 LINE",
"994 683 LINE",
"207 683 LINE",
"230 681 LINE",
"230 1422 LINE",
"205 1420 LINE",
"994 1420 LINE",
"994 1430 LINE",
"144 1430 LINE",
"144 0 LINE"
);
}
);
width = 1039;
},
{
anchors = (
{
name = bottom;
position = "{579, 0}";
},
{
name = top;
position = "{579, 1430}";
}
);
background = {
anchors = (
{
name = bottom;
position = "{583, 0}";
},
{
name = top;
position = "{583, 1430}";
}
);
paths = (
{
closed = 1;
nodes = (
"519 0 LINE",
"519 809 LINE",
"184 758 LINE",
"186 627 LINE",
"1119 627 LINE",
"1119 818 LINE",
"186 818 LINE",
"183 687 LINE",
"519 627 LINE",
"519 1412 LINE",
"184 1376 LINE",
"186 1244 LINE",
"1119 1244 LINE",
"1119 1437 LINE",
"132 1437 LINE",
"132 0 LINE"
);
}
);
};
layerId = "66066CCB-AAC9-4485-8967-3F6B885ABFA4";
paths = (
{
closed = 1;
nodes = (
"519 0 LINE",
"519 799 LINE",
"186 617 LINE",
"1119 617 LINE",
"1119 808 LINE",
"186 808 LINE",
"519 617 LINE",
"519 1412 LINE",
"186 1244 LINE",
"1119 1244 LINE",
"1119 1437 LINE",
"132 1437 LINE",
"132 0 LINE"
);
}
);
width = 1157;
},
{
anchors = (
{
name = bottom;
position = "{548, 0}";
},
{
name = top;
position = "{548, 1430}";
}
);
background = {
anchors = (
{
name = bottom;
position = "{548, 0}";
},
{
name = top;
position = "{548, 1430}";
}
);
paths = (
{
closed = 1;
nodes = (
"251 0 LINE",
"251 759 LINE",
"218 689 LINE",
"961 689 LINE",
"961 766 LINE",
"194 766 LINE",
"251 703 LINE",
"251 1419 LINE",
"204 1353 LINE",
"961 1353 LINE",
"961 1430 LINE",
"168 1430 LINE",
"168 0 LINE"
);
}
);
};
layerId = "B71E0DD6-B640-4F5E-B48D-BF5E04BC2E71";
paths = (
{
closed = 1;
nodes = (
"251 0 LINE",
"251 759 LINE",
"218 689 LINE",
"961 689 LINE",
"961 766 LINE",
"194 766 LINE",
"251 703 LINE",
"251 1419 LINE",
"204 1353 LINE",
"961 1353 LINE",
"961 1430 LINE",
"168 1430 LINE",
"168 0 LINE"
);
}
);
width = 1096;
}
);
leftKerningGroup = H;
leftMetricsKey = H;
note = F;
rightKerningGroup = F;
unicode = 0046;
},
{
color = 1;
glyphname = G;
lastChange = "2019-12-24 19:38:52 +0000";
layers = (
{
anchors = (
{
name = bottom;
position = "{751, 0}";
},
{
name = top;
position = "{759, 1430}";
}
);
background = {
paths = (
{
closed = 1;
nodes = (
"935 -26 OFFCURVE",
"1111 39 OFFCURVE",
"1245 182 CURVE SMOOTH",
"1355 299 OFFCURVE",
"1425 457 OFFCURVE",
"1443 630 CURVE",
"1231 630 LINE",
"1209 253 OFFCURVE",
"1026 4 OFFCURVE",
"758 4 CURVE SMOOTH",
"473 4 OFFCURVE",
"283 287 OFFCURVE",
"283 714 CURVE SMOOTH",
"283 1141 OFFCURVE",
"473 1430 OFFCURVE",
"759 1430 CURVE SMOOTH",
"939 1430 OFFCURVE",
"1083 1314 OFFCURVE",
"1161 1118 CURVE",
"1339 1118 LINE",
"1312 1165 OFFCURVE",
"1286 1202 OFFCURVE",
"1245 1244 CURVE SMOOTH",
"1114 1378 OFFCURVE",
"931 1460 OFFCURVE",
"758 1460 CURVE SMOOTH",
"586 1460 OFFCURVE",
"407 1379 OFFCURVE",
"275 1243 CURVE SMOOTH",
"150 1114 OFFCURVE",
"71 937 OFFCURVE",
"71 718 CURVE SMOOTH",
"71 513 OFFCURVE",
"140 320 OFFCURVE",
"272 181 CURVE SMOOTH",
"403 44 OFFCURVE",
"580 -26 OFFCURVE",
"761 -26 CURVE SMOOTH"
);
},
{
closed = 1;
nodes = (
"1277 594 LINE",
"1277 630 LINE",
"813 630 LINE",
"813 594 LINE"
);
}
);
};
layerId = "EA94BB3F-1054-4F03-AAB6-69C3B81B3CC3";
paths = (
{
closed = 1;
nodes = (
"1129 -26 OFFCURVE",
"1404 257 OFFCURVE",
"1443 630 CURVE",
"1231 630 LINE",
"1209 253 OFFCURVE",
"1026 4 OFFCURVE",
"758 4 CURVE SMOOTH",
"473 4 OFFCURVE",
"283 287 OFFCURVE",
"283 714 CURVE SMOOTH",
"283 1141 OFFCURVE",
"473 1430 OFFCURVE",
"759 1430 CURVE SMOOTH",
"939 1430 OFFCURVE",
"1083 1314 OFFCURVE",
"1161 1118 CURVE",
"1339 1118 LINE",
"1222 1321 OFFCURVE",
"986 1460 OFFCURVE",
"758 1460 CURVE SMOOTH",
"376 1460 OFFCURVE",
"71 1118 OFFCURVE",
"71 718 CURVE SMOOTH",
"71 302 OFFCURVE",
"356 -26 OFFCURVE",
"761 -26 CURVE SMOOTH"
);
},
{
closed = 1;
nodes = (
"1277 594 LINE",
"1277 630 LINE",
"813 630 LINE",
"813 594 LINE"
);
}
);
width = 1490;
},
{
anchors = (
{
name = bottom;
position = "{680, 0}";
},
{
name = top;
position = "{680, 1430}";
}
);
background = {
paths = (
{
closed = 1;
nodes = (
"1023 -26 OFFCURVE",
"1253 238 OFFCURVE",
"1295 624 CURVE",
"1323 624 LINE",
"1298 230 OFFCURVE",
"1077 -6 OFFCURVE",
"730 -6 CURVE SMOOTH",
"357 -6 OFFCURVE",
"199 264 OFFCURVE",
"199 714 CURVE SMOOTH",
"199 1167 OFFCURVE",
"358 1440 OFFCURVE",
"731 1440 CURVE SMOOTH",
"964 1440 OFFCURVE",
"1166 1316 OFFCURVE",
"1243 1126 CURVE",
"1203 1126 LINE",
"1074 1348 OFFCURVE",
"915 1460 OFFCURVE",
"730 1460 CURVE SMOOTH",
"425 1460 OFFCURVE",
"133 1120 OFFCURVE",
"133 718 CURVE SMOOTH",
"133 295 OFFCURVE",
"409 -26 OFFCURVE",
"733 -26 CURVE SMOOTH"
);
},
{
closed = 1;
nodes = (
"1129 598 LINE",
"1129 624 LINE",
"905 624 LINE",
"905 598 LINE"
);
}
);
};
layerId = "1A84AFAC-8532-492C-A52A-D2ACD869B7F8";
paths = (
{
closed = 1;
nodes = (
"1090 -6 OFFCURVE",
"1306 256 OFFCURVE",
"1338 624 CURVE",
"1281 624 LINE",
"1242 276 OFFCURVE",
"1025 35 OFFCURVE",
"715 24 CURVE",
"378 36 OFFCURVE",
"151 320 OFFCURVE",
"151 718 CURVE SMOOTH",
"151 1122 OFFCURVE",
"385 1402 OFFCURVE",
"715 1410 CURVE",
"916 1405 OFFCURVE",
"1081 1300 OFFCURVE",
"1180 1127 CURVE",
"1259 1127 LINE",
"1154 1319 OFFCURVE",
"967 1440 OFFCURVE",
"715 1440 CURVE SMOOTH",
"312 1440 OFFCURVE",
"75 1131 OFFCURVE",
"75 715 CURVE SMOOTH",
"75 301 OFFCURVE",
"309 -6 OFFCURVE",
"715 -6 CURVE SMOOTH"
);
},
{
closed = 1;
nodes = (
"1299 598 LINE",
"1299 624 LINE",
"855 624 LINE",
"855 598 LINE"
);
}
);
width = 1389;
},
{
anchors = (
{
name = bottom;
position = "{815, 0}";
},
{
name = top;
position = "{823, 1430}";
}
);
layerId = "16E03120-9D89-4B3A-B1E3-633A6E865927";
paths = (
{
closed = 1;
nodes = (
"1225 -41 OFFCURVE",
"1540 248 OFFCURVE",
"1573 645 CURVE",
"1231 645 LINE",
"1213 271 OFFCURVE",
"1046 19 OFFCURVE",
"822 19 CURVE SMOOTH",
"583 19 OFFCURVE",
"412 306 OFFCURVE",
"412 714 CURVE SMOOTH",
"412 1124 OFFCURVE",
"585 1415 OFFCURVE",
"823 1415 CURVE SMOOTH",
"971 1415 OFFCURVE",
"1088 1310 OFFCURVE",
"1168 1103 CURVE",
"1472 1103 LINE",
"1364 1314 OFFCURVE",
"1082 1475 OFFCURVE",
"822 1475 CURVE SMOOTH",
"408 1475 OFFCURVE",
"70 1134 OFFCURVE",
"70 718 CURVE SMOOTH",
"70 282 OFFCURVE",
"392 -41 OFFCURVE",
"825 -41 CURVE SMOOTH"
);
},
{
closed = 1;
nodes = (
"1406 579 LINE",
"1406 645 LINE",
"812 645 LINE",
"812 579 LINE"
);
}
);
width = 1621;
},
{
anchors = (
{
name = bottom;
position = "{809, 0}";
},
{
name = top;
position = "{809, 1430}";
}
);
background = {
paths = (
{
closed = 1;
nodes = (
"1191 -41 OFFCURVE",
"1506 248 OFFCURVE",
"1539 645 CURVE",
"1197 645 LINE",
"1179 271 OFFCURVE",
"1012 19 OFFCURVE",
"788 19 CURVE SMOOTH",
"549 19 OFFCURVE",
"378 306 OFFCURVE",
"378 714 CURVE SMOOTH",
"378 1124 OFFCURVE",
"551 1415 OFFCURVE",
"789 1415 CURVE SMOOTH",
"937 1415 OFFCURVE",
"1054 1310 OFFCURVE",
"1134 1103 CURVE",
"1438 1103 LINE",
"1330 1314 OFFCURVE",
"1048 1475 OFFCURVE",
"788 1475 CURVE SMOOTH",
"374 1475 OFFCURVE",
"36 1134 OFFCURVE",
"36 718 CURVE SMOOTH",
"36 282 OFFCURVE",
"358 -41 OFFCURVE",
"791 -41 CURVE SMOOTH"
);
},
{
closed = 1;
nodes = (
"1372 579 LINE",
"1372 645 LINE",
"778 645 LINE",
"778 579 LINE"
);
}
);
};
layerId = "5EAC5215-9D4A-4BA0-8B26-A551FA1A966A";
paths = (
{
closed = 1;
nodes = (
"1238 -27 OFFCURVE",
"1543 275 OFFCURVE",
"1571 665 CURVE",
"1272 665 LINE",
"1259 287 OFFCURVE",
"1060 -3 OFFCURVE",
"834 -11 CURVE SMOOTH",
"597 -19 OFFCURVE",
"376 286 OFFCURVE",
"369 696 CURVE SMOOTH",
"362 1107 OFFCURVE",
"575 1436 OFFCURVE",
"819 1444 CURVE SMOOTH",
"965 1449 OFFCURVE",
"1186 1341 OFFCURVE",
"1242 1101 CURVE",
"1435 1211 LINE",
"1328 1409 OFFCURVE",
"1036 1482 OFFCURVE",
"819 1474 CURVE SMOOTH",
"383 1459 OFFCURVE",
"61 1112 OFFCURVE",
"69 685 CURVE SMOOTH",
"77 260 OFFCURVE",
"406 -56 OFFCURVE",
"835 -41 CURVE SMOOTH"
);
},
{
closed = 1;
nodes = (
"1372 645 LINE",
"1372 665 LINE",
"778 665 LINE",
"778 645 LINE"
);
}
);
width = 1618;
},
{
anchors = (
{
name = bottom;
position = "{780, 0}";
},
{
name = top;
position = "{780, 1430}";
}
);
background = {
paths = (
{
closed = 1;
nodes = (
"934 -26 OFFCURVE",
"1110 39 OFFCURVE",
"1244 182 CURVE SMOOTH",
"1354 299 OFFCURVE",
"1424 457 OFFCURVE",
"1442 630 CURVE",
"1230 630 LINE",
"1208 253 OFFCURVE",
"1025 4 OFFCURVE",
"757 4 CURVE SMOOTH",
"472 4 OFFCURVE",
"282 287 OFFCURVE",
"282 714 CURVE SMOOTH",
"282 1141 OFFCURVE",
"472 1430 OFFCURVE",
"758 1430 CURVE SMOOTH",
"938 1430 OFFCURVE",
"1082 1314 OFFCURVE",
"1160 1118 CURVE",
"1338 1118 LINE",
"1311 1165 OFFCURVE",
"1285 1202 OFFCURVE",
"1244 1244 CURVE SMOOTH",
"1113 1378 OFFCURVE",
"930 1460 OFFCURVE",
"757 1460 CURVE SMOOTH",
"585 1460 OFFCURVE",
"406 1379 OFFCURVE",
"274 1243 CURVE SMOOTH",
"149 1114 OFFCURVE",
"70 937 OFFCURVE",
"70 718 CURVE SMOOTH",
"70 513 OFFCURVE",
"139 320 OFFCURVE",
"271 181 CURVE SMOOTH",
"402 44 OFFCURVE",
"579 -26 OFFCURVE",
"760 -26 CURVE SMOOTH"
);
},
{
closed = 1;
nodes = (
"1276 594 LINE",
"1276 630 LINE",
"812 630 LINE",
"812 594 LINE"
);
}
);
};
layerId = "B4536172-55B8-4884-A498-BDE07D5884DA";
paths = (
{
closed = 1;
nodes = (
"1194 -27 OFFCURVE",
"1488 267 OFFCURVE",
"1522 645 CURVE",
"1326 645 LINE",
"1300 276 OFFCURVE",
"1071 -8 OFFCURVE",
"804 -12 CURVE SMOOTH",
"519 -16 OFFCURVE",
"270 300 OFFCURVE",
"266 707 CURVE SMOOTH",
"263 1110 OFFCURVE",
"508 1440 OFFCURVE",
"797 1445 CURVE SMOOTH",
"972 1448 OFFCURVE",
"1177 1331 OFFCURVE",
"1261 1114 CURVE",
"1400 1169 LINE",
"1286 1368 OFFCURVE",
"1034 1471 OFFCURVE",
"797 1467 CURVE SMOOTH",
"375 1460 OFFCURVE",
"66 1119 OFFCURVE",
"70 700 CURVE SMOOTH",
"74 287 OFFCURVE",
"385 -41 OFFCURVE",
"805 -34 CURVE SMOOTH"
);
},
{
closed = 1;
nodes = (
"1396 630 LINE",
"1396 645 LINE",
"812 645 LINE",
"812 630 LINE"
);
}
);
width = 1569;
},
{
anchors = (
{
name = bottom;
position = "{751, 0}";
},
{
name = top;
position = "{751, 1430}";
}
);
background = {
components = (
{
name = O;
transform = "{1, 0, 0, 1, 18, 0}";
}
);
};
layerId = "09CD4194-2486-478D-AB32-B0AA8D4EDA22";
paths = (
{
closed = 1;
nodes = (
"1153 -26 OFFCURVE",
"1432 259 OFFCURVE",
"1472 624 CURVE",
"1380 624 LINE",
"1341 265 OFFCURVE",
"1081 -12 OFFCURVE",
"774 -12 CURVE SMOOTH",
"441 -12 OFFCURVE",
"163 314 OFFCURVE",
"163 718 CURVE SMOOTH",
"163 1127 OFFCURVE",
"449 1446 OFFCURVE",
"774 1446 CURVE SMOOTH",
"978 1446 OFFCURVE",
"1167 1320 OFFCURVE",
"1279 1126 CURVE",
"1365 1126 LINE",
"1244 1327 OFFCURVE",
"1032 1460 OFFCURVE",
"774 1460 CURVE SMOOTH",
"366 1460 OFFCURVE",
"71 1125 OFFCURVE",
"71 715 CURVE SMOOTH",
"71 307 OFFCURVE",
"364 -26 OFFCURVE",
"774 -26 CURVE SMOOTH"
);
},
{
closed = 1;
nodes = (
"1420 614 LINE",
"1420 624 LINE",
"846 624 LINE",
"846 614 LINE"
);
}
);
width = 1519;
},
{
anchors = (
{
name = bottom;
position = "{839, 0}";
},
{
name = top;
position = "{839, 1430}";
}
);
background = {
anchors = (
{
name = bottom;
position = "{839, 0}";
},
{
name = top;
position = "{839, 1430}";
}
);
paths = (
{
closed = 1;
nodes = (
"1303 -45 OFFCURVE",
"1647 275 OFFCURVE",
"1648 713 CURVE",
"1253 713 LINE",
"1256 365 OFFCURVE",
"1095 142 OFFCURVE",
"852 142 CURVE SMOOTH",
"609 142 OFFCURVE",
"449 366 OFFCURVE",
"449 708 CURVE SMOOTH",
"449 1051 OFFCURVE",
"610 1280 OFFCURVE",
"853 1280 CURVE SMOOTH",
"1018 1280 OFFCURVE",
"1139 1181 OFFCURVE",
"1205 994 CURVE",
"1585 994 LINE",
"1489 1270 OFFCURVE",
"1169 1467 OFFCURVE",
"852 1467 CURVE SMOOTH",
"414 1467 OFFCURVE",
"57 1129 OFFCURVE",
"57 713 CURVE SMOOTH",
"57 277 OFFCURVE",
"396 -45 OFFCURVE",
"855 -45 CURVE SMOOTH"
);
},
{
closed = 1;
nodes = (
"1473 520 LINE",
"1473 713 LINE",
"821 713 LINE",
"821 520 LINE"
);
}
);
};
layerId = "66066CCB-AAC9-4485-8967-3F6B885ABFA4";
paths = (
{
closed = 1;
nodes = (
"1285 -45 OFFCURVE",
"1609 249 OFFCURVE",
"1636 660 CURVE",
"1252 660 LINE",
"1239 342 OFFCURVE",
"1082 142 OFFCURVE",
"852 142 CURVE SMOOTH",
"609 142 OFFCURVE",
"449 366 OFFCURVE",
"449 708 CURVE SMOOTH",
"449 1051 OFFCURVE",
"610 1280 OFFCURVE",
"853 1280 CURVE SMOOTH",
"1018 1280 OFFCURVE",
"1139 1181 OFFCURVE",
"1205 994 CURVE",
"1585 994 LINE",
"1489 1270 OFFCURVE",
"1169 1467 OFFCURVE",
"852 1467 CURVE SMOOTH",
"414 1467 OFFCURVE",
"67 1129 OFFCURVE",
"67 713 CURVE SMOOTH",
"67 277 OFFCURVE",
"396 -45 OFFCURVE",
"855 -45 CURVE SMOOTH"
);
},
{
closed = 1;
nodes = (
"1473 467 LINE",
"1473 660 LINE",
"921 660 LINE",
"921 467 LINE"
);
}
);
width = 1677;
},
{
anchors = (
{
name = bottom;
position = "{801, 0}";
},
{
name = top;
position = "{801, 1430}";
}
);
background = {
anchors = (
{
name = bottom;
position = "{801, 0}";
},
{
name = top;
position = "{801, 1430}";
}
);
paths = (
{
closed = 1;
nodes = (
"1184 -10 OFFCURVE",
"1445 256 OFFCURVE",
"1469 654 CURVE",
"1371 654 LINE",
"1347 309 OFFCURVE",
"1127 78 OFFCURVE",
"805 69 CURVE",
"464 79 OFFCURVE",
"237 338 OFFCURVE",
"237 717 CURVE SMOOTH",
"237 1096 OFFCURVE",
"467 1358 OFFCURVE",
"805 1364 CURVE",
"1016 1360 OFFCURVE",
"1185 1257 OFFCURVE",
"1282 1087 CURVE",
"1390 1087 LINE",
"1282 1308 OFFCURVE",
"1072 1443 OFFCURVE",
"805 1443 CURVE SMOOTH",
"410 1443 OFFCURVE",
"139 1145 OFFCURVE",
"139 714 CURVE SMOOTH",
"139 283 OFFCURVE",
"407 -10 OFFCURVE",
"805 -10 CURVE SMOOTH"
);
},
{
closed = 1;
nodes = (
"1442 576 LINE",
"1442 653 LINE",
"983 653 LINE",
"983 576 LINE"
);
}
);
};
layerId = "B71E0DD6-B640-4F5E-B48D-BF5E04BC2E71";
paths = (
{
closed = 1;
nodes = (
"1184 -10 OFFCURVE",
"1445 256 OFFCURVE",
"1469 654 CURVE",
"1371 654 LINE",
"1347 309 OFFCURVE",
"1127 78 OFFCURVE",
"805 69 CURVE",
"464 79 OFFCURVE",
"237 338 OFFCURVE",
"237 717 CURVE SMOOTH",
"237 1096 OFFCURVE",
"467 1358 OFFCURVE",
"805 1364 CURVE",
"1016 1360 OFFCURVE",
"1185 1257 OFFCURVE",
"1282 1087 CURVE",
"1390 1087 LINE",
"1282 1308 OFFCURVE",
"1072 1443 OFFCURVE",
"805 1443 CURVE SMOOTH",
"410 1443 OFFCURVE",
"139 1145 OFFCURVE",
"139 714 CURVE SMOOTH",
"139 283 OFFCURVE",
"407 -10 OFFCURVE",
"805 -10 CURVE SMOOTH"
);
},
{
closed = 1;
nodes = (
"1442 576 LINE",
"1442 653 LINE",
"983 653 LINE",
"983 576 LINE"
);
}
);
width = 1602;
}
);
leftKerningGroup = O;
note = G;
rightKerningGroup = G;
unicode = 0047;
},
{
color = 1;
glyphname = H;
lastChange = "2019-12-24 19:38:52 +0000";
layers = (
{
anchors = (
{
name = bottom;
position = "{730, 0}";
},
{
name = center;
position = "{730, 715}";
},
{
name = top;
position = "{730, 1430}";
},
{
name = topleft;
position = "{40, 1430}";
}
);
background = {
paths = (
{
closed = 1;
nodes = (
"460 714 LINE",
"1248 714 LINE",
"1248 36 LINE",
"1038 36 LINE",
"1038 0 LINE",
"1664 0 LINE",
"1664 36 LINE",
"1456 36 LINE",
"1456 1394 LINE",
"1664 1394 LINE",
"1664 1430 LINE",
"1038 1430 LINE",
"1038 1394 LINE",
"1248 1394 LINE",
"1248 750 LINE",
"460 750 LINE",
"460 1394 LINE",
"668 1394 LINE",
"668 1430 LINE",
"44 1430 LINE",
"44 1394 LINE",
"252 1394 LINE",
"252 36 LINE",
"44 36 LINE",
"44 0 LINE",
"668 0 LINE",
"668 36 LINE",
"460 36 LINE"
);
}
);
};
layerId = "EA94BB3F-1054-4F03-AAB6-69C3B81B3CC3";
paths = (
{
closed = 1;
nodes = (
"350 0 LINE",
"350 737 LINE",
"257 714 LINE",
"1203 714 LINE",
"1110 737 LINE",
"1110 0 LINE",
"1316 0 LINE",
"1316 1430 LINE",
"1110 1430 LINE",
"1110 727 LINE",
"1203 750 LINE",
"257 750 LINE",
"350 727 LINE",
"350 1430 LINE",
"144 1430 LINE",
"144 0 LINE"
);
}
);
width = 1460;
},
{
anchors = (
{
name = bottom;
position = "{719, 0}";
},
{
name = center;
position = "{719, 715}";
},
{
name = top;
position = "{719, 1430}";
},
{
name = topleft;
position = "{34, 1430}";
}
);
layerId = "1A84AFAC-8532-492C-A52A-D2ACD869B7F8";
paths = (
{
closed = 1;
nodes = (
"210 0 LINE",
"210 725 LINE",
"203 719 LINE",
"1235 719 LINE",
"1228 725 LINE",
"1228 0 LINE",
"1294 0 LINE",
"1294 1430 LINE",
"1228 1430 LINE",
"1228 739 LINE",
"1235 745 LINE",
"203 745 LINE",
"210 739 LINE",
"210 1430 LINE",
"144 1430 LINE",
"144 0 LINE"
);
}
);
width = 1438;
},
{
anchors = (
{
name = bottom;
position = "{785, 0}";
},
{
name = center;
position = "{785, 715}";
},
{
name = top;
position = "{785, 1430}";
},
{
name = topleft;
position = "{16, 1430}";
}
);
layerId = "16E03120-9D89-4B3A-B1E3-633A6E865927";
paths = (
{
closed = 1;
nodes = (
"470 0 LINE",
"470 781 LINE",
"177 709 LINE",
"1393 709 LINE",
"1100 781 LINE",
"1100 0 LINE",
"1426 0 LINE",
"1426 1445 LINE",
"1100 1445 LINE",
"1100 703 LINE",
"1393 775 LINE",
"177 775 LINE",
"470 703 LINE",
"470 1445 LINE",
"144 1445 LINE",
"144 0 LINE"
);
}
);
width = 1570;
},
{
anchors = (
{
name = bottom;
position = "{809, 0}";
},
{
name = center;
position = "{809, 715}";
},
{
name = top;
position = "{809, 1430}";
},
{
name = topleft;
position = "{16, 1430}";
}
);
layerId = "5EAC5215-9D4A-4BA0-8B26-A551FA1A966A";
paths = (
{
closed = 1;
nodes = (
"424 -15 LINE",
"424 751 LINE",
"227 699 LINE",
"1391 699 LINE",
"1194 751 LINE",
"1194 -15 LINE",
"1474 -15 LINE",
"1474 1445 LINE",
"1194 1445 LINE",
"1194 673 LINE",
"1391 725 LINE",
"227 725 LINE",
"424 673 LINE",
"424 1445 LINE",
"144 1445 LINE",
"144 -15 LINE"
);
}
);
width = 1618;
},
{
anchors = (
{
name = bottom;
position = "{769, 0}";
},
{
name = center;
position = "{769, 715}";
},
{
name = top;
position = "{769, 1430}";
},
{
name = topleft;
position = "{30, 1430}";
}
);
background = {
paths = (
{
closed = 1;
nodes = (
"430 714 LINE",
"1218 714 LINE",
"1218 36 LINE",
"1008 36 LINE",
"1008 0 LINE",
"1634 0 LINE",
"1634 36 LINE",
"1426 36 LINE",
"1426 1394 LINE",
"1634 1394 LINE",
"1634 1430 LINE",
"1008 1430 LINE",
"1008 1394 LINE",
"1218 1394 LINE",
"1218 750 LINE",
"430 750 LINE",
"430 1394 LINE",
"638 1394 LINE",
"638 1430 LINE",
"14 1430 LINE",
"14 1394 LINE",
"222 1394 LINE",
"222 36 LINE",
"14 36 LINE",
"14 0 LINE",
"638 0 LINE",
"638 36 LINE",
"430 36 LINE"
);
}
);
};
layerId = "B4536172-55B8-4884-A498-BDE07D5884DA";
paths = (
{
closed = 1;
nodes = (
"327 -8 LINE",
"327 742 LINE",
"225 713 LINE",
"1318 713 LINE",
"1216 742 LINE",
"1216 -8 LINE",
"1399 -8 LINE",
"1399 1438 LINE",
"1216 1438 LINE",
"1216 702 LINE",
"1318 731 LINE",
"225 731 LINE",
"327 702 LINE",
"327 1438 LINE",
"144 1438 LINE",
"144 -8 LINE"
);
}
);
width = 1543;
},
{
anchors = (
{
name = bottom;
position = "{729, 0}";
},
{
name = center;
position = "{729, 715}";
},
{
name = top;
position = "{729, 1430}";
},
{
name = topleft;
position = "{44, 1430}";
}
);
layerId = "09CD4194-2486-478D-AB32-B0AA8D4EDA22";
paths = (
{
closed = 1;
nodes = (
"230 0 LINE",
"230 733 LINE",
"223 727 LINE",
"1245 727 LINE",
"1238 733 LINE",
"1238 0 LINE",
"1324 0 LINE",
"1324 1430 LINE",
"1238 1430 LINE",
"1238 731 LINE",
"1245 737 LINE",
"223 737 LINE",
"230 731 LINE",
"230 1430 LINE",
"144 1430 LINE",
"144 0 LINE"
);
}
);
width = 1468;
},
{
anchors = (
{
name = bottom;
position = "{809, 0}";
},
{
name = center;
position = "{809, 715}";
},
{
name = top;
position = "{809, 1430}";
},
{
name = topleft;
position = "{20, 1430}";
}
);
background = {
anchors = (
{
name = bottom;
position = "{809, 0}";
},
{
name = center;
position = "{809, 715}";
},
{
name = top;
position = "{809, 1430}";
},
{
name = topleft;
position = "{20, 1430}";
}
);
paths = (
{
closed = 1;
nodes = (
"508 0 LINE",
"508 850 LINE",
"182 639 LINE",
"1437 639 LINE",
"1110 850 LINE",
"1110 0 LINE",
"1486 0 LINE",
"1486 1437 LINE",
"1110 1437 LINE",
"1110 624 LINE",
"1437 835 LINE",
"182 835 LINE",
"508 624 LINE",
"508 1437 LINE",
"132 1437 LINE",
"132 0 LINE"
);
}
);
};
layerId = "66066CCB-AAC9-4485-8967-3F6B885ABFA4";
paths = (
{
closed = 1;
nodes = (
"508 0 LINE",
"508 850 LINE",
"182 639 LINE",
"1437 639 LINE",
"1110 850 LINE",
"1110 0 LINE",
"1486 0 LINE",
"1486 1437 LINE",
"1110 1437 LINE",
"1110 624 LINE",
"1437 835 LINE",
"182 835 LINE",
"508 624 LINE",
"508 1437 LINE",
"132 1437 LINE",
"132 0 LINE"
);
}
);
width = 1618;
},
{
anchors = (
{
name = bottom;
position = "{762, 0}";
},
{
name = center;
position = "{762, 715}";
},
{
name = top;
position = "{762, 1430}";
},
{
name = topleft;
position = "{20, 1430}";
}
);
background = {
anchors = (
{
name = bottom;
position = "{762, 0}";
},
{
name = center;
position = "{762, 715}";
},
{
name = top;
position = "{762, 1430}";
},
{
name = topleft;
position = "{20, 1430}";
}
);
paths = (
{
closed = 1;
nodes = (
"257 0 LINE",
"257 750 LINE",
"191 693 LINE",
"1316 693 LINE",
"1267 750 LINE",
"1267 0 LINE",
"1355 0 LINE",
"1355 1430 LINE",
"1267 1430 LINE",
"1267 713 LINE",
"1316 770 LINE",
"191 770 LINE",
"257 713 LINE",
"257 1430 LINE",
"168 1430 LINE",
"168 0 LINE"
);
}
);
};
layerId = "B71E0DD6-B640-4F5E-B48D-BF5E04BC2E71";
paths = (
{
closed = 1;
nodes = (
"257 0 LINE",
"257 750 LINE",
"191 693 LINE",
"1316 693 LINE",
"1267 750 LINE",
"1267 0 LINE",
"1355 0 LINE",
"1355 1430 LINE",
"1267 1430 LINE",
"1267 713 LINE",
"1316 770 LINE",
"191 770 LINE",
"257 713 LINE",
"257 1430 LINE",
"168 1430 LINE",
"168 0 LINE"
);
}
);
width = 1523;
}
);
leftKerningGroup = H;
note = H;
rightKerningGroup = H;
unicode = 0048;
},
{
glyphname = Hbar;
lastChange = "2019-12-24 21:13:04 +0000";
layers = (
{
anchors = (
{
name = bottom;
position = "{742, 0}";
},
{
name = top;
position = "{742, 1430}";
}
);
background = {
paths = (
{
closed = 1;
nodes = (
"362 0 LINE",
"362 714 LINE",
"1122 714 LINE",
"1122 0 LINE",
"1328 0 LINE",
"1328 1430 LINE",
"1122 1430 LINE",
"1122 750 LINE",
"362 750 LINE",
"362 1430 LINE",
"156 1430 LINE",
"156 0 LINE"
);
}
);
};
components = (
{
name = H;
},
{
name = strokelongcomb.case;
transform = "{1, 0, 0, 1, -12, -441}";
}
);
layerId = "EA94BB3F-1054-4F03-AAB6-69C3B81B3CC3";
width = 1460;
},
{
anchors = (
{
name = bottom;
position = "{742, -5}";
},
{
name = top;
position = "{742, 1435}";
}
);
components = (
{
name = H;
},
{
name = strokelongcomb.case;
transform = "{1, 0, 0, 1, -23, -441}";
}
);
layerId = "1A84AFAC-8532-492C-A52A-D2ACD869B7F8";
width = 1438;
},
{
anchors = (
{
name = bottom;
position = "{742, 0}";
},
{
name = top;
position = "{742, 1430}";
}
);
components = (
{
name = H;
},
{
name = strokelongcomb.case;
transform = "{1, 0, 0, 1, 43, -441}";
}
);
layerId = "16E03120-9D89-4B3A-B1E3-633A6E865927";
width = 1570;
},
{
anchors = (
{
name = bottom;
position = "{742, 0}";
},
{
name = top;
position = "{742, 1430}";
}
);
components = (
{
name = H;
},
{
name = strokelongcomb.case;
transform = "{1, 0, 0, 1, 8, -441}";
}
);
layerId = "5EAC5215-9D4A-4BA0-8B26-A551FA1A966A";
width = 1618;
},
{
anchors = (
{
name = bottom;
position = "{742, -3}";
},
{
name = top;
position = "{742, 1433}";
}
);
background = {
paths = (
{
closed = 1;
nodes = (
"362 0 LINE",
"362 714 LINE",
"1122 714 LINE",
"1122 0 LINE",
"1328 0 LINE",
"1328 1430 LINE",
"1122 1430 LINE",
"1122 750 LINE",
"362 750 LINE",
"362 1430 LINE",
"156 1430 LINE",
"156 0 LINE"
);
}
);
};
components = (
{
name = H;
},
{
name = strokelongcomb.case;
transform = "{1, 0, 0, 1, 27, -442}";
}
);
layerId = "B4536172-55B8-4884-A498-BDE07D5884DA";
width = 1543;
},
{
anchors = (
{
name = bottom;
position = "{742, -5}";
},
{
name = top;
position = "{742, 1435}";
}
);
components = (
{
name = H;
},
{
name = strokelongcomb.case;
transform = "{1, 0, 0, 1, -13, -441}";
}
);
layerId = "09CD4194-2486-478D-AB32-B0AA8D4EDA22";
width = 1468;
},
{
anchors = (
{
name = bottom;
position = "{764, 62}";
},
{
name = top;
position = "{764, 1357}";
}
);
background = {
anchors = (
{
name = bottom;
position = "{764, 62}";
},
{
name = top;
position = "{764, 1357}";
}
);
components = (
{
name = H;
},
{
name = strokelongcomb.case;
transform = "{1, 0, 0, 1, 68, -1}";
}
);
};
components = (
{
name = H;
},
{
name = strokelongcomb.case;
transform = "{1, 0, 0, 1, 68, -442}";
}
);
layerId = "66066CCB-AAC9-4485-8967-3F6B885ABFA4";
width = 1618;
},
{
anchors = (
{
name = bottom;
position = "{764, 21}";
},
{
name = top;
position = "{764, 1409}";
}
);
background = {
anchors = (
{
name = bottom;
position = "{764, 21}";
},
{
name = top;
position = "{764, 1409}";
}
);
components = (
{
name = H;
},
{
name = strokelongcomb.case;
transform = "{1, 0, 0, 1, -2, -426}";
}
);
};
components = (
{
name = H;
},
{
name = strokelongcomb.case;
transform = "{1, 0, 0, 1, -2, -426}";
}
);
layerId = "B71E0DD6-B640-4F5E-B48D-BF5E04BC2E71";
width = 1523;
}
);
leftKerningGroup = H;
rightKerningGroup = H;
unicode = 0126;
},
{
color = 1;
glyphname = I;
lastChange = "2019-12-24 19:38:52 +0000";
layers = (
{
anchors = (
{
name = bottom;
position = "{247, 0}";
},
{
name = ogonek;
position = "{466, 10}";
},
{
name = top;
position = "{247, 1430}";
},
{
name = topleft;
position = "{-7, 1430}";
}
);
background = {
paths = (
{
closed = 1;
nodes = (
"28 1334 LINE",
"28 1300 LINE",
"222 1300 LINE",
"222 34 LINE",
"28 34 LINE",
"28 0 LINE",
"616 0 LINE",
"616 34 LINE",
"422 34 LINE",
"422 1300 LINE",
"616 1300 LINE",
"616 1334 LINE"
);
}
);
};
layerId = "EA94BB3F-1054-4F03-AAB6-69C3B81B3CC3";
paths = (
{
closed = 1;
nodes = (
"350 0 LINE",
"350 1430 LINE",
"144 1430 LINE",
"144 0 LINE"
);
}
);
width = 494;
},
{
anchors = (
{
name = bottom;
position = "{174, 0}";
},
{
name = ogonek;
position = "{335, 10}";
},
{
name = top;
position = "{174, 1430}";
},
{
name = topleft;
position = "{-7, 1430}";
}
);
layerId = "1A84AFAC-8532-492C-A52A-D2ACD869B7F8";
paths = (
{
closed = 1;
nodes = (
"204 0 LINE",
"204 1430 LINE",
"144 1430 LINE",
"144 0 LINE"
);
}
);
width = 348;
},
{
anchors = (
{
name = bottom;
position = "{312, 0}";
},
{
name = ogonek;
position = "{583, 10}";
},
{
name = top;
position = "{312, 1430}";
},
{
name = topleft;
position = "{-7, 1430}";
}
);
layerId = "16E03120-9D89-4B3A-B1E3-633A6E865927";
paths = (
{
closed = 1;
nodes = (
"480 0 LINE",
"480 1445 LINE",
"144 1445 LINE",
"144 0 LINE"
);
}
);
width = 624;
},
{
anchors = (
{
name = bottom;
position = "{284, 0}";
},
{
name = ogonek;
position = "{533, 10}";
},
{
name = top;
position = "{284, 1430}";
},
{
name = topleft;
position = "{-7, 1430}";
}
);
layerId = "5EAC5215-9D4A-4BA0-8B26-A551FA1A966A";
paths = (
{
closed = 1;
nodes = (
"424 -15 LINE",
"424 1445 LINE",
"144 1445 LINE",
"144 -15 LINE"
);
}
);
width = 568;
},
{
anchors = (
{
name = bottom;
position = "{229, 0}";
},
{
name = ogonek;
position = "{434, 10}";
},
{
name = top;
position = "{229, 1430}";
},
{
name = topleft;
position = "{-7, 1430}";
}
);
background = {
paths = (
{
closed = 1;
nodes = (
"8 1334 LINE",
"8 1300 LINE",
"202 1300 LINE",
"202 34 LINE",
"8 34 LINE",
"8 0 LINE",
"596 0 LINE",
"596 34 LINE",
"402 34 LINE",
"402 1300 LINE",
"596 1300 LINE",
"596 1334 LINE"
);
}
);
};
layerId = "B4536172-55B8-4884-A498-BDE07D5884DA";
paths = (
{
closed = 1;
nodes = (
"314 -8 LINE",
"314 1438 LINE",
"144 1438 LINE",
"144 -8 LINE"
);
}
);
width = 458;
},
{
anchors = (
{
name = bottom;
position = "{174, 0}";
},
{
name = ogonek;
position = "{335, 10}";
},
{
name = top;
position = "{174, 1430}";
},
{
name = topleft;
position = "{-7, 1430}";
}
);
layerId = "09CD4194-2486-478D-AB32-B0AA8D4EDA22";
paths = (
{
closed = 1;
nodes = (
"204 0 LINE",
"204 1430 LINE",
"144 1430 LINE",
"144 0 LINE"
);
}
);
width = 348;
},
{
anchors = (
{
name = bottom;
position = "{328, 0}";
},
{
name = ogonek;
position = "{590, 10}";
},
{
name = top;
position = "{328, 1430}";
},
{
name = topleft;
position = "{20, 1430}";
}
);
background = {
anchors = (
{
name = bottom;
position = "{328, 0}";
},
{
name = ogonek;
position = "{590, 10}";
},
{
name = top;
position = "{328, 1430}";
},
{
name = topleft;
position = "{20, 1430}";
}
);
paths = (
{
closed = 1;
nodes = (
"521 0 LINE",
"521 1437 LINE",
"134 1437 LINE",
"134 0 LINE"
);
}
);
};
layerId = "66066CCB-AAC9-4485-8967-3F6B885ABFA4";
paths = (
{
closed = 1;
nodes = (
"521 0 LINE",
"521 1437 LINE",
"134 1437 LINE",
"134 0 LINE"
);
}
);
width = 656;
},
{
anchors = (
{
name = bottom;
position = "{210, 0}";
},
{
name = ogonek;
position = "{377, 10}";
},
{
name = top;
position = "{210, 1430}";
},
{
name = topleft;
position = "{20, 1430}";
}
);
background = {
anchors = (
{
name = bottom;
position = "{210, 0}";
},
{
name = ogonek;
position = "{377, 10}";
},
{
name = top;
position = "{210, 1430}";
},
{
name = topleft;
position = "{20, 1430}";
}
);
paths = (
{
closed = 1;
nodes = (
"251 0 LINE",
"251 1430 LINE",
"168 1430 LINE",
"168 0 LINE"
);
}
);
};
layerId = "B71E0DD6-B640-4F5E-B48D-BF5E04BC2E71";
paths = (
{
closed = 1;
nodes = (
"251 0 LINE",
"251 1430 LINE",
"168 1430 LINE",
"168 0 LINE"
);
}
);
width = 419;
}
);
leftKerningGroup = H;
note = I;
rightKerningGroup = H;
unicode = 0049;
},
{
color = 1;
glyphname = J;
lastChange = "2019-12-24 19:38:52 +0000";
layers = (
{
anchors = (
{
name = bottom;
position = "{431, 0}";
},
{
name = top;
position = "{431, 1430}";
}
);
background = {
paths = (
{
closed = 1;
nodes = (
"798 1394 LINE",
"798 1430 LINE",
"172 1430 LINE",
"172 1394 LINE",
"380 1394 LINE",
"380 264 LINE SMOOTH",
"380 198 OFFCURVE",
"382 186 OFFCURVE",
"412 116 CURVE",
"430 76 LINE",
"438 58 OFFCURVE",
"442 40 OFFCURVE",
"442 22 CURVE SMOOTH",
"442 -56 OFFCURVE",
"384 -118 OFFCURVE",
"312 -118 CURVE SMOOTH",
"266 -118 OFFCURVE",
"216 -88 OFFCURVE",
"216 -60 CURVE SMOOTH",
"216 -54 OFFCURVE",
"220 -48 OFFCURVE",
"228 -46 CURVE SMOOTH",
"268 -32 OFFCURVE",
"268 -32 OFFCURVE",
"278 -24 CURVE",
"296 -6 OFFCURVE",
"308 22 OFFCURVE",
"308 48 CURVE SMOOTH",
"308 102 OFFCURVE",
"266 146 OFFCURVE",
"212 146 CURVE SMOOTH",
"148 146 OFFCURVE",
"102 94 OFFCURVE",
"102 24 CURVE SMOOTH",
"102 -80 OFFCURVE",
"192 -152 OFFCURVE",
"322 -152 CURVE SMOOTH",
"408 -152 OFFCURVE",
"478 -120 OFFCURVE",
"524 -60 CURVE SMOOTH",
"572 6 OFFCURVE",
"590 86 OFFCURVE",
"590 234 CURVE SMOOTH",
"590 1394 LINE"
);
}
);
};
layerId = "EA94BB3F-1054-4F03-AAB6-69C3B81B3CC3";
paths = (
{
closed = 1;
nodes = (
"111 -112 OFFCURVE",
"245 -152 OFFCURVE",
"341 -152 CURVE SMOOTH",
"550 -152 OFFCURVE",
"676 42 OFFCURVE",
"676 374 CURVE SMOOTH",
"676 1430 LINE",
"470 1430 LINE",
"470 336 LINE SMOOTH",
"470 -46 OFFCURVE",
"457 -98 OFFCURVE",
"362 -98 CURVE SMOOTH",
"234 -98 OFFCURVE",
"127 -5 OFFCURVE",
"46 134 CURVE",
"46 -24 LINE"
);
}
);
width = 811;
},
{
associatedMasterId = "EA94BB3F-1054-4F03-AAB6-69C3B81B3CC3";
background = {
paths = (
{
closed = 1;
nodes = (
"738 1394 LINE",
"738 1430 LINE",
"112 1430 LINE",
"112 1394 LINE",
"320 1394 LINE",
"320 264 LINE SMOOTH",
"320 198 OFFCURVE",
"322 186 OFFCURVE",
"352 116 CURVE",
"370 76 LINE",
"378 58 OFFCURVE",
"382 40 OFFCURVE",
"382 22 CURVE SMOOTH",
"382 -56 OFFCURVE",
"324 -118 OFFCURVE",
"252 -118 CURVE SMOOTH",
"206 -118 OFFCURVE",
"156 -88 OFFCURVE",
"156 -60 CURVE SMOOTH",
"156 -54 OFFCURVE",
"160 -48 OFFCURVE",
"168 -46 CURVE SMOOTH",
"208 -32 OFFCURVE",
"208 -32 OFFCURVE",
"218 -24 CURVE",
"236 -6 OFFCURVE",
"248 22 OFFCURVE",
"248 48 CURVE SMOOTH",
"248 102 OFFCURVE",
"206 146 OFFCURVE",
"152 146 CURVE SMOOTH",
"88 146 OFFCURVE",
"42 94 OFFCURVE",
"42 24 CURVE SMOOTH",
"42 -80 OFFCURVE",
"132 -152 OFFCURVE",
"262 -152 CURVE SMOOTH",
"348 -152 OFFCURVE",
"418 -120 OFFCURVE",
"464 -60 CURVE SMOOTH",
"512 6 OFFCURVE",
"530 86 OFFCURVE",
"530 234 CURVE SMOOTH",
"530 1394 LINE"
);
}
);
};
layerId = "5F3C60D3-57DE-4E92-8BCD-2FCE42A3C567";
name = guide;
paths = (
{
closed = 1;
nodes = (
"474 -152 OFFCURVE",
"616 -6 OFFCURVE",
"616 172 CURVE SMOOTH",
"616 346 OFFCURVE",
"474 492 OFFCURVE",
"296 492 CURVE SMOOTH",
"118 492 OFFCURVE",
"-24 346 OFFCURVE",
"-24 172 CURVE SMOOTH",
"-24 -6 OFFCURVE",
"118 -152 OFFCURVE",
"296 -152 CURVE SMOOTH"
);
}
);
width = 774;
},
{
anchors = (
{
name = bottom;
position = "{304, -4}";
},
{
name = top;
position = "{304, 1436}";
}
);
layerId = "1A84AFAC-8532-492C-A52A-D2ACD869B7F8";
paths = (
{
closed = 1;
nodes = (
"92 -130 OFFCURVE",
"165 -153 OFFCURVE",
"214 -153 CURVE SMOOTH",
"367 -153 OFFCURVE",
"429 -20 OFFCURVE",
"429 252 CURVE SMOOTH",
"429 1431 LINE",
"369 1431 LINE",
"369 164 LINE SMOOTH",
"369 -106 OFFCURVE",
"247 -118 OFFCURVE",
"215 -118 CURVE SMOOTH",
"149 -118 OFFCURVE",
"85 -67 OFFCURVE",
"39 7 CURVE",
"39 -57 LINE"
);
}
);
width = 572;
},
{
anchors = (
{
name = bottom;
position = "{504, 0}";
},
{
name = top;
position = "{504, 1430}";
}
);
layerId = "16E03120-9D89-4B3A-B1E3-633A6E865927";
paths = (
{
closed = 1;
nodes = (
"85 -90 OFFCURVE",
"258 -167 OFFCURVE",
"414 -167 CURVE SMOOTH",
"662 -167 OFFCURVE",
"814 27 OFFCURVE",
"814 374 CURVE SMOOTH",
"814 1445 LINE",
"478 1445 LINE",
"478 336 LINE SMOOTH",
"478 -15 OFFCURVE",
"439 -83 OFFCURVE",
"375 -83 CURVE SMOOTH",
"325 -83 OFFCURVE",
"185 -42 OFFCURVE",
"54 249 CURVE",
"54 -10 LINE"
);
}
);
width = 948;
},
{
anchors = (
{
name = bottom;
position = "{467, 0}";
},
{
name = top;
position = "{467, 1430}";
}
);
layerId = "5EAC5215-9D4A-4BA0-8B26-A551FA1A966A";
paths = (
{
closed = 1;
nodes = (
"71 -90 OFFCURVE",
"184 -167 OFFCURVE",
"400 -167 CURVE SMOOTH",
"648 -167 OFFCURVE",
"800 27 OFFCURVE",
"800 374 CURVE SMOOTH",
"800 1445 LINE",
"520 1445 LINE",
"520 336 LINE SMOOTH",
"520 -15 OFFCURVE",
"495 -133 OFFCURVE",
"361 -133 CURVE SMOOTH",
"241 -133 OFFCURVE",
"171 -42 OFFCURVE",
"100 139 CURVE",
"40 -10 LINE"
);
}
);
width = 934;
},
{
anchors = (
{
name = bottom;
position = "{399, 0}";
},
{
name = top;
position = "{459, 1430}";
}
);
background = {
paths = (
{
closed = 1;
nodes = (
"736 1394 LINE",
"736 1430 LINE",
"110 1430 LINE",
"110 1394 LINE",
"318 1394 LINE",
"318 264 LINE SMOOTH",
"318 198 OFFCURVE",
"320 186 OFFCURVE",
"350 116 CURVE",
"368 76 LINE",
"376 58 OFFCURVE",
"380 40 OFFCURVE",
"380 22 CURVE SMOOTH",
"380 -56 OFFCURVE",
"322 -118 OFFCURVE",
"250 -118 CURVE SMOOTH",
"204 -118 OFFCURVE",
"154 -88 OFFCURVE",
"154 -60 CURVE SMOOTH",
"154 -54 OFFCURVE",
"158 -48 OFFCURVE",
"166 -46 CURVE SMOOTH",
"206 -32 OFFCURVE",
"206 -32 OFFCURVE",
"216 -24 CURVE",
"234 -6 OFFCURVE",
"246 22 OFFCURVE",
"246 48 CURVE SMOOTH",
"246 102 OFFCURVE",
"204 146 OFFCURVE",
"150 146 CURVE SMOOTH",
"86 146 OFFCURVE",
"40 94 OFFCURVE",
"40 24 CURVE SMOOTH",
"40 -80 OFFCURVE",
"130 -152 OFFCURVE",
"260 -152 CURVE SMOOTH",
"346 -152 OFFCURVE",
"416 -120 OFFCURVE",
"462 -60 CURVE SMOOTH",
"510 6 OFFCURVE",
"528 86 OFFCURVE",
"528 234 CURVE SMOOTH",
"528 1394 LINE"
);
}
);
};
layerId = "B4536172-55B8-4884-A498-BDE07D5884DA";
paths = (
{
closed = 1;
nodes = (
"95 -110 OFFCURVE",
"172 -160 OFFCURVE",
"311 -160 CURVE SMOOTH",
"510 -160 OFFCURVE",
"641 4 OFFCURVE",
"641 313 CURVE SMOOTH",
"641 1438 LINE",
"458 1438 LINE",
"458 250 LINE SMOOTH",
"458 -61 OFFCURVE",
"380 -138 OFFCURVE",
"287 -138 CURVE SMOOTH",
"199 -138 OFFCURVE",
"131 -71 OFFCURVE",
"68 48 CURVE",
"38 -44 LINE"
);
}
);
width = 778;
},
{
associatedMasterId = "B4536172-55B8-4884-A498-BDE07D5884DA";
background = {
paths = (
{
closed = 1;
nodes = (
"738 1394 LINE",
"738 1430 LINE",
"112 1430 LINE",
"112 1394 LINE",
"320 1394 LINE",
"320 264 LINE SMOOTH",
"320 198 OFFCURVE",
"322 186 OFFCURVE",
"352 116 CURVE",
"370 76 LINE",
"378 58 OFFCURVE",
"382 40 OFFCURVE",
"382 22 CURVE SMOOTH",
"382 -56 OFFCURVE",
"324 -118 OFFCURVE",
"252 -118 CURVE SMOOTH",
"206 -118 OFFCURVE",
"156 -88 OFFCURVE",
"156 -60 CURVE SMOOTH",
"156 -54 OFFCURVE",
"160 -48 OFFCURVE",
"168 -46 CURVE SMOOTH",
"208 -32 OFFCURVE",
"208 -32 OFFCURVE",
"218 -24 CURVE",
"236 -6 OFFCURVE",
"248 22 OFFCURVE",
"248 48 CURVE SMOOTH",
"248 102 OFFCURVE",
"206 146 OFFCURVE",
"152 146 CURVE SMOOTH",
"88 146 OFFCURVE",
"42 94 OFFCURVE",
"42 24 CURVE SMOOTH",
"42 -80 OFFCURVE",
"132 -152 OFFCURVE",
"262 -152 CURVE SMOOTH",
"348 -152 OFFCURVE",
"418 -120 OFFCURVE",
"464 -60 CURVE SMOOTH",
"512 6 OFFCURVE",
"530 86 OFFCURVE",
"530 234 CURVE SMOOTH",
"530 1394 LINE"
);
}
);
};
layerId = "28EC0C5F-4258-45EF-A3A1-0990989DA5EC";
name = guide;
paths = (
{
closed = 1;
nodes = (
"474 -152 OFFCURVE",
"616 -6 OFFCURVE",
"616 172 CURVE SMOOTH",
"616 346 OFFCURVE",
"474 492 OFFCURVE",
"296 492 CURVE SMOOTH",
"118 492 OFFCURVE",
"-24 346 OFFCURVE",
"-24 172 CURVE SMOOTH",
"-24 -6 OFFCURVE",
"118 -152 OFFCURVE",
"296 -152 CURVE SMOOTH"
);
}
);
width = 774;
},
{
anchors = (
{
name = bottom;
position = "{331, 0}";
},
{
name = top;
position = "{451, 1430}";
}
);
layerId = "09CD4194-2486-478D-AB32-B0AA8D4EDA22";
paths = (
{
closed = 1;
nodes = (
"119 -130 OFFCURVE",
"159 -153 OFFCURVE",
"221 -153 CURVE SMOOTH",
"371 -153 OFFCURVE",
"482 -20 OFFCURVE",
"482 252 CURVE SMOOTH",
"482 1431 LINE",
"396 1431 LINE",
"396 164 LINE SMOOTH",
"396 -106 OFFCURVE",
"264 -143 OFFCURVE",
"212 -143 CURVE SMOOTH",
"156 -143 OFFCURVE",
"91 -100 OFFCURVE",
"36 -43 CURVE",
"36 -77 LINE"
);
}
);
width = 622;
},
{
anchors = (
{
name = bottom;
position = "{497, 0}";
},
{
name = top;
position = "{497, 1430}";
}
);
background = {
anchors = (
{
name = bottom;
position = "{497, 0}";
},
{
name = top;
position = "{497, 1430}";
}
);
paths = (
{
closed = 1;
nodes = (
"93 -80 OFFCURVE",
"259 -155 OFFCURVE",
"437 -155 CURVE SMOOTH",
"705 -155 OFFCURVE",
"869 75 OFFCURVE",
"869 442 CURVE SMOOTH",
"869 1437 LINE",
"483 1437 LINE",
"483 390 LINE SMOOTH",
"483 106 OFFCURVE",
"472 56 OFFCURVE",
"391 56 CURVE SMOOTH",
"258 56 OFFCURVE",
"129 207 OFFCURVE",
"45 444 CURVE",
"45 49 LINE"
);
}
);
};
layerId = "66066CCB-AAC9-4485-8967-3F6B885ABFA4";
paths = (
{
closed = 1;
nodes = (
"93 -80 OFFCURVE",
"275 -155 OFFCURVE",
"437 -155 CURVE SMOOTH",
"721 -155 OFFCURVE",
"869 75 OFFCURVE",
"869 442 CURVE SMOOTH",
"869 1437 LINE",
"483 1437 LINE",
"483 390 LINE SMOOTH",
"483 106 OFFCURVE",
"499 56 OFFCURVE",
"391 56 CURVE SMOOTH",
"245 56 OFFCURVE",
"109 147 OFFCURVE",
"15 224 CURVE",
"15 -1 LINE"
);
}
);
width = 993;
},
{
anchors = (
{
name = bottom;
position = "{369, 0}";
},
{
name = top;
position = "{369, 1430}";
}
);
background = {
anchors = (
{
name = bottom;
position = "{369, 0}";
},
{
name = top;
position = "{369, 1430}";
}
);
paths = (
{
closed = 1;
nodes = (
"186 -112 OFFCURVE",
"246 -147 OFFCURVE",
"330 -147 CURVE SMOOTH",
"476 -147 OFFCURVE",
"570 -41 OFFCURVE",
"570 151 CURVE SMOOTH",
"570 1431 LINE",
"486 1431 LINE",
"486 216 LINE SMOOTH",
"486 4 OFFCURVE",
"437 -66 OFFCURVE",
"335 -66 CURVE SMOOTH",
"247 -66 OFFCURVE",
"176 -14 OFFCURVE",
"132 14 CURVE",
"132 -79 LINE"
);
}
);
};
layerId = "B71E0DD6-B640-4F5E-B48D-BF5E04BC2E71";
paths = (
{
closed = 1;
nodes = (
"186 -112 OFFCURVE",
"246 -147 OFFCURVE",
"330 -147 CURVE SMOOTH",
"476 -147 OFFCURVE",
"570 -41 OFFCURVE",
"570 151 CURVE SMOOTH",
"570 1431 LINE",
"486 1431 LINE",
"486 216 LINE SMOOTH",
"486 4 OFFCURVE",
"437 -66 OFFCURVE",
"335 -66 CURVE SMOOTH",
"247 -66 OFFCURVE",
"176 -14 OFFCURVE",
"132 14 CURVE",
"132 -79 LINE"
);
}
);
width = 737;
}
);
leftKerningGroup = J;
note = J;
rightKerningGroup = J;
unicode = 004A;
},
{
color = 1;
glyphname = K;
lastChange = "2019-12-24 21:03:53 +0000";
layers = (
{
anchors = (
{
name = bottom;
position = "{659, 0}";
},
{
name = top;
position = "{659, 1430}";
}
);
background = {
paths = (
{
closed = 1;
nodes = (
"606 852 LINE",
"918 1132 LINE SMOOTH",
"1022 1228 OFFCURVE",
"1142 1320 OFFCURVE",
"1220 1364 CURVE SMOOTH",
"1258 1384 OFFCURVE",
"1294 1394 OFFCURVE",
"1352 1394 CURVE SMOOTH",
"1466 1394 LINE",
"1466 1430 LINE",
"856 1430 LINE",
"856 1394 LINE",
"964 1394 LINE SMOOTH",
"1042 1394 OFFCURVE",
"1066 1384 OFFCURVE",
"1066 1354 CURVE SMOOTH",
"1066 1328 OFFCURVE",
"1026 1278 OFFCURVE",
"958 1216 CURVE SMOOTH",
"424 736 LINE",
"424 1394 LINE",
"638 1394 LINE",
"638 1430 LINE",
"8 1430 LINE",
"8 1394 LINE",
"216 1394 LINE",
"216 36 LINE",
"8 36 LINE",
"8 0 LINE",
"650 0 LINE",
"650 36 LINE",
"424 36 LINE",
"424 688 LINE",
"450 712 LINE",
"1008 36 LINE",
"806 36 LINE",
"806 0 LINE",
"1502 0 LINE",
"1502 36 LINE",
"1296 36 LINE"
);
}
);
};
layerId = "EA94BB3F-1054-4F03-AAB6-69C3B81B3CC3";
paths = (
{
closed = 1;
nodes = (
"350 0 LINE",
"350 1430 LINE",
"144 1430 LINE",
"144 0 LINE"
);
},
{
closed = 1;
nodes = (
"1086 1430 LINE",
"1038 1430 LINE",
"290 539 LINE",
"291 481 LINE"
);
},
{
closed = 1;
nodes = (
"1318 0 LINE",
"594 863 LINE",
"458 703 LINE",
"1046 0 LINE"
);
}
);
width = 1352;
},
{
anchors = (
{
name = bottom;
position = "{586, 0}";
},
{
name = top;
position = "{586, 1430}";
}
);
layerId = "1A84AFAC-8532-492C-A52A-D2ACD869B7F8";
paths = (
{
closed = 1;
nodes = (
"204 0 LINE",
"204 1430 LINE",
"144 1430 LINE",
"144 0 LINE"
);
},
{
closed = 1;
nodes = (
"1070 1430 LINE",
"1039 1430 LINE",
"185 410 LINE",
"173 361 LINE"
);
},
{
closed = 1;
nodes = (
"1139 0 LINE",
"497 766 LINE",
"463 727 LINE",
"1066 0 LINE"
);
}
);
width = 1177;
},
{
anchors = (
{
name = bottom;
position = "{715, 0}";
},
{
name = top;
position = "{715, 1430}";
}
);
guideLines = (
{
angle = 50.0776;
position = "{939, 1108}";
}
);
layerId = "16E03120-9D89-4B3A-B1E3-633A6E865927";
paths = (
{
closed = 1;
nodes = (
"480 0 LINE",
"480 1445 LINE",
"144 1445 LINE",
"144 0 LINE"
);
},
{
closed = 1;
nodes = (
"1261 1445 LINE",
"1111 1445 LINE",
"305 549 LINE",
"394 483 LINE"
);
},
{
closed = 1;
nodes = (
"1393 0 LINE",
"659 932 LINE",
"466 702 LINE",
"1016 0 LINE"
);
}
);
width = 1428;
},
{
anchors = (
{
name = bottom;
position = "{709, 0}";
},
{
name = top;
position = "{709, 1430}";
}
);
guideLines = (
{
angle = 50.0776;
position = "{939, 1108}";
}
);
layerId = "5EAC5215-9D4A-4BA0-8B26-A551FA1A966A";
paths = (
{
closed = 1;
nodes = (
"424 0 LINE",
"424 1445 LINE",
"144 1445 LINE",
"144 0 LINE"
);
},
{
closed = 1;
nodes = (
"1181 1445 LINE",
"1078 1445 LINE",
"325 492 LINE",
"365 412 LINE"
);
},
{
closed = 1;
nodes = (
"1370 0 LINE",
"644 835 LINE",
"490 624 LINE",
"1033 0 LINE"
);
}
);
width = 1417;
},
{
anchors = (
{
name = bottom;
position = "{656, 0}";
},
{
name = top;
position = "{656, 1430}";
}
);
background = {
paths = (
{
closed = 1;
nodes = (
"576 852 LINE",
"888 1132 LINE SMOOTH",
"992 1228 OFFCURVE",
"1112 1320 OFFCURVE",
"1190 1364 CURVE SMOOTH",
"1228 1384 OFFCURVE",
"1264 1394 OFFCURVE",
"1322 1394 CURVE SMOOTH",
"1436 1394 LINE",
"1436 1430 LINE",
"826 1430 LINE",
"826 1394 LINE",
"934 1394 LINE SMOOTH",
"1012 1394 OFFCURVE",
"1036 1384 OFFCURVE",
"1036 1354 CURVE SMOOTH",
"1036 1328 OFFCURVE",
"996 1278 OFFCURVE",
"928 1216 CURVE SMOOTH",
"394 736 LINE",
"394 1394 LINE",
"608 1394 LINE",
"608 1430 LINE",
"-22 1430 LINE",
"-22 1394 LINE",
"186 1394 LINE",
"186 36 LINE",
"-22 36 LINE",
"-22 0 LINE",
"620 0 LINE",
"620 36 LINE",
"394 36 LINE",
"394 688 LINE",
"420 712 LINE",
"978 36 LINE",
"776 36 LINE",
"776 0 LINE",
"1472 0 LINE",
"1472 36 LINE",
"1266 36 LINE"
);
}
);
};
layerId = "B4536172-55B8-4884-A498-BDE07D5884DA";
paths = (
{
closed = 1;
nodes = (
"327 -8 LINE",
"327 1438 LINE",
"144 1438 LINE",
"144 -8 LINE"
);
},
{
closed = 1;
nodes = (
"1184 1438 LINE",
"1122 1438 LINE",
"268 451 LINE",
"277 387 LINE"
);
},
{
closed = 1;
nodes = (
"1324 -8 LINE",
"613 815 LINE",
"513 685 LINE",
"1109 -8 LINE"
);
}
);
width = 1359;
},
{
anchors = (
{
name = bottom;
position = "{602, 0}";
},
{
name = top;
position = "{602, 1430}";
}
);
layerId = "09CD4194-2486-478D-AB32-B0AA8D4EDA22";
paths = (
{
closed = 1;
nodes = (
"230 0 LINE",
"230 1430 LINE",
"144 1430 LINE",
"144 0 LINE"
);
},
{
closed = 1;
nodes = (
"1186 1430 LINE",
"1165 1430 LINE",
"211 410 LINE",
"189 361 LINE"
);
},
{
closed = 1;
nodes = (
"1265 0 LINE",
"581 794 LINE",
"535 745 LINE",
"1172 0 LINE"
);
}
);
width = 1301;
},
{
anchors = (
{
name = bottom;
position = "{741, 0}";
},
{
name = top;
position = "{741, 1430}";
}
);
background = {
anchors = (
{
name = bottom;
position = "{741, 0}";
},
{
name = top;
position = "{741, 1430}";
}
);
paths = (
{
closed = 1;
nodes = (
"522 0 LINE",
"522 1437 LINE",
"135 1437 LINE",
"135 0 LINE"
);
},
{
closed = 1;
nodes = (
"1440 1437 LINE",
"1160 1437 LINE",
"239 536 LINE",
"413 440 LINE"
);
},
{
closed = 1;
nodes = (
"1549 0 LINE",
"686 987 LINE",
"433 688 LINE",
"1055 0 LINE"
);
}
);
};
guideLines = (
{
angle = 50.0776;
position = "{893, 1108}";
}
);
layerId = "66066CCB-AAC9-4485-8967-3F6B885ABFA4";
paths = (
{
closed = 1;
nodes = (
"522 0 LINE",
"522 1437 LINE",
"135 1437 LINE",
"135 0 LINE"
);
},
{
closed = 1;
nodes = (
"1440 1437 LINE",
"1120 1437 LINE",
"299 536 LINE",
"513 440 LINE"
);
},
{
closed = 1;
nodes = (
"1549 0 LINE",
"864 909 LINE",
"593 698 LINE",
"1115 0 LINE"
);
}
);
width = 1482;
},
{
anchors = (
{
name = bottom;
position = "{683, 0}";
},
{
name = top;
position = "{683, 1430}";
}
);
background = {
anchors = (
{
name = bottom;
position = "{683, 0}";
},
{
name = top;
position = "{683, 1430}";
}
);
paths = (
{
closed = 1;
nodes = (
"251 0 LINE",
"251 1430 LINE",
"168 1430 LINE",
"168 0 LINE"
);
},
{
closed = 1;
nodes = (
"1171 1430 LINE",
"1079 1430 LINE",
"229 585 LINE",
"228 492 LINE"
);
},
{
closed = 1;
nodes = (
"1236 0 LINE",
"521 823 LINE",
"456 745 LINE",
"1103 0 LINE"
);
}
);
};
layerId = "B71E0DD6-B640-4F5E-B48D-BF5E04BC2E71";
paths = (
{
closed = 1;
nodes = (
"251 0 LINE",
"251 1430 LINE",
"168 1430 LINE",
"168 0 LINE"
);
},
{
closed = 1;
nodes = (
"1171 1430 LINE",
"1079 1430 LINE",
"229 585 LINE",
"228 492 LINE"
);
},
{
closed = 1;
nodes = (
"1236 0 LINE",
"521 823 LINE",
"456 745 LINE",
"1103 0 LINE"
);
}
);
width = 1366;
}
);
leftKerningGroup = H;
note = K;
rightKerningGroup = K;
unicode = 004B;
},
{
color = 1;
glyphname = L;
lastChange = "2019-12-24 19:52:58 +0000";
layers = (
{
anchors = (
{
name = bottom;
position = "{528, 0}";
},
{
name = center;
position = "{258, 716}";
},
{
name = dot;
position = "{702, 734}";
},
{
name = ogonek;
position = "{895, 10}";
},
{
name = top;
position = "{348, 1430}";
},
{
name = topleft;
position = "{-19, 1430}";
},
{
name = topright;
position = "{796, 1430}";
}
);
background = {
paths = (
{
closed = 1;
nodes = (
"1288 440 LINE",
"1254 440 LINE",
"1254 354 LINE SMOOTH",
"1254 210 OFFCURVE",
"1212 126 OFFCURVE",
"1118 82 CURVE SMOOTH",
"1046 48 OFFCURVE",
"922 34 OFFCURVE",
"694 34 CURVE SMOOTH",
"494 34 LINE",
"494 1300 LINE",
"716 1300 LINE",
"716 1334 LINE",
"106 1334 LINE",
"106 1300 LINE",
"300 1300 LINE",
"300 34 LINE",
"106 34 LINE",
"106 0 LINE",
"1288 0 LINE"
);
}
);
};
layerId = "EA94BB3F-1054-4F03-AAB6-69C3B81B3CC3";
paths = (
{
closed = 1;
nodes = (
"934 0 LINE",
"934 36 LINE",
"257 36 LINE",
"350 13 LINE",
"350 1430 LINE",
"144 1430 LINE",
"144 0 LINE"
);
}
);
width = 970;
},
{
anchors = (
{
name = bottom;
position = "{402, 0}";
},
{
name = center;
position = "{172, 715}";
},
{
name = dot;
position = "{514, 695}";
},
{
name = ogonek;
position = "{740, 10}";
},
{
name = top;
position = "{252, 1430}";
},
{
name = topleft;
position = "{-14, 1430}";
},
{
name = topright;
position = "{700, 1430}";
}
);
layerId = "1A84AFAC-8532-492C-A52A-D2ACD869B7F8";
paths = (
{
closed = 1;
nodes = (
"768 0 LINE",
"768 26 LINE",
"176 26 LINE",
"204 14 LINE",
"204 1430 LINE",
"144 1430 LINE",
"144 0 LINE"
);
}
);
width = 803;
},
{
anchors = (
{
name = bottom;
position = "{567, 0}";
},
{
name = center;
position = "{317, 715}";
},
{
name = dot;
position = "{871, 744}";
},
{
name = ogonek;
position = "{1040, 10}";
},
{
name = top;
position = "{387, 1430}";
},
{
name = topleft;
position = "{-18, 1430}";
},
{
name = topright;
position = "{816, 1430}";
}
);
layerId = "16E03120-9D89-4B3A-B1E3-633A6E865927";
paths = (
{
closed = 1;
nodes = (
"1094 0 LINE",
"1094 51 LINE",
"187 51 LINE",
"480 24 LINE",
"480 1445 LINE",
"144 1445 LINE",
"144 0 LINE"
);
}
);
width = 1131;
},
{
anchors = (
{
name = bottom;
position = "{509, 0}";
},
{
name = center;
position = "{269, 716}";
},
{
name = dot;
position = "{778, 724}";
},
{
name = ogonek;
position = "{1050, 10}";
},
{
name = top;
position = "{329, 1445}";
},
{
name = topleft;
position = "{-18, 1445}";
},
{
name = topright;
position = "{887, 1445}";
}
);
background = {
paths = (
{
closed = 1;
nodes = (
"980 -15 LINE",
"980 51 LINE",
"103 51 LINE",
"396 9 LINE",
"396 1445 LINE",
"60 1445 LINE",
"60 -15 LINE"
);
}
);
};
layerId = "5EAC5215-9D4A-4BA0-8B26-A551FA1A966A";
paths = (
{
closed = 1;
nodes = (
"1107 0 LINE",
"1107 26 LINE",
"222 26 LINE",
"403 13 LINE",
"403 1445 LINE",
"143 1445 LINE",
"143 0 LINE"
);
}
);
width = 1142;
},
{
anchors = (
{
name = bottom;
position = "{492, 0}";
},
{
name = center;
position = "{227, 716}";
},
{
name = dot;
position = "{698, 716}";
},
{
name = ogonek;
position = "{963, 10}";
},
{
name = top;
position = "{333, 1430}";
},
{
name = topleft;
position = "{-19, 1430}";
},
{
name = topright;
position = "{850, 1438}";
}
);
background = {
paths = (
{
closed = 1;
nodes = (
"1258 440 LINE",
"1224 440 LINE",
"1224 354 LINE SMOOTH",
"1224 210 OFFCURVE",
"1182 126 OFFCURVE",
"1088 82 CURVE SMOOTH",
"1016 48 OFFCURVE",
"892 34 OFFCURVE",
"664 34 CURVE SMOOTH",
"464 34 LINE",
"464 1300 LINE",
"686 1300 LINE",
"686 1334 LINE",
"76 1334 LINE",
"76 1300 LINE",
"270 1300 LINE",
"270 34 LINE",
"76 34 LINE",
"76 0 LINE",
"1258 0 LINE"
);
}
);
};
layerId = "B4536172-55B8-4884-A498-BDE07D5884DA";
paths = (
{
closed = 1;
nodes = (
"1011 0 LINE",
"1011 18 LINE",
"212 18 LINE",
"317 9 LINE",
"317 1438 LINE",
"144 1438 LINE",
"144 0 LINE"
);
}
);
width = 1045;
},
{
anchors = (
{
name = bottom;
position = "{475, 0}";
},
{
name = center;
position = "{184, 715}";
},
{
name = dot;
position = "{588, 714}";
},
{
name = ogonek;
position = "{875, 10}";
},
{
name = top;
position = "{276, 1430}";
},
{
name = topleft;
position = "{-19, 1430}";
},
{
name = topright;
position = "{823, 1430}";
}
);
layerId = "09CD4194-2486-478D-AB32-B0AA8D4EDA22";
paths = (
{
closed = 1;
nodes = (
"914 0 LINE",
"914 10 LINE",
"202 10 LINE",
"230 4 LINE",
"230 1430 LINE",
"144 1430 LINE",
"144 0 LINE"
);
}
);
width = 948;
},
{
anchors = (
{
name = bottom;
position = "{692, 0}";
},
{
name = center;
position = "{342, 715}";
},
{
name = dot;
position = "{971, 813}";
},
{
name = ogonek;
position = "{1275.063, 10}";
},
{
name = top;
position = "{512, 1430}";
},
{
name = topleft;
position = "{-24.664, 1430}";
},
{
name = topright;
position = "{964, 1430}";
}
);
background = {
anchors = (
{
name = bottom;
position = "{618, 0}";
},
{
name = center;
position = "{618, 715}";
},
{
name = dot;
position = "{618, 0}";
},
{
name = ogonek;
position = "{1110, 10}";
},
{
name = top;
position = "{618, 1430}";
},
{
name = topleft;
position = "{12, 1430}";
},
{
name = topright;
position = "{1182, 1430}";
}
);
paths = (
{
closed = 1;
nodes = (
"1184 0 LINE",
"1184 171 LINE",
"225 171 LINE",
"555 23 LINE",
"555 1436 LINE",
"165 1436 LINE",
"165 0 LINE"
);
}
);
};
layerId = "66066CCB-AAC9-4485-8967-3F6B885ABFA4";
paths = (
{
closed = 1;
nodes = (
"1254 0 LINE",
"1254 171 LINE",
"225 171 LINE",
"555 23 LINE",
"555 1436 LINE",
"165 1436 LINE",
"165 0 LINE"
);
}
);
width = 1384;
},
{
anchors = (
{
name = bottom;
position = "{533, 0}";
},
{
name = center;
position = "{203, 715}";
},
{
name = dot;
position = "{662, 775}";
},
{
name = ogonek;
position = "{982.094, 10}";
},
{
name = top;
position = "{333, 1430}";
},
{
name = topleft;
position = "{-18.997, 1430}";
},
{
name = topright;
position = "{746, 1430}";
}
);
background = {
anchors = (
{
name = bottom;
position = "{533, 0}";
},
{
name = center;
position = "{533, 715}";
},
{
name = dot;
position = "{533, 0}";
},
{
name = ogonek;
position = "{982.094, 10}";
},
{
name = top;
position = "{533, 1430}";
},
{
name = topleft;
position = "{-18.997, 1430}";
},
{
name = topright;
position = "{1046, 1430}";
}
);
paths = (
{
closed = 1;
nodes = (
"935 0 LINE",
"935 77 LINE",
"206 77 LINE",
"256 15 LINE",
"256 1430 LINE",
"168 1430 LINE",
"168 0 LINE"
);
}
);
};
layerId = "B71E0DD6-B640-4F5E-B48D-BF5E04BC2E71";
paths = (
{
closed = 1;
nodes = (
"935 0 LINE",
"935 77 LINE",
"206 77 LINE",
"256 15 LINE",
"256 1430 LINE",
"168 1430 LINE",
"168 0 LINE"
);
}
);
width = 1066;
}
);
leftKerningGroup = H;
note = L;
rightKerningGroup = L;
unicode = 004C;
},
{
glyphname = Lslash;
lastChange = "2019-12-24 21:15:46 +0000";
layers = (
{
background = {
paths = (
{
closed = 1;
nodes = (
"276 626 LINE",
"90 482 LINE",
"90 430 LINE",
"276 572 LINE",
"276 34 LINE",
"82 34 LINE",
"82 0 LINE",
"1264 0 LINE",
"1264 440 LINE",
"1230 440 LINE",
"1230 354 LINE SMOOTH",
"1230 210 OFFCURVE",
"1188 126 OFFCURVE",
"1094 82 CURVE SMOOTH",
"1022 48 OFFCURVE",
"900 34 OFFCURVE",
"670 34 CURVE SMOOTH",
"470 34 LINE",
"470 702 LINE",
"774 936 LINE",
"774 992 LINE",
"470 758 LINE",
"470 1300 LINE",
"692 1300 LINE",
"692 1334 LINE",
"82 1334 LINE",
"82 1300 LINE",
"276 1300 LINE"
);
}
);
};
components = (
{
name = L;
},
{
name = slashshortcomb.case;
transform = "{1, 0, 0, 1, -90, 6}";
}
);
layerId = "EA94BB3F-1054-4F03-AAB6-69C3B81B3CC3";
width = 970;
},
{
components = (
{
name = L;
},
{
name = slashshortcomb.case;
transform = "{1, 0, 0, 1, -96, 5}";
}
);
layerId = "1A84AFAC-8532-492C-A52A-D2ACD869B7F8";
width = 803;
},
{
components = (
{
name = L;
},
{
name = slashshortcomb.case;
transform = "{1, 0, 0, 1, -89, 5}";
}
);
layerId = "16E03120-9D89-4B3A-B1E3-633A6E865927";
width = 1131;
},
{
components = (
{
name = L;
},
{
name = slashshortcomb.case;
transform = "{1, 0, 0, 1, -120, -20}";
}
);
layerId = "5EAC5215-9D4A-4BA0-8B26-A551FA1A966A";
width = 1142;
},
{
background = {
paths = (
{
closed = 1;
nodes = (
"276 626 LINE",
"90 482 LINE",
"90 430 LINE",
"276 572 LINE",
"276 34 LINE",
"82 34 LINE",
"82 0 LINE",
"1264 0 LINE",
"1264 440 LINE",
"1230 440 LINE",
"1230 354 LINE SMOOTH",
"1230 210 OFFCURVE",
"1188 126 OFFCURVE",
"1094 82 CURVE SMOOTH",
"1022 48 OFFCURVE",
"900 34 OFFCURVE",
"670 34 CURVE SMOOTH",
"470 34 LINE",
"470 702 LINE",
"774 936 LINE",
"774 992 LINE",
"470 758 LINE",
"470 1300 LINE",
"692 1300 LINE",
"692 1334 LINE",
"82 1334 LINE",
"82 1300 LINE",
"276 1300 LINE"
);
}
);
};
components = (
{
name = L;
},
{
name = slashshortcomb.case;
transform = "{1, 0, 0, 1, -102, -5}";
}
);
layerId = "B4536172-55B8-4884-A498-BDE07D5884DA";
width = 1045;
},
{
components = (
{
name = L;
},
{
name = slashshortcomb.case;
transform = "{1, 0, 0, 1, -79, -4}";
}
);
layerId = "09CD4194-2486-478D-AB32-B0AA8D4EDA22";
width = 948;
},
{
background = {
components = (
{
name = L;
},
{
name = slashshortcomb;
transform = "{1, 0, 0, 1, 169, 5}";
}
);
};
components = (
{
name = L;
},
{
name = slashshortcomb.case;
transform = "{1, 0, 0, 1, -75, 6}";
}
);
layerId = "66066CCB-AAC9-4485-8967-3F6B885ABFA4";
width = 1384;
},
{
background = {
components = (
{
name = L;
},
{
name = slashshortcomb;
transform = "{1, 0, 0, 1, 246, 5}";
}
);
};
components = (
{
name = L;
},
{
name = slashshortcomb.case;
transform = "{1, 0, 0, 1, -84, -21}";
}
);
layerId = "B71E0DD6-B640-4F5E-B48D-BF5E04BC2E71";
width = 1066;
}
);
leftKerningGroup = H;
note = Lslash;
rightKerningGroup = L;
unicode = 0141;
},
{
color = 1;
glyphname = M;
lastChange = "2019-12-24 19:38:52 +0000";
layers = (
{
anchors = (
{
name = bottom;
position = "{801, 0}";
},
{
name = top;
position = "{801, 1430}";
}
);
background = {
paths = (
{
closed = 1;
nodes = (
"180 0 LINE",
"180 1304 LINE",
"710 58 LINE",
"1252 1340 LINE",
"1252 0 LINE",
"1458 0 LINE",
"1458 1430 LINE",
"1252 1430 LINE",
"800 368 LINE",
"350 1430 LINE",
"144 1430 LINE",
"144 0 LINE"
);
}
);
};
layerId = "EA94BB3F-1054-4F03-AAB6-69C3B81B3CC3";
paths = (
{
closed = 1;
nodes = (
"180 0 LINE",
"180 1357 LINE",
"159 1353 LINE",
"710 58 LINE",
"1273 1390 LINE",
"1252 1393 LINE",
"1252 0 LINE",
"1458 0 LINE",
"1458 1430 LINE",
"1252 1430 LINE",
"788 340 LINE",
"815 333 LINE",
"350 1430 LINE",
"144 1430 LINE",
"144 0 LINE"
);
}
);
width = 1602;
},
{
anchors = (
{
name = bottom;
position = "{746, 0}";
},
{
name = top;
position = "{746, 1430}";
}
);
guideLines = (
{
angle = 112.9199;
position = "{367, 856}";
},
{
angle = 247.1086;
position = "{965, 711}";
},
{
angle = 111.5953;
position = "{511, 730}";
},
{
angle = 248.2128;
position = "{1064, 730}";
},
{
angle = 68.3561;
position = "{1024, 689}";
},
{
angle = -67.1343;
position = "{447, 712}";
}
);
layerId = "1A84AFAC-8532-492C-A52A-D2ACD869B7F8";
paths = (
{
closed = 1;
nodes = (
"170 0 LINE",
"170 1417 LINE",
"152 1413 LINE",
"749 76 LINE",
"1305 1404 LINE",
"1288 1407 LINE",
"1288 0 LINE",
"1348 0 LINE",
"1348 1430 LINE",
"1288 1430 LINE",
"756 168 LINE",
"783 186 LINE",
"228 1430 LINE",
"144 1430 LINE",
"144 0 LINE"
);
}
);
width = 1492;
},
{
anchors = (
{
name = bottom;
position = "{902, 0}";
},
{
name = top;
position = "{902, 1430}";
}
);
layerId = "16E03120-9D89-4B3A-B1E3-633A6E865927";
paths = (
{
closed = 1;
nodes = (
"228 0 LINE",
"228 1386 LINE",
"188 1204 LINE",
"817 1 LINE",
"1455 1298 LINE",
"1334 1146 LINE",
"1334 0 LINE",
"1660 0 LINE",
"1660 1445 LINE",
"1437 1445 LINE",
"870 289 LINE",
"940 369 LINE",
"377 1445 LINE",
"144 1445 LINE",
"144 0 LINE"
);
}
);
width = 1804;
},
{
anchors = (
{
name = bottom;
position = "{865, 0}";
},
{
name = top;
position = "{865, 1430}";
}
);
layerId = "5EAC5215-9D4A-4BA0-8B26-A551FA1A966A";
paths = (
{
closed = 1;
nodes = (
"205 0 LINE",
"205 1386 LINE",
"185 1346 LINE",
"784 31 LINE",
"1392 1398 LINE",
"1251 1418 LINE",
"1251 0 LINE",
"1587 0 LINE",
"1587 1445 LINE",
"1260 1445 LINE",
"789 338 LINE",
"910 408 LINE",
"470 1445 LINE",
"143 1445 LINE",
"143 0 LINE"
);
}
);
width = 1730;
},
{
anchors = (
{
name = bottom;
position = "{837, 0}";
},
{
name = top;
position = "{837, 1430}";
}
);
background = {
paths = (
{
closed = 1;
nodes = (
"150 0 LINE",
"150 1304 LINE",
"680 58 LINE",
"1222 1340 LINE",
"1222 0 LINE",
"1428 0 LINE",
"1428 1430 LINE",
"1222 1430 LINE",
"770 368 LINE",
"320 1430 LINE",
"114 1430 LINE",
"114 0 LINE"
);
}
);
};
layerId = "B4536172-55B8-4884-A498-BDE07D5884DA";
paths = (
{
closed = 1;
nodes = (
"232 0 LINE",
"232 1402 LINE",
"169 1380 LINE",
"792 14 LINE",
"1395 1401 LINE",
"1315 1403 LINE",
"1315 0 LINE",
"1530 0 LINE",
"1530 1438 LINE",
"1325 1438 LINE",
"812 231 LINE",
"877 266 LINE",
"368 1438 LINE",
"144 1438 LINE",
"144 0 LINE"
);
}
);
width = 1673;
},
{
anchors = (
{
name = bottom;
position = "{851, 0}";
},
{
name = top;
position = "{851, 1430}";
}
);
guideLines = (
{
angle = 112.9199;
position = "{508, 856}";
},
{
angle = 247.1086;
position = "{1106, 711}";
},
{
angle = 111.5953;
position = "{652, 730}";
},
{
angle = 248.2128;
position = "{1205, 730}";
},
{
angle = 68.3561;
position = "{1165, 689}";
},
{
angle = -67.1343;
position = "{588, 712}";
}
);
layerId = "09CD4194-2486-478D-AB32-B0AA8D4EDA22";
paths = (
{
closed = 1;
nodes = (
"157 0 LINE",
"157 1417 LINE",
"155 1413 LINE",
"842 -3 LINE",
"1480 1404 LINE",
"1462 1387 LINE",
"1462 0 LINE",
"1555 0 LINE",
"1555 1430 LINE",
"1468 1430 LINE",
"879 132 LINE",
"891 148 LINE",
"269 1430 LINE",
"147 1430 LINE",
"147 0 LINE"
);
}
);
width = 1702;
},
{
anchors = (
{
name = bottom;
position = "{969, 0}";
},
{
name = top;
position = "{969, 1430}";
}
);
background = {
anchors = (
{
name = bottom;
position = "{1009, 0}";
},
{
name = top;
position = "{1009, 1430}";
}
);
paths = (
{
closed = 1;
nodes = (
"325 0 LINE",
"325 1473 LINE",
"245 1079 LINE",
"921 -9 LINE",
"1597 1173 LINE",
"1572 1245 LINE",
"1436 1060 LINE",
"1436 0 LINE",
"1812 0 LINE",
"1812 1437 LINE",
"1571 1437 LINE",
"753 2 LINE",
"1089 422 LINE",
"455 1437 LINE",
"205 1437 LINE",
"205 0 LINE"
);
}
);
};
layerId = "66066CCB-AAC9-4485-8967-3F6B885ABFA4";
paths = (
{
closed = 1;
nodes = (
"465 0 LINE",
"465 1133 LINE",
"275 1079 LINE",
"931 -9 LINE",
"1557 1173 LINE",
"1396 1060 LINE",
"1396 0 LINE",
"1772 0 LINE",
"1772 1437 LINE",
"1361 1437 LINE",
"792 373 LINE",
"1089 422 LINE",
"485 1437 LINE",
"165 1437 LINE",
"165 0 LINE"
);
}
);
width = 1937;
},
{
anchors = (
{
name = bottom;
position = "{853, 0}";
},
{
name = top;
position = "{853, 1430}";
}
);
background = {
anchors = (
{
name = bottom;
position = "{853, 0}";
},
{
name = top;
position = "{853, 1430}";
}
);
paths = (
{
closed = 1;
nodes = (
"251 0 LINE",
"251 1405 LINE",
"211 1398 LINE",
"853 85 LINE",
"1495 1399 LINE",
"1455 1405 LINE",
"1455 0 LINE",
"1538 0 LINE",
"1538 1430 LINE",
"1405 1430 LINE",
"811 215 LINE",
"895 215 LINE",
"301 1430 LINE",
"168 1430 LINE",
"168 0 LINE"
);
}
);
};
guideLines = (
{
angle = 112.9199;
position = "{436, 856}";
},
{
angle = 247.1086;
position = "{1034, 711}";
},
{
angle = 111.5953;
position = "{580, 730}";
},
{
angle = 248.2128;
position = "{1133, 730}";
},
{
angle = 68.3561;
position = "{1093, 689}";
},
{
angle = -67.1343;
position = "{516, 712}";
}
);
layerId = "B71E0DD6-B640-4F5E-B48D-BF5E04BC2E71";
paths = (
{
closed = 1;
nodes = (
"251 0 LINE",
"251 1405 LINE",
"211 1398 LINE",
"853 85 LINE",
"1495 1399 LINE",
"1455 1405 LINE",
"1455 0 LINE",
"1538 0 LINE",
"1538 1430 LINE",
"1405 1430 LINE",
"811 215 LINE",
"895 215 LINE",
"301 1430 LINE",
"168 1430 LINE",
"168 0 LINE"
);
}
);
width = 1706;
}
);
leftKerningGroup = M;
note = M;
rightKerningGroup = M;
unicode = 004D;
},
{
glyphname = N;
lastChange = "2019-12-24 19:38:52 +0000";
layers = (
{
anchors = (
{
name = bottom;
position = "{671, 0}";
},
{
name = top;
position = "{671, 1430}";
}
);
background = {
paths = (
{
closed = 1;
nodes = (
"42 36 LINE",
"42 0 LINE",
"506 0 LINE",
"506 36 LINE",
"446 36 LINE SMOOTH",
"292 36 OFFCURVE",
"284 50 OFFCURVE",
"284 264 CURVE SMOOTH",
"284 1330 LINE",
"1338 -10 LINE",
"1352 -10 LINE",
"1352 1216 LINE SMOOTH",
"1352 1394 OFFCURVE",
"1352 1394 OFFCURVE",
"1500 1394 CURVE SMOOTH",
"1560 1394 LINE",
"1560 1430 LINE",
"1100 1430 LINE",
"1100 1394 LINE",
"1160 1394 LINE SMOOTH",
"1314 1394 OFFCURVE",
"1318 1392 OFFCURVE",
"1318 1216 CURVE SMOOTH",
"1318 376 LINE",
"484 1430 LINE",
"42 1430 LINE",
"42 1394 LINE",
"212 1394 LINE",
"250 1368 LINE",
"250 264 LINE SMOOTH",
"250 108 OFFCURVE",
"250 102 OFFCURVE",
"230 70 CURVE",
"212 46 OFFCURVE",
"188 36 OFFCURVE",
"112 36 CURVE SMOOTH"
);
}
);
};
layerId = "EA94BB3F-1054-4F03-AAB6-69C3B81B3CC3";
paths = (
{
closed = 1;
nodes = (
"176 0 LINE",
"176 1255 LINE",
"157 1185 LINE",
"1103 0 LINE",
"1198 0 LINE",
"1198 1430 LINE",
"1166 1430 LINE",
"1166 179 LINE",
"1188 245 LINE",
"243 1430 LINE",
"144 1430 LINE",
"144 0 LINE"
);
}
);
width = 1342;
},
{
anchors = (
{
name = bottom;
position = "{695, 0}";
},
{
name = top;
position = "{695, 1430}";
}
);
layerId = "1A84AFAC-8532-492C-A52A-D2ACD869B7F8";
paths = (
{
closed = 1;
nodes = (
"170 5 LINE",
"170 1413 LINE",
"149 1417 LINE",
"1173 0 LINE",
"1246 0 LINE",
"1246 1430 LINE",
"1220 1430 LINE",
"1220 5 LINE",
"1238 24 LINE",
"228 1430 LINE",
"144 1430 LINE",
"144 5 LINE"
);
}
);
width = 1390;
},
{
anchors = (
{
name = bottom;
position = "{751, 0}";
},
{
name = top;
position = "{751, 1430}";
}
);
layerId = "16E03120-9D89-4B3A-B1E3-633A6E865927";
paths = (
{
closed = 1;
nodes = (
"236 0 LINE",
"236 1310 LINE",
"170 1091 LINE",
"1342 0 LINE",
"1358 0 LINE",
"1358 1445 LINE",
"1276 1445 LINE",
"1276 109 LINE",
"1345 346 LINE",
"164 1445 LINE",
"144 1445 LINE",
"154 0 LINE"
);
}
);
width = 1502;
},
{
anchors = (
{
name = bottom;
position = "{746, 0}";
},
{
name = top;
position = "{746, 1430}";
}
);
layerId = "5EAC5215-9D4A-4BA0-8B26-A551FA1A966A";
paths = (
{
closed = 1;
nodes = (
"206 -15 LINE",
"206 1310 LINE",
"160 1110 LINE",
"1312 -15 LINE",
"1348 -15 LINE",
"1348 1445 LINE",
"1286 1445 LINE",
"1286 94 LINE",
"1332 314 LINE",
"174 1445 LINE",
"144 1445 LINE",
"144 -15 LINE"
);
}
);
width = 1492;
},
{
anchors = (
{
name = bottom;
position = "{728, 0}";
},
{
name = top;
position = "{728, 1430}";
}
);
background = {
paths = (
{
closed = 1;
nodes = (
"-5 36 LINE",
"-5 0 LINE",
"459 0 LINE",
"459 36 LINE",
"399 36 LINE SMOOTH",
"245 36 OFFCURVE",
"237 50 OFFCURVE",
"237 264 CURVE SMOOTH",
"237 1330 LINE",
"1291 -10 LINE",
"1305 -10 LINE",
"1305 1216 LINE SMOOTH",
"1305 1394 OFFCURVE",
"1305 1394 OFFCURVE",
"1453 1394 CURVE SMOOTH",
"1513 1394 LINE",
"1513 1430 LINE",
"1053 1430 LINE",
"1053 1394 LINE",
"1113 1394 LINE SMOOTH",
"1267 1394 OFFCURVE",
"1271 1392 OFFCURVE",
"1271 1216 CURVE SMOOTH",
"1271 376 LINE",
"437 1430 LINE",
"-5 1430 LINE",
"-5 1394 LINE",
"165 1394 LINE",
"203 1368 LINE",
"203 264 LINE SMOOTH",
"203 108 OFFCURVE",
"203 102 OFFCURVE",
"183 70 CURVE",
"165 46 OFFCURVE",
"141 36 OFFCURVE",
"65 36 CURVE SMOOTH"
);
}
);
};
layerId = "B4536172-55B8-4884-A498-BDE07D5884DA";
paths = (
{
closed = 1;
nodes = (
"180 -8 LINE",
"180 1358 LINE",
"154 1220 LINE",
"1292 -20 LINE",
"1312 -20 LINE",
"1312 1438 LINE",
"1276 1438 LINE",
"1276 100 LINE",
"1300 212 LINE",
"160 1453 LINE",
"144 1453 LINE",
"144 -8 LINE"
);
}
);
width = 1456;
},
{
anchors = (
{
name = bottom;
position = "{710, 0}";
},
{
name = top;
position = "{710, 1430}";
}
);
layerId = "09CD4194-2486-478D-AB32-B0AA8D4EDA22";
paths = (
{
closed = 1;
nodes = (
"154 0 LINE",
"154 1405 LINE",
"148 1329 LINE",
"1272 -24 LINE",
"1275 -24 LINE",
"1275 1430 LINE",
"1265 1430 LINE",
"1265 105 LINE",
"1268 110 LINE",
"146 1460 LINE",
"144 1460 LINE",
"144 0 LINE"
);
}
);
width = 1419;
},
{
anchors = (
{
name = bottom;
position = "{799, 0}";
},
{
name = top;
position = "{799, 1430}";
}
);
background = {
anchors = (
{
name = bottom;
position = "{899, 0}";
},
{
name = top;
position = "{899, 1430}";
}
);
paths = (
{
closed = 1;
nodes = (
"381 0 LINE",
"381 1360 LINE",
"265 954 LINE",
"1529 0 LINE",
"1545 0 LINE",
"1545 1437 LINE",
"1426 1437 LINE",
"1426 45 LINE",
"1546 470 LINE",
"273 1437 LINE",
"252 1437 LINE",
"265 0 LINE"
);
}
);
};
layerId = "66066CCB-AAC9-4485-8967-3F6B885ABFA4";
paths = (
{
closed = 1;
nodes = (
"441 0 LINE",
"441 960 LINE",
"235 1054 LINE",
"1159 0 LINE",
"1465 0 LINE",
"1465 1437 LINE",
"1166 1437 LINE",
"1166 345 LINE",
"1346 370 LINE",
"433 1437 LINE",
"132 1437 LINE",
"145 0 LINE"
);
}
);
width = 1597;
},
{
anchors = (
{
name = bottom;
position = "{788, 0}";
},
{
name = top;
position = "{788, 1430}";
}
);
background = {
anchors = (
{
name = bottom;
position = "{788, 0}";
},
{
name = top;
position = "{788, 1430}";
}
);
paths = (
{
closed = 1;
nodes = (
"251 4 LINE",
"251 1381 LINE",
"219 1359 LINE",
"1291 0 LINE",
"1407 0 LINE",
"1407 1430 LINE",
"1324 1430 LINE",
"1324 49 LINE",
"1344 91 LINE",
"294 1430 LINE",
"168 1430 LINE",
"168 4 LINE"
);
}
);
};
layerId = "B71E0DD6-B640-4F5E-B48D-BF5E04BC2E71";
paths = (
{
closed = 1;
nodes = (
"251 0 LINE",
"251 1381 LINE",
"219 1359 LINE",
"1291 0 LINE",
"1407 0 LINE",
"1407 1430 LINE",
"1324 1430 LINE",
"1324 49 LINE",
"1344 91 LINE",
"294 1430 LINE",
"168 1430 LINE",
"168 0 LINE"
);
}
);
width = 1575;
}
);
leftKerningGroup = H;
leftMetricsKey = H;
note = N;
rightKerningGroup = H;
rightMetricsKey = H;
unicode = 004E;
},
{
color = 1;
glyphname = Eng;
lastChange = "2019-12-18 20:37:55 +0000";
layers = (
{
background = {
paths = (
{
closed = 1;
nodes = (
"176 0 LINE",
"176 1162 LINE",
"1029 92 LINE SMOOTH",
"1094 10 OFFCURVE",
"1125 -28 OFFCURVE",
"1125 -142 CURVE SMOOTH",
"1125 -244 OFFCURVE",
"1101 -366 OFFCURVE",
"1008 -366 CURVE SMOOTH",
"998 -366 LINE",
"986 -366 LINE SMOOTH",
"897 -366 OFFCURVE",
"826 -310 OFFCURVE",
"761 -199 CURVE",
"761 -308 LINE",
"791 -348 OFFCURVE",
"853 -396 OFFCURVE",
"999 -396 CURVE SMOOTH",
"1141 -396 OFFCURVE",
"1198 -254 OFFCURVE",
"1198 -112 CURVE SMOOTH",
"1198 1430 LINE",
"1166 1430 LINE",
"1166 272 LINE",
"243 1430 LINE",
"144 1430 LINE",
"144 0 LINE"
);
}
);
};
layerId = "EA94BB3F-1054-4F03-AAB6-69C3B81B3CC3";
paths = (
{
closed = 1;
nodes = (
"1154 -396 OFFCURVE",
"1198 -254 OFFCURVE",
"1198 -112 CURVE SMOOTH",
"1198 1430 LINE",
"1166 1430 LINE",
"1166 179 LINE",
"1184 250 LINE",
"243 1430 LINE",
"144 1430 LINE",
"144 0 LINE",
"176 0 LINE",
"176 1255 LINE",
"169 1170 LINE",
"1029 92 LINE SMOOTH",
"1098 5 OFFCURVE",
"1125 -12 OFFCURVE",
"1125 -146 CURVE SMOOTH",
"1125 -308 OFFCURVE",
"1080 -366 OFFCURVE",
"987 -366 CURVE SMOOTH",
"894 -366 OFFCURVE",
"824 -308 OFFCURVE",
"761 -199 CURVE",
"761 -308 LINE",
"789 -351 OFFCURVE",
"876 -396 OFFCURVE",
"976 -396 CURVE SMOOTH"
);
}
);
width = 1351;
},
{
layerId = "1A84AFAC-8532-492C-A52A-D2ACD869B7F8";
paths = (
{
closed = 1;
nodes = (
"1160 -353 OFFCURVE",
"1246 -245 OFFCURVE",
"1246 -100 CURVE SMOOTH",
"1246 1430 LINE",
"1220 1430 LINE",
"1220 23 LINE",
"1236 28 LINE",
"228 1430 LINE",
"144 1430 LINE",
"144 0 LINE",
"170 0 LINE",
"170 1413 LINE",
"154 1410 LINE",
"1173 0 LINE SMOOTH",
"1200 -38 OFFCURVE",
"1210 -52 OFFCURVE",
"1210 -106 CURVE SMOOTH",
"1210 -285 OFFCURVE",
"1080 -318 OFFCURVE",
"1032 -318 CURVE SMOOTH",
"973 -318 OFFCURVE",
"902 -267 OFFCURVE",
"856 -193 CURVE",
"856 -257 LINE",
"909 -330 OFFCURVE",
"971 -353 OFFCURVE",
"1031 -353 CURVE SMOOTH"
);
}
);
width = 1399;
},
{
layerId = "16E03120-9D89-4B3A-B1E3-633A6E865927";
paths = (
{
closed = 1;
nodes = (
"1209 -411 OFFCURVE",
"1329 -311 OFFCURVE",
"1329 -112 CURVE SMOOTH",
"1329 1445 LINE",
"1167 1445 LINE",
"1167 276 LINE",
"1261 309 LINE",
"355 1445 LINE",
"145 1445 LINE",
"145 -15 LINE",
"307 -15 LINE",
"307 1052 LINE",
"279 1042 LINE",
"1044 83 LINE SMOOTH",
"1099 14 OFFCURVE",
"1126 -30 OFFCURVE",
"1126 -146 CURVE SMOOTH",
"1126 -298 OFFCURVE",
"1079 -351 OFFCURVE",
"1023 -351 CURVE SMOOTH",
"977 -351 OFFCURVE",
"880 -316 OFFCURVE",
"762 -92 CURVE",
"762 -300 LINE",
"793 -348 OFFCURVE",
"892 -411 OFFCURVE",
"1032 -411 CURVE SMOOTH"
);
}
);
width = 1482;
},
{
layerId = "5EAC5215-9D4A-4BA0-8B26-A551FA1A966A";
paths = (
{
closed = 1;
nodes = (
"1207 -411 OFFCURVE",
"1327 -311 OFFCURVE",
"1327 -112 CURVE SMOOTH",
"1327 1445 LINE",
"1165 1445 LINE",
"1165 276 LINE",
"1259 309 LINE",
"353 1445 LINE",
"143 1445 LINE",
"143 0 LINE",
"305 0 LINE",
"305 1052 LINE",
"277 1042 LINE",
"1042 83 LINE SMOOTH",
"1097 14 OFFCURVE",
"1124 -30 OFFCURVE",
"1124 -146 CURVE SMOOTH",
"1124 -298 OFFCURVE",
"1077 -351 OFFCURVE",
"1021 -351 CURVE SMOOTH",
"975 -351 OFFCURVE",
"878 -316 OFFCURVE",
"760 -92 CURVE",
"760 -300 LINE",
"791 -348 OFFCURVE",
"890 -411 OFFCURVE",
"1030 -411 CURVE SMOOTH"
);
}
);
width = 1480;
},
{
background = {
paths = (
{
closed = 1;
nodes = (
"146 0 LINE",
"146 1162 LINE",
"999 92 LINE SMOOTH",
"1064 10 OFFCURVE",
"1095 -28 OFFCURVE",
"1095 -142 CURVE SMOOTH",
"1095 -244 OFFCURVE",
"1071 -366 OFFCURVE",
"978 -366 CURVE SMOOTH",
"968 -366 LINE",
"956 -366 LINE SMOOTH",
"867 -366 OFFCURVE",
"796 -310 OFFCURVE",
"731 -199 CURVE",
"731 -308 LINE",
"761 -348 OFFCURVE",
"823 -396 OFFCURVE",
"969 -396 CURVE SMOOTH",
"1111 -396 OFFCURVE",
"1168 -254 OFFCURVE",
"1168 -112 CURVE SMOOTH",
"1168 1430 LINE",
"1136 1430 LINE",
"1136 272 LINE",
"213 1430 LINE",
"114 1430 LINE",
"114 0 LINE"
);
}
);
};
layerId = "B4536172-55B8-4884-A498-BDE07D5884DA";
paths = (
{
closed = 1;
nodes = (
"1199 -382 OFFCURVE",
"1302 -278 OFFCURVE",
"1302 -106 CURVE SMOOTH",
"1302 1438 LINE",
"1216 1438 LINE",
"1216 182 LINE",
"1266 208 LINE",
"251 1453 LINE",
"145 1453 LINE",
"145 0 LINE",
"231 0 LINE",
"231 1201 LINE",
"214 1186 LINE",
"1129 66 LINE SMOOTH",
"1165 22 OFFCURVE",
"1196 -18 OFFCURVE",
"1196 -126 CURVE SMOOTH",
"1196 -292 OFFCURVE",
"1109 -347 OFFCURVE",
"1042 -347 CURVE SMOOTH",
"990 -347 OFFCURVE",
"896 -307 OFFCURVE",
"819 -158 CURVE",
"819 -279 LINE",
"863 -339 OFFCURVE",
"946 -382 OFFCURVE",
"1046 -382 CURVE SMOOTH"
);
}
);
width = 1455;
},
{
layerId = "09CD4194-2486-478D-AB32-B0AA8D4EDA22";
paths = (
{
closed = 1;
nodes = (
"1191 -353 OFFCURVE",
"1277 -245 OFFCURVE",
"1277 -100 CURVE SMOOTH",
"1277 1430 LINE",
"1267 1430 LINE",
"1267 87 LINE",
"1273 106 LINE",
"148 1460 LINE",
"146 1460 LINE",
"146 0 LINE",
"156 0 LINE",
"156 1349 LINE",
"150 1330 LINE",
"1215 48 LINE SMOOTH",
"1238 20 OFFCURVE",
"1267 -10 OFFCURVE",
"1267 -106 CURVE SMOOTH",
"1267 -285 OFFCURVE",
"1141 -343 OFFCURVE",
"1063 -343 CURVE SMOOTH",
"1004 -343 OFFCURVE",
"913 -297 OFFCURVE",
"877 -223 CURVE",
"877 -257 LINE",
"934 -330 OFFCURVE",
"1002 -353 OFFCURVE",
"1062 -353 CURVE SMOOTH"
);
}
);
width = 1430;
},
{
background = {
paths = (
{
closed = 1;
nodes = (
"1275 -383 OFFCURVE",
"1393 -259 OFFCURVE",
"1393 -46 CURVE SMOOTH",
"1393 1437 LINE",
"1186 1437 LINE",
"1186 288 LINE",
"1393 350 LINE",
"365 1437 LINE",
"134 1437 LINE",
"134 -18 LINE",
"340 -18 LINE",
"340 1007 LINE",
"182 996 LINE",
"1062 98 LINE SMOOTH",
"1140 17 OFFCURVE",
"1144 11 OFFCURVE",
"1144 -79 CURVE SMOOTH",
"1144 -175 OFFCURVE",
"1128 -197 OFFCURVE",
"1055 -197 CURVE SMOOTH",
"950 -197 OFFCURVE",
"855 -93 OFFCURVE",
"769 100 CURVE",
"769 -242 LINE",
"835 -339 OFFCURVE",
"933 -383 OFFCURVE",
"1067 -383 CURVE SMOOTH"
);
}
);
};
layerId = "66066CCB-AAC9-4485-8967-3F6B885ABFA4";
paths = (
{
closed = 1;
nodes = (
"1295 -523 OFFCURVE",
"1465 -399 OFFCURVE",
"1465 -146 CURVE SMOOTH",
"1465 1437 LINE",
"1166 1437 LINE",
"1166 411 LINE",
"1276 451 LINE",
"433 1437 LINE",
"132 1437 LINE",
"145 0 LINE",
"441 0 LINE",
"441 988 LINE",
"329 946 LINE",
"1159 0 LINE SMOOTH",
"1201 -48 OFFCURVE",
"1209 -119 OFFCURVE",
"1209 -179 CURVE SMOOTH",
"1209 -315 OFFCURVE",
"1148 -337 OFFCURVE",
"1075 -337 CURVE SMOOTH",
"970 -337 OFFCURVE",
"875 -283 OFFCURVE",
"789 -190 CURVE",
"789 -442 LINE",
"855 -499 OFFCURVE",
"953 -523 OFFCURVE",
"1087 -523 CURVE SMOOTH"
);
}
);
width = 1535;
},
{
background = {
paths = (
{
closed = 1;
nodes = (
"1313 -344 OFFCURVE",
"1407 -238 OFFCURVE",
"1407 -46 CURVE SMOOTH",
"1407 1430 LINE",
"1324 1430 LINE",
"1324 90 LINE",
"1341 96 LINE",
"294 1430 LINE",
"168 1430 LINE",
"168 4 LINE",
"251 4 LINE",
"251 1345 LINE",
"234 1339 LINE",
"1259 41 LINE SMOOTH",
"1289 3 OFFCURVE",
"1321 -25 OFFCURVE",
"1321 -67 CURVE SMOOTH",
"1321 -208 OFFCURVE",
"1263 -263 OFFCURVE",
"1172 -263 CURVE SMOOTH",
"1084 -263 OFFCURVE",
"1013 -211 OFFCURVE",
"969 -183 CURVE",
"969 -276 LINE",
"1023 -309 OFFCURVE",
"1083 -344 OFFCURVE",
"1167 -344 CURVE SMOOTH"
);
}
);
};
layerId = "B71E0DD6-B640-4F5E-B48D-BF5E04BC2E71";
paths = (
{
closed = 1;
nodes = (
"1313 -344 OFFCURVE",
"1407 -238 OFFCURVE",
"1407 -46 CURVE SMOOTH",
"1407 1430 LINE",
"1324 1430 LINE",
"1324 90 LINE",
"1341 96 LINE",
"294 1430 LINE",
"168 1430 LINE",
"168 0 LINE",
"251 0 LINE",
"251 1345 LINE",
"234 1339 LINE",
"1259 41 LINE SMOOTH",
"1289 3 OFFCURVE",
"1321 -25 OFFCURVE",
"1321 -67 CURVE SMOOTH",
"1321 -208 OFFCURVE",
"1263 -263 OFFCURVE",
"1172 -263 CURVE SMOOTH",
"1084 -263 OFFCURVE",
"1013 -211 OFFCURVE",
"969 -183 CURVE",
"969 -276 LINE",
"1023 -309 OFFCURVE",
"1083 -344 OFFCURVE",
"1167 -344 CURVE SMOOTH"
);
}
);
width = 1579;
}
);
leftKerningGroup = Eng;
rightKerningGroup = Eng;
unicode = 014A;
},
{
glyphname = Ntilde;
lastChange = "2019-12-24 21:24:20 +0000";
layers = (
{
background = {
paths = (
{
closed = 1;
nodes = (
"20 34 LINE",
"20 0 LINE",
"454 0 LINE",
"454 34 LINE",
"398 34 LINE SMOOTH",
"254 34 OFFCURVE",
"246 46 OFFCURVE",
"246 246 CURVE SMOOTH",
"246 1240 LINE",
"1230 -10 LINE",
"1242 -10 LINE",
"1242 1134 LINE SMOOTH",
"1242 1300 OFFCURVE",
"1242 1300 OFFCURVE",
"1380 1300 CURVE SMOOTH",
"1436 1300 LINE",
"1436 1334 LINE",
"1008 1334 LINE",
"1008 1300 LINE",
"1064 1300 LINE SMOOTH",
"1208 1300 OFFCURVE",
"1210 1298 OFFCURVE",
"1210 1134 CURVE SMOOTH",
"1210 350 LINE",
"432 1334 LINE",
"20 1334 LINE",
"20 1300 LINE",
"180 1300 LINE",
"214 1276 LINE",
"214 246 LINE SMOOTH",
"214 100 OFFCURVE",
"214 96 OFFCURVE",
"196 66 CURVE",
"180 42 OFFCURVE",
"156 34 OFFCURVE",
"86 34 CURVE SMOOTH"
);
},
{
closed = 1;
nodes = (
"1008 1716 LINE",
"972 1638 OFFCURVE",
"950 1616 OFFCURVE",
"906 1616 CURVE SMOOTH",
"872 1616 OFFCURVE",
"838 1626 OFFCURVE",
"756 1664 CURVE",
"678 1696 OFFCURVE",
"640 1708 OFFCURVE",
"600 1708 CURVE SMOOTH",
"508 1708 OFFCURVE",
"440 1630 OFFCURVE",
"410 1494 CURVE",
"444 1494 LINE",
"464 1564 OFFCURVE",
"494 1592 OFFCURVE",
"542 1592 CURVE SMOOTH",
"564 1592 OFFCURVE",
"600 1582 OFFCURVE",
"636 1566 CURVE SMOOTH",
"770 1508 OFFCURVE",
"798 1498 OFFCURVE",
"838 1498 CURVE SMOOTH",
"932 1498 OFFCURVE",
"1002 1572 OFFCURVE",
"1042 1716 CURVE"
);
}
);
};
components = (
{
name = N;
},
{
name = tildecomb.case;
transform = "{1, 0, 0, 1, 293, 0}";
}
);
layerId = "EA94BB3F-1054-4F03-AAB6-69C3B81B3CC3";
width = 1342;
},
{
components = (
{
name = N;
},
{
name = tildecomb.case;
transform = "{1, 0, 0, 1, 340, 500}";
}
);
layerId = "1A84AFAC-8532-492C-A52A-D2ACD869B7F8";
width = 1390;
},
{
components = (
{
name = N;
},
{
name = tildecomb.case;
transform = "{1, 0, 0, 1, 352, 0}";
}
);
layerId = "16E03120-9D89-4B3A-B1E3-633A6E865927";
width = 1502;
},
{
components = (
{
name = N;
},
{
name = tildecomb.case;
transform = "{1, 0, 0, 1, 381, 0}";
}
);
layerId = "5EAC5215-9D4A-4BA0-8B26-A551FA1A966A";
width = 1492;
},
{
background = {
paths = (
{
closed = 1;
nodes = (
"20 34 LINE",
"20 0 LINE",
"454 0 LINE",
"454 34 LINE",
"398 34 LINE SMOOTH",
"254 34 OFFCURVE",
"246 46 OFFCURVE",
"246 246 CURVE SMOOTH",
"246 1240 LINE",
"1230 -10 LINE",
"1242 -10 LINE",
"1242 1134 LINE SMOOTH",
"1242 1300 OFFCURVE",
"1242 1300 OFFCURVE",
"1380 1300 CURVE SMOOTH",
"1436 1300 LINE",
"1436 1334 LINE",
"1008 1334 LINE",
"1008 1300 LINE",
"1064 1300 LINE SMOOTH",
"1208 1300 OFFCURVE",
"1210 1298 OFFCURVE",
"1210 1134 CURVE SMOOTH",
"1210 350 LINE",
"432 1334 LINE",
"20 1334 LINE",
"20 1300 LINE",
"180 1300 LINE",
"214 1276 LINE",
"214 246 LINE SMOOTH",
"214 100 OFFCURVE",
"214 96 OFFCURVE",
"196 66 CURVE",
"180 42 OFFCURVE",
"156 34 OFFCURVE",
"86 34 CURVE SMOOTH"
);
},
{
closed = 1;
nodes = (
"1008 1716 LINE",
"972 1638 OFFCURVE",
"950 1616 OFFCURVE",
"906 1616 CURVE SMOOTH",
"872 1616 OFFCURVE",
"838 1626 OFFCURVE",
"756 1664 CURVE",
"678 1696 OFFCURVE",
"640 1708 OFFCURVE",
"600 1708 CURVE SMOOTH",
"508 1708 OFFCURVE",
"440 1630 OFFCURVE",
"410 1494 CURVE",
"444 1494 LINE",
"464 1564 OFFCURVE",
"494 1592 OFFCURVE",
"542 1592 CURVE SMOOTH",
"564 1592 OFFCURVE",
"600 1582 OFFCURVE",
"636 1566 CURVE SMOOTH",
"770 1508 OFFCURVE",
"798 1498 OFFCURVE",
"838 1498 CURVE SMOOTH",
"932 1498 OFFCURVE",
"1002 1572 OFFCURVE",
"1042 1716 CURVE"
);
}
);
};
components = (
{
name = N;
},
{
name = tildecomb.case;
transform = "{1, 0, 0, 1, 351, 0}";
}
);
layerId = "B4536172-55B8-4884-A498-BDE07D5884DA";
width = 1456;
},
{
components = (
{
name = N;
},
{
name = tildecomb.case;
transform = "{1, 0, 0, 1, 355, 0}";
}
);
layerId = "09CD4194-2486-478D-AB32-B0AA8D4EDA22";
width = 1419;
},
{
background = {
components = (
{
name = N;
},
{
name = tildecomb;
transform = "{1, 0, 0, 1, 388, 510}";
}
);
};
components = (
{
name = N;
},
{
name = tildecomb.case;
transform = "{1, 0, 0, 1, 398, 0}";
}
);
layerId = "66066CCB-AAC9-4485-8967-3F6B885ABFA4";
width = 1597;
},
{
background = {
components = (
{
name = N;
},
{
name = tildecomb;
transform = "{1, 0, 0, 1, 418, 441}";
}
);
};
components = (
{
name = N;
},
{
name = tildecomb.case;
transform = "{1, 0, 0, 1, 418, 0}";
}
);
layerId = "B71E0DD6-B640-4F5E-B48D-BF5E04BC2E71";
width = 1575;
}
);
leftKerningGroup = H;
note = Ntilde;
rightKerningGroup = H;
unicode = 00D1;
},
{
color = 1;
glyphname = O;
lastChange = "2019-12-24 19:38:52 +0000";
layers = (
{
anchors = (
{
name = bottom;
position = "{758, 0}";
},
{
name = center;
position = "{758, 715}";
},
{
name = ogonek;
position = "{1364, 10}";
},
{
name = top;
position = "{758, 1430}";
},
{
name = topleft;
position = "{21, 1430}";
},
{
name = topright;
position = "{1495, 1430}";
}
);
background = {
paths = (
{
closed = 1;
nodes = (
"1153 -26 OFFCURVE",
"1445 296 OFFCURVE",
"1445 712 CURVE SMOOTH",
"1445 1120 OFFCURVE",
"1149 1460 OFFCURVE",
"759 1460 CURVE SMOOTH",
"375 1460 OFFCURVE",
"71 1122 OFFCURVE",
"71 712 CURVE SMOOTH",
"71 302 OFFCURVE",
"361 -26 OFFCURVE",
"759 -26 CURVE SMOOTH"
);
},
{
closed = 1;
nodes = (
"473 4 OFFCURVE",
"283 288 OFFCURVE",
"283 712 CURVE SMOOTH",
"283 1142 OFFCURVE",
"473 1430 OFFCURVE",
"759 1430 CURVE SMOOTH",
"1043 1430 OFFCURVE",
"1233 1142 OFFCURVE",
"1233 712 CURVE SMOOTH",
"1233 288 OFFCURVE",
"1043 4 OFFCURVE",
"759 4 CURVE SMOOTH"
);
}
);
};
layerId = "EA94BB3F-1054-4F03-AAB6-69C3B81B3CC3";
paths = (
{
closed = 1;
nodes = (
"1154 -26 OFFCURVE",
"1445 296 OFFCURVE",
"1445 712 CURVE SMOOTH",
"1445 1119 OFFCURVE",
"1149 1460 OFFCURVE",
"759 1460 CURVE SMOOTH",
"375 1460 OFFCURVE",
"71 1123 OFFCURVE",
"71 712 CURVE SMOOTH",
"71 302 OFFCURVE",
"362 -26 OFFCURVE",
"759 -26 CURVE SMOOTH"
);
},
{
closed = 1;
nodes = (
"473 4 OFFCURVE",
"283 288 OFFCURVE",
"283 712 CURVE SMOOTH",
"283 1142 OFFCURVE",
"473 1430 OFFCURVE",
"759 1430 CURVE SMOOTH",
"1043 1430 OFFCURVE",
"1233 1142 OFFCURVE",
"1233 712 CURVE SMOOTH",
"1233 288 OFFCURVE",
"1043 4 OFFCURVE",
"759 4 CURVE SMOOTH"
);
}
);
width = 1516;
},
{
anchors = (
{
name = bottom;
position = "{822, 0}";
},
{
name = center;
position = "{822, 715}";
},
{
name = ogonek;
position = "{1456, 10}";
},
{
name = top;
position = "{822, 1430}";
},
{
name = topleft;
position = "{50, 1430}";
},
{
name = topright;
position = "{1594, 1430}";
}
);
layerId = "16E03120-9D89-4B3A-B1E3-633A6E865927";
paths = (
{
closed = 1;
nodes = (
"1251 -41 OFFCURVE",
"1574 287 OFFCURVE",
"1574 712 CURVE SMOOTH",
"1574 1143 OFFCURVE",
"1240 1475 OFFCURVE",
"823 1475 CURVE SMOOTH",
"401 1475 OFFCURVE",
"70 1139 OFFCURVE",
"70 712 CURVE SMOOTH",
"70 288 OFFCURVE",
"394 -41 OFFCURVE",
"823 -41 CURVE SMOOTH"
);
},
{
closed = 1;
nodes = (
"586 19 OFFCURVE",
"412 302 OFFCURVE",
"412 712 CURVE SMOOTH",
"412 1121 OFFCURVE",
"585 1415 OFFCURVE",
"823 1415 CURVE SMOOTH",
"1060 1415 OFFCURVE",
"1232 1121 OFFCURVE",
"1232 712 CURVE SMOOTH",
"1232 303 OFFCURVE",
"1061 19 OFFCURVE",
"823 19 CURVE SMOOTH"
);
}
);
width = 1644;
},
{
anchors = (
{
name = bottom;
position = "{715, 0}";
},
{
name = center;
position = "{715, 715}";
},
{
name = ogonek;
position = "{1307, 10}";
},
{
name = top;
position = "{715, 1430}";
},
{
name = topleft;
position = "{-5, 1430}";
},
{
name = topright;
position = "{1435, 1430}";
}
);
background = {
anchors = (
{
name = bottom;
position = "{676, 0}";
},
{
name = center;
position = "{676, 715}";
},
{
name = ogonek;
position = "{1259, 10}";
},
{
name = top;
position = "{676, 1430}";
},
{
name = topleft;
position = "{-33, 1430}";
},
{
name = topright;
position = "{1385, 1430}";
}
);
paths = (
{
closed = 1;
nodes = (
"1037 -26 OFFCURVE",
"1303 264 OFFCURVE",
"1303 712 CURVE SMOOTH",
"1303 1166 OFFCURVE",
"1037 1460 OFFCURVE",
"676 1460 CURVE SMOOTH",
"315 1460 OFFCURVE",
"49 1166 OFFCURVE",
"49 712 CURVE SMOOTH",
"49 264 OFFCURVE",
"315 -26 OFFCURVE",
"676 -26 CURVE SMOOTH"
);
},
{
closed = 1;
nodes = (
"324 4 OFFCURVE",
"115 264 OFFCURVE",
"115 712 CURVE SMOOTH",
"115 1167 OFFCURVE",
"324 1430 OFFCURVE",
"676 1430 CURVE SMOOTH",
"1027 1430 OFFCURVE",
"1237 1167 OFFCURVE",
"1237 712 CURVE SMOOTH",
"1237 264 OFFCURVE",
"1026 4 OFFCURVE",
"676 4 CURVE SMOOTH"
);
}
);
};
layerId = "1A84AFAC-8532-492C-A52A-D2ACD869B7F8";
paths = (
{
closed = 1;
nodes = (
"1120 -6 OFFCURVE",
"1355 300 OFFCURVE",
"1355 715 CURVE SMOOTH",
"1355 1130 OFFCURVE",
"1119 1440 OFFCURVE",
"715 1440 CURVE SMOOTH",
"312 1440 OFFCURVE",
"75 1131 OFFCURVE",
"75 715 CURVE SMOOTH",
"75 301 OFFCURVE",
"309 -6 OFFCURVE",
"715 -6 CURVE SMOOTH"
);
},
{
closed = 1;
nodes = (
"378 36 OFFCURVE",
"151 320 OFFCURVE",
"151 718 CURVE SMOOTH",
"151 1122 OFFCURVE",
"385 1402 OFFCURVE",
"715 1410 CURVE",
"1045 1402 OFFCURVE",
"1279 1122 OFFCURVE",
"1279 718 CURVE SMOOTH",
"1279 320 OFFCURVE",
"1052 36 OFFCURVE",
"715 24 CURVE"
);
}
);
width = 1429;
},
{
anchors = (
{
name = bottom;
position = "{872, 0}";
},
{
name = center;
position = "{872, 715}";
},
{
name = ogonek;
position = "{1535, 10}";
},
{
name = top;
position = "{872, 1430}";
},
{
name = topleft;
position = "{62, 1430}";
},
{
name = topright;
position = "{1681, 1430}";
}
);
background = {
paths = (
{
closed = 1;
nodes = (
"1324 -41 OFFCURVE",
"1624 285 OFFCURVE",
"1624 747 CURVE SMOOTH",
"1624 1165 OFFCURVE",
"1334 1475 OFFCURVE",
"891 1475 CURVE SMOOTH",
"439 1475 OFFCURVE",
"120 1126 OFFCURVE",
"120 687 CURVE SMOOTH",
"120 260 OFFCURVE",
"410 -41 OFFCURVE",
"851 -41 CURVE SMOOTH"
);
},
{
closed = 1;
nodes = (
"594 -11 OFFCURVE",
"420 278 OFFCURVE",
"420 687 CURVE SMOOTH",
"420 1109 OFFCURVE",
"606 1445 OFFCURVE",
"891 1445 CURVE SMOOTH",
"1149 1445 OFFCURVE",
"1324 1146 OFFCURVE",
"1324 747 CURVE SMOOTH",
"1324 303 OFFCURVE",
"1149 -11 OFFCURVE",
"851 -11 CURVE SMOOTH"
);
}
);
};
layerId = "5EAC5215-9D4A-4BA0-8B26-A551FA1A966A";
paths = (
{
closed = 1;
nodes = (
"1263 -26 OFFCURVE",
"1580 313 OFFCURVE",
"1573 738 CURVE SMOOTH",
"1565 1169 OFFCURVE",
"1226 1489 OFFCURVE",
"809 1474 CURVE SMOOTH",
"387 1459 OFFCURVE",
"61 1112 OFFCURVE",
"69 685 CURVE SMOOTH",
"77 260 OFFCURVE",
"406 -56 OFFCURVE",
"835 -41 CURVE SMOOTH"
);
},
{
closed = 1;
nodes = (
"597 -19 OFFCURVE",
"376 286 OFFCURVE",
"369 696 CURVE SMOOTH",
"362 1105 OFFCURVE",
"571 1436 OFFCURVE",
"809 1444 CURVE SMOOTH",
"1046 1452 OFFCURVE",
"1266 1136 OFFCURVE",
"1273 727 CURVE SMOOTH",
"1280 319 OFFCURVE",
"1072 -3 OFFCURVE",
"834 -11 CURVE SMOOTH"
);
}
);
width = 1642;
},
{
anchors = (
{
name = bottom;
position = "{823, 0}";
},
{
name = center;
position = "{823, 715}";
},
{
name = ogonek;
position = "{1286, 10}";
},
{
name = top;
position = "{823, 1430}";
},
{
name = topleft;
position = "{39, 1430}";
},
{
name = topright;
position = "{1607, 1430}";
}
);
background = {
paths = (
{
closed = 1;
nodes = (
"1152 -26 OFFCURVE",
"1444 296 OFFCURVE",
"1444 712 CURVE SMOOTH",
"1444 1120 OFFCURVE",
"1148 1460 OFFCURVE",
"758 1460 CURVE SMOOTH",
"374 1460 OFFCURVE",
"70 1122 OFFCURVE",
"70 712 CURVE SMOOTH",
"70 302 OFFCURVE",
"360 -26 OFFCURVE",
"758 -26 CURVE SMOOTH"
);
},
{
closed = 1;
nodes = (
"472 4 OFFCURVE",
"282 288 OFFCURVE",
"282 712 CURVE SMOOTH",
"282 1142 OFFCURVE",
"472 1430 OFFCURVE",
"758 1430 CURVE SMOOTH",
"1042 1430 OFFCURVE",
"1232 1142 OFFCURVE",
"1232 712 CURVE SMOOTH",
"1232 288 OFFCURVE",
"1042 4 OFFCURVE",
"758 4 CURVE SMOOTH"
);
}
);
};
layerId = "B4536172-55B8-4884-A498-BDE07D5884DA";
paths = (
{
closed = 1;
nodes = (
"1218 -27 OFFCURVE",
"1529 305 OFFCURVE",
"1525 727 CURVE SMOOTH",
"1521 1150 OFFCURVE",
"1205 1475 OFFCURVE",
"792 1467 CURVE SMOOTH",
"371 1459 OFFCURVE",
"66 1114 OFFCURVE",
"70 700 CURVE SMOOTH",
"74 288 OFFCURVE",
"385 -41 OFFCURVE",
"805 -34 CURVE SMOOTH"
);
},
{
closed = 1;
nodes = (
"519 -16 OFFCURVE",
"270 300 OFFCURVE",
"266 707 CURVE SMOOTH",
"262 1115 OFFCURVE",
"511 1441 OFFCURVE",
"792 1445 CURVE SMOOTH",
"1073 1449 OFFCURVE",
"1326 1132 OFFCURVE",
"1329 723 CURVE SMOOTH",
"1332 314 OFFCURVE",
"1091 -8 OFFCURVE",
"804 -12 CURVE SMOOTH"
);
}
);
width = 1595;
},
{
anchors = (
{
name = bottom;
position = "{774, 0}";
},
{
name = center;
position = "{774, 715}";
},
{
name = ogonek;
position = "{1036, 10}";
},
{
name = top;
position = "{774, 1430}";
},
{
name = topleft;
position = "{16, 1430}";
},
{
name = topright;
position = "{1532, 1430}";
}
);
background = {
anchors = (
{
name = bottom;
position = "{735, 0}";
},
{
name = center;
position = "{735, 715}";
},
{
name = ogonek;
position = "{1318, 10}";
},
{
name = top;
position = "{735, 1430}";
},
{
name = topleft;
position = "{26, 1430}";
},
{
name = topright;
position = "{1444, 1430}";
}
);
components = (
{
name = H;
transform = "{1, 0, 0, 1, 34, 0}";
}
);
};
layerId = "09CD4194-2486-478D-AB32-B0AA8D4EDA22";
paths = (
{
closed = 1;
nodes = (
"1184 -26 OFFCURVE",
"1477 307 OFFCURVE",
"1477 715 CURVE SMOOTH",
"1477 1124 OFFCURVE",
"1183 1460 OFFCURVE",
"774 1460 CURVE SMOOTH",
"366 1460 OFFCURVE",
"71 1125 OFFCURVE",
"71 715 CURVE SMOOTH",
"71 307 OFFCURVE",
"364 -26 OFFCURVE",
"774 -26 CURVE SMOOTH"
);
},
{
closed = 1;
nodes = (
"441 -12 OFFCURVE",
"163 314 OFFCURVE",
"163 718 CURVE SMOOTH",
"163 1127 OFFCURVE",
"449 1446 OFFCURVE",
"774 1446 CURVE SMOOTH",
"1099 1446 OFFCURVE",
"1385 1127 OFFCURVE",
"1385 718 CURVE SMOOTH",
"1385 314 OFFCURVE",
"1107 -12 OFFCURVE",
"774 -12 CURVE SMOOTH"
);
}
);
width = 1548;
},
{
anchors = (
{
name = bottom;
position = "{847, 0}";
},
{
name = center;
position = "{847, 715}";
},
{
name = ogonek;
position = "{1525, 10}";
},
{
name = top;
position = "{847, 1430}";
},
{
name = topleft;
position = "{20, 1430}";
},
{
name = topright;
position = "{1674, 1430}";
}
);
background = {
anchors = (
{
name = bottom;
position = "{847, 0}";
},
{
name = center;
position = "{847, 715}";
},
{
name = ogonek;
position = "{1525, 10}";
},
{
name = top;
position = "{847, 1430}";
},
{
name = topleft;
position = "{20, 1430}";
},
{
name = topright;
position = "{1674, 1430}";
}
);
paths = (
{
closed = 1;
nodes = (
"1298 -44 OFFCURVE",
"1640 281 OFFCURVE",
"1640 707 CURVE SMOOTH",
"1640 1134 OFFCURVE",
"1294 1466 OFFCURVE",
"848 1466 CURVE SMOOTH",
"403 1466 OFFCURVE",
"54 1133 OFFCURVE",
"54 707 CURVE SMOOTH",
"54 281 OFFCURVE",
"398 -44 OFFCURVE",
"848 -44 CURVE SMOOTH"
);
},
{
closed = 1;
nodes = (
"606 146 OFFCURVE",
"447 368 OFFCURVE",
"447 706 CURVE SMOOTH",
"447 1047 OFFCURVE",
"608 1277 OFFCURVE",
"848 1277 CURVE SMOOTH",
"1087 1277 OFFCURVE",
"1248 1047 OFFCURVE",
"1248 706 CURVE SMOOTH",
"1248 367 OFFCURVE",
"1090 146 OFFCURVE",
"848 146 CURVE SMOOTH"
);
}
);
};
layerId = "66066CCB-AAC9-4485-8967-3F6B885ABFA4";
paths = (
{
closed = 1;
nodes = (
"1298 -44 OFFCURVE",
"1630 281 OFFCURVE",
"1630 707 CURVE SMOOTH",
"1630 1134 OFFCURVE",
"1294 1466 OFFCURVE",
"848 1466 CURVE SMOOTH",
"403 1466 OFFCURVE",
"64 1133 OFFCURVE",
"64 707 CURVE SMOOTH",
"64 281 OFFCURVE",
"398 -44 OFFCURVE",
"848 -44 CURVE SMOOTH"
);
},
{
closed = 1;
nodes = (
"606 146 OFFCURVE",
"447 368 OFFCURVE",
"447 706 CURVE SMOOTH",
"447 1047 OFFCURVE",
"608 1277 OFFCURVE",
"848 1277 CURVE SMOOTH",
"1087 1277 OFFCURVE",
"1248 1047 OFFCURVE",
"1248 706 CURVE SMOOTH",
"1248 367 OFFCURVE",
"1090 146 OFFCURVE",
"848 146 CURVE SMOOTH"
);
}
);
width = 1694;
},
{
anchors = (
{
name = bottom;
position = "{805, 0}";
},
{
name = center;
position = "{805, 715}";
},
{
name = ogonek;
position = "{1449, 10}";
},
{
name = top;
position = "{805, 1430}";
},
{
name = topleft;
position = "{20, 1430}";
},
{
name = topright;
position = "{1590, 1430}";
}
);
background = {
anchors = (
{
name = bottom;
position = "{805, 0}";
},
{
name = center;
position = "{805, 715}";
},
{
name = ogonek;
position = "{1449, 10}";
},
{
name = top;
position = "{805, 1430}";
},
{
name = topleft;
position = "{20, 1430}";
},
{
name = topright;
position = "{1590, 1430}";
}
);
paths = (
{
closed = 1;
nodes = (
"1203 -10 OFFCURVE",
"1471 283 OFFCURVE",
"1471 714 CURVE SMOOTH",
"1471 1146 OFFCURVE",
"1201 1443 OFFCURVE",
"805 1443 CURVE SMOOTH",
"410 1443 OFFCURVE",
"139 1145 OFFCURVE",
"139 714 CURVE SMOOTH",
"139 283 OFFCURVE",
"407 -10 OFFCURVE",
"805 -10 CURVE SMOOTH"
);
},
{
closed = 1;
nodes = (
"464 79 OFFCURVE",
"237 338 OFFCURVE",
"237 717 CURVE SMOOTH",
"237 1096 OFFCURVE",
"467 1358 OFFCURVE",
"805 1364 CURVE",
"1143 1358 OFFCURVE",
"1373 1096 OFFCURVE",
"1373 717 CURVE SMOOTH",
"1373 338 OFFCURVE",
"1146 79 OFFCURVE",
"805 69 CURVE"
);
}
);
};
layerId = "B71E0DD6-B640-4F5E-B48D-BF5E04BC2E71";
paths = (
{
closed = 1;
nodes = (
"1203 -10 OFFCURVE",
"1471 283 OFFCURVE",
"1471 714 CURVE SMOOTH",
"1471 1146 OFFCURVE",
"1201 1443 OFFCURVE",
"805 1443 CURVE SMOOTH",
"410 1443 OFFCURVE",
"139 1145 OFFCURVE",
"139 714 CURVE SMOOTH",
"139 283 OFFCURVE",
"407 -10 OFFCURVE",
"805 -10 CURVE SMOOTH"
);
},
{
closed = 1;
nodes = (
"464 79 OFFCURVE",
"237 338 OFFCURVE",
"237 717 CURVE SMOOTH",
"237 1096 OFFCURVE",
"467 1358 OFFCURVE",
"805 1364 CURVE",
"1143 1358 OFFCURVE",
"1373 1096 OFFCURVE",
"1373 717 CURVE SMOOTH",
"1373 338 OFFCURVE",
"1146 79 OFFCURVE",
"805 69 CURVE"
);
}
);
width = 1610;
}
);
leftKerningGroup = O;
note = O;
rightKerningGroup = O;
unicode = 004F;
},
{
glyphname = Odieresis;
lastChange = "2019-12-24 21:23:34 +0000";
layers = (
{
background = {
paths = (
{
closed = 1;
nodes = (
"558 1362 OFFCURVE",
"406 1292 OFFCURVE",
"280 1168 CURVE SMOOTH",
"148 1042 OFFCURVE",
"74 864 OFFCURVE",
"74 682 CURVE SMOOTH",
"74 522 OFFCURVE",
"118 378 OFFCURVE",
"202 256 CURVE SMOOTH",
"320 88 OFFCURVE",
"518 -24 OFFCURVE",
"700 -24 CURVE SMOOTH",
"846 -24 OFFCURVE",
"1006 50 OFFCURVE",
"1124 172 CURVE SMOOTH",
"1252 304 OFFCURVE",
"1320 476 OFFCURVE",
"1320 664 CURVE SMOOTH",
"1320 824 OFFCURVE",
"1268 984 OFFCURVE",
"1176 1104 CURVE SMOOTH",
"1056 1258 OFFCURVE",
"866 1362 OFFCURVE",
"698 1362 CURVE SMOOTH"
);
},
{
closed = 1;
nodes = (
"956 1332 OFFCURVE",
"1098 1094 OFFCURVE",
"1098 672 CURVE SMOOTH",
"1098 226 OFFCURVE",
"966 6 OFFCURVE",
"696 6 CURVE SMOOTH",
"430 6 OFFCURVE",
"296 228 OFFCURVE",
"296 670 CURVE SMOOTH",
"296 1104 OFFCURVE",
"436 1332 OFFCURVE",
"704 1332 CURVE SMOOTH"
);
},
{
closed = 1;
nodes = (
"834 1698 OFFCURVE",
"790 1656 OFFCURVE",
"790 1602 CURVE SMOOTH",
"790 1550 OFFCURVE",
"834 1506 OFFCURVE",
"886 1506 CURVE SMOOTH",
"938 1506 OFFCURVE",
"982 1550 OFFCURVE",
"982 1602 CURVE SMOOTH",
"982 1654 OFFCURVE",
"938 1698 OFFCURVE",
"888 1698 CURVE SMOOTH"
);
},
{
closed = 1;
nodes = (
"458 1698 OFFCURVE",
"414 1656 OFFCURVE",
"414 1602 CURVE SMOOTH",
"414 1550 OFFCURVE",
"458 1506 OFFCURVE",
"510 1506 CURVE SMOOTH",
"562 1506 OFFCURVE",
"606 1550 OFFCURVE",
"606 1602 CURVE SMOOTH",
"606 1654 OFFCURVE",
"562 1698 OFFCURVE",
"512 1698 CURVE SMOOTH"
);
}
);
};
components = (
{
name = O;
},
{
name = dieresiscomb.case;
transform = "{1, 0, 0, 1, 422, 0}";
}
);
layerId = "EA94BB3F-1054-4F03-AAB6-69C3B81B3CC3";
width = 1516;
},
{
components = (
{
name = O;
transform = "{1, 0, 0, 1.007, 0, 0}";
},
{
name = dieresiscomb.case;
transform = "{1, 0, 0, 1, 537, 510}";
}
);
layerId = "1A84AFAC-8532-492C-A52A-D2ACD869B7F8";
width = 1429;
},
{
components = (
{
name = O;
},
{
name = dieresiscomb.case;
transform = "{1, 0, 0, 1, 423, 0}";
}
);
layerId = "16E03120-9D89-4B3A-B1E3-633A6E865927";
width = 1644;
},
{
components = (
{
name = O;
},
{
name = dieresiscomb.case;
transform = "{1, 0, 0, 1, 479, 0}";
}
);
layerId = "5EAC5215-9D4A-4BA0-8B26-A551FA1A966A";
width = 1642;
},
{
background = {
paths = (
{
closed = 1;
nodes = (
"558 1362 OFFCURVE",
"406 1292 OFFCURVE",
"280 1168 CURVE SMOOTH",
"148 1042 OFFCURVE",
"74 864 OFFCURVE",
"74 682 CURVE SMOOTH",
"74 522 OFFCURVE",
"118 378 OFFCURVE",
"202 256 CURVE SMOOTH",
"320 88 OFFCURVE",
"518 -24 OFFCURVE",
"700 -24 CURVE SMOOTH",
"846 -24 OFFCURVE",
"1006 50 OFFCURVE",
"1124 172 CURVE SMOOTH",
"1252 304 OFFCURVE",
"1320 476 OFFCURVE",
"1320 664 CURVE SMOOTH",
"1320 824 OFFCURVE",
"1268 984 OFFCURVE",
"1176 1104 CURVE SMOOTH",
"1056 1258 OFFCURVE",
"866 1362 OFFCURVE",
"698 1362 CURVE SMOOTH"
);
},
{
closed = 1;
nodes = (
"956 1332 OFFCURVE",
"1098 1094 OFFCURVE",
"1098 672 CURVE SMOOTH",
"1098 226 OFFCURVE",
"966 6 OFFCURVE",
"696 6 CURVE SMOOTH",
"430 6 OFFCURVE",
"296 228 OFFCURVE",
"296 670 CURVE SMOOTH",
"296 1104 OFFCURVE",
"436 1332 OFFCURVE",
"704 1332 CURVE SMOOTH"
);
},
{
closed = 1;
nodes = (
"834 1698 OFFCURVE",
"790 1656 OFFCURVE",
"790 1602 CURVE SMOOTH",
"790 1550 OFFCURVE",
"834 1506 OFFCURVE",
"886 1506 CURVE SMOOTH",
"938 1506 OFFCURVE",
"982 1550 OFFCURVE",
"982 1602 CURVE SMOOTH",
"982 1654 OFFCURVE",
"938 1698 OFFCURVE",
"888 1698 CURVE SMOOTH"
);
},
{
closed = 1;
nodes = (
"458 1698 OFFCURVE",
"414 1656 OFFCURVE",
"414 1602 CURVE SMOOTH",
"414 1550 OFFCURVE",
"458 1506 OFFCURVE",
"510 1506 CURVE SMOOTH",
"562 1506 OFFCURVE",
"606 1550 OFFCURVE",
"606 1602 CURVE SMOOTH",
"606 1654 OFFCURVE",
"562 1698 OFFCURVE",
"512 1698 CURVE SMOOTH"
);
}
);
};
components = (
{
name = O;
},
{
name = dieresiscomb.case;
transform = "{1, 0, 0, 1, 511, 0}";
}
);
layerId = "B4536172-55B8-4884-A498-BDE07D5884DA";
width = 1595;
},
{
components = (
{
name = O;
},
{
name = dieresiscomb.case;
transform = "{1, 0, 0, 1, 549, 0}";
}
);
layerId = "09CD4194-2486-478D-AB32-B0AA8D4EDA22";
width = 1548;
},
{
background = {
components = (
{
name = O;
},
{
name = dieresiscomb;
transform = "{1, 0, 0, 1, 436, 510}";
}
);
};
components = (
{
name = O;
},
{
name = dieresiscomb.case;
transform = "{1, 0, 0, 1, 436, 0}";
}
);
layerId = "66066CCB-AAC9-4485-8967-3F6B885ABFA4";
width = 1694;
},
{
background = {
components = (
{
name = O;
transform = "{1, 0, 0, 1.007, 0, 0}";
},
{
name = dieresiscomb;
transform = "{1, 0, 0, 1, 557, 451}";
}
);
};
components = (
{
name = O;
transform = "{1, 0, 0, 1.007, 0, 0}";
},
{
name = dieresiscomb.case;
transform = "{1, 0, 0, 1, 552, 10}";
}
);
layerId = "B71E0DD6-B640-4F5E-B48D-BF5E04BC2E71";
width = 1610;
}
);
leftKerningGroup = O;
note = Odieresis;
rightKerningGroup = O;
unicode = 00D6;
},
{
glyphname = Oslash;
lastChange = "2019-12-24 21:13:04 +0000";
layers = (
{
anchors = (
{
name = bottom;
position = "{870, 0}";
},
{
name = top;
position = "{870, 1430}";
}
);
background = {
paths = (
{
closed = 1;
nodes = (
"1104 1356 LINE",
"1074 1376 LINE",
"1002 1252 LINE",
"936 1290 OFFCURVE",
"926 1296 OFFCURVE",
"912 1302 CURVE",
"840 1338 OFFCURVE",
"758 1358 OFFCURVE",
"686 1358 CURVE SMOOTH",
"540 1358 OFFCURVE",
"370 1274 OFFCURVE",
"250 1140 CURVE SMOOTH",
"134 1010 OFFCURVE",
"74 858 OFFCURVE",
"74 686 CURVE SMOOTH",
"74 544 OFFCURVE",
"118 378 OFFCURVE",
"184 276 CURVE SMOOTH",
"224 214 OFFCURVE",
"266 168 OFFCURVE",
"340 106 CURVE",
"264 -30 LINE",
"296 -48 LINE",
"372 82 LINE",
"484 6 OFFCURVE",
"574 -24 OFFCURVE",
"684 -24 CURVE SMOOTH",
"1018 -24 OFFCURVE",
"1310 296 OFFCURVE",
"1310 662 CURVE SMOOTH",
"1310 788 OFFCURVE",
"1274 920 OFFCURVE",
"1206 1038 CURVE SMOOTH",
"1162 1112 OFFCURVE",
"1126 1154 OFFCURVE",
"1032 1234 CURVE"
);
},
{
closed = 1;
nodes = (
"986 1154 LINE",
"1054 1040 OFFCURVE",
"1088 872 OFFCURVE",
"1088 648 CURVE SMOOTH",
"1088 228 OFFCURVE",
"952 6 OFFCURVE",
"694 6 CURVE SMOOTH",
"574 6 OFFCURVE",
"484 54 OFFCURVE",
"414 156 CURVE"
);
},
{
closed = 1;
nodes = (
"390 190 LINE",
"320 318 OFFCURVE",
"290 460 OFFCURVE",
"290 676 CURVE SMOOTH",
"290 918 OFFCURVE",
"326 1082 OFFCURVE",
"406 1194 CURVE SMOOTH",
"466 1280 OFFCURVE",
"574 1332 OFFCURVE",
"690 1332 CURVE SMOOTH",
"806 1332 OFFCURVE",
"884 1290 OFFCURVE",
"964 1188 CURVE"
);
}
);
};
components = (
{
name = O;
},
{
name = slashlongcomb.case;
transform = "{1, 0, 0, 1, 26, -7}";
}
);
layerId = "EA94BB3F-1054-4F03-AAB6-69C3B81B3CC3";
width = 1516;
},
{
associatedMasterId = "EA94BB3F-1054-4F03-AAB6-69C3B81B3CC3";
background = {
paths = (
{
closed = 1;
nodes = (
"1104 1356 LINE",
"1074 1376 LINE",
"1002 1252 LINE",
"936 1290 OFFCURVE",
"926 1296 OFFCURVE",
"912 1302 CURVE",
"840 1338 OFFCURVE",
"758 1358 OFFCURVE",
"686 1358 CURVE SMOOTH",
"540 1358 OFFCURVE",
"370 1274 OFFCURVE",
"250 1140 CURVE SMOOTH",
"134 1010 OFFCURVE",
"74 858 OFFCURVE",
"74 686 CURVE SMOOTH",
"74 544 OFFCURVE",
"118 378 OFFCURVE",
"184 276 CURVE SMOOTH",
"224 214 OFFCURVE",
"266 168 OFFCURVE",
"340 106 CURVE",
"264 -30 LINE",
"296 -48 LINE",
"372 82 LINE",
"484 6 OFFCURVE",
"574 -24 OFFCURVE",
"684 -24 CURVE SMOOTH",
"1018 -24 OFFCURVE",
"1310 296 OFFCURVE",
"1310 662 CURVE SMOOTH",
"1310 788 OFFCURVE",
"1274 920 OFFCURVE",
"1206 1038 CURVE SMOOTH",
"1162 1112 OFFCURVE",
"1126 1154 OFFCURVE",
"1032 1234 CURVE"
);
},
{
closed = 1;
nodes = (
"986 1154 LINE",
"1054 1040 OFFCURVE",
"1088 872 OFFCURVE",
"1088 648 CURVE SMOOTH",
"1088 228 OFFCURVE",
"952 6 OFFCURVE",
"694 6 CURVE SMOOTH",
"574 6 OFFCURVE",
"484 54 OFFCURVE",
"414 156 CURVE"
);
},
{
closed = 1;
nodes = (
"390 190 LINE",
"320 318 OFFCURVE",
"290 460 OFFCURVE",
"290 676 CURVE SMOOTH",
"290 918 OFFCURVE",
"326 1082 OFFCURVE",
"406 1194 CURVE SMOOTH",
"466 1280 OFFCURVE",
"574 1332 OFFCURVE",
"690 1332 CURVE SMOOTH",
"806 1332 OFFCURVE",
"884 1290 OFFCURVE",
"964 1188 CURVE"
);
}
);
};
layerId = "7CBF5435-50A9-48C0-B687-F427D0BF7C11";
name = "Regular Sep 22 15, 13:24";
paths = (
{
closed = 1;
nodes = (
"1072 -26 OFFCURVE",
"1266 42 OFFCURVE",
"1412 182 CURVE SMOOTH",
"1556 320 OFFCURVE",
"1634 508 OFFCURVE",
"1634 712 CURVE SMOOTH",
"1634 926 OFFCURVE",
"1548 1116 OFFCURVE",
"1412 1244 CURVE SMOOTH",
"1274 1374 OFFCURVE",
"1062 1460 OFFCURVE",
"870 1460 CURVE SMOOTH",
"678 1460 OFFCURVE",
"466 1370 OFFCURVE",
"330 1244 CURVE SMOOTH",
"196 1118 OFFCURVE",
"106 930 OFFCURVE",
"106 712 CURVE SMOOTH",
"106 508 OFFCURVE",
"184 320 OFFCURVE",
"330 182 CURVE SMOOTH",
"476 44 OFFCURVE",
"668 -26 OFFCURVE",
"870 -26 CURVE SMOOTH"
);
},
{
closed = 1;
nodes = (
"554 4 OFFCURVE",
"342 288 OFFCURVE",
"342 712 CURVE SMOOTH",
"342 1142 OFFCURVE",
"554 1430 OFFCURVE",
"870 1430 CURVE SMOOTH",
"1186 1430 OFFCURVE",
"1398 1142 OFFCURVE",
"1398 712 CURVE SMOOTH",
"1398 288 OFFCURVE",
"1186 4 OFFCURVE",
"870 4 CURVE SMOOTH"
);
}
);
width = 1740;
},
{
anchors = (
{
name = bottom;
position = "{870, -5}";
},
{
name = top;
position = "{870, 1435}";
}
);
components = (
{
name = O;
transform = "{1, 0, 0, 1.007, 0, 0}";
},
{
name = slashlongcomb.case;
transform = "{1, 0, 0, 1, -32, -1}";
}
);
layerId = "1A84AFAC-8532-492C-A52A-D2ACD869B7F8";
width = 1429;
},
{
anchors = (
{
name = bottom;
position = "{870, 0}";
},
{
name = top;
position = "{870, 1430}";
}
);
components = (
{
name = O;
},
{
name = slashlongcomb.case;
transform = "{1, 0, 0, 1, 90, -7}";
}
);
layerId = "16E03120-9D89-4B3A-B1E3-633A6E865927";
width = 1644;
},
{
anchors = (
{
name = bottom;
position = "{870, 0}";
},
{
name = top;
position = "{870, 1430}";
}
);
components = (
{
name = O;
},
{
name = slashlongcomb.case;
transform = "{1, 0, 0, 1, 312, -7}";
}
);
layerId = "5EAC5215-9D4A-4BA0-8B26-A551FA1A966A";
width = 1642;
},
{
anchors = (
{
name = bottom;
position = "{870, -3}";
},
{
name = top;
position = "{870, 1433}";
}
);
background = {
paths = (
{
closed = 1;
nodes = (
"1104 1356 LINE",
"1074 1376 LINE",
"1002 1252 LINE",
"936 1290 OFFCURVE",
"926 1296 OFFCURVE",
"912 1302 CURVE",
"840 1338 OFFCURVE",
"758 1358 OFFCURVE",
"686 1358 CURVE SMOOTH",
"540 1358 OFFCURVE",
"370 1274 OFFCURVE",
"250 1140 CURVE SMOOTH",
"134 1010 OFFCURVE",
"74 858 OFFCURVE",
"74 686 CURVE SMOOTH",
"74 544 OFFCURVE",
"118 378 OFFCURVE",
"184 276 CURVE SMOOTH",
"224 214 OFFCURVE",
"266 168 OFFCURVE",
"340 106 CURVE",
"264 -30 LINE",
"296 -48 LINE",
"372 82 LINE",
"484 6 OFFCURVE",
"574 -24 OFFCURVE",
"684 -24 CURVE SMOOTH",
"1018 -24 OFFCURVE",
"1310 296 OFFCURVE",
"1310 662 CURVE SMOOTH",
"1310 788 OFFCURVE",
"1274 920 OFFCURVE",
"1206 1038 CURVE SMOOTH",
"1162 1112 OFFCURVE",
"1126 1154 OFFCURVE",
"1032 1234 CURVE"
);
},
{
closed = 1;
nodes = (
"986 1154 LINE",
"1054 1040 OFFCURVE",
"1088 872 OFFCURVE",
"1088 648 CURVE SMOOTH",
"1088 228 OFFCURVE",
"952 6 OFFCURVE",
"694 6 CURVE SMOOTH",
"574 6 OFFCURVE",
"484 54 OFFCURVE",
"414 156 CURVE"
);
},
{
closed = 1;
nodes = (
"390 190 LINE",
"320 318 OFFCURVE",
"290 460 OFFCURVE",
"290 676 CURVE SMOOTH",
"290 918 OFFCURVE",
"326 1082 OFFCURVE",
"406 1194 CURVE SMOOTH",
"466 1280 OFFCURVE",
"574 1332 OFFCURVE",
"690 1332 CURVE SMOOTH",
"806 1332 OFFCURVE",
"884 1290 OFFCURVE",
"964 1188 CURVE"
);
}
);
};
components = (
{
name = O;
},
{
name = slashlongcomb.case;
transform = "{1, 0, 0, 1, 222, -4}";
}
);
layerId = "B4536172-55B8-4884-A498-BDE07D5884DA";
width = 1595;
},
{
associatedMasterId = "B4536172-55B8-4884-A498-BDE07D5884DA";
background = {
paths = (
{
closed = 1;
nodes = (
"1104 1356 LINE",
"1074 1376 LINE",
"1002 1252 LINE",
"936 1290 OFFCURVE",
"926 1296 OFFCURVE",
"912 1302 CURVE",
"840 1338 OFFCURVE",
"758 1358 OFFCURVE",
"686 1358 CURVE SMOOTH",
"540 1358 OFFCURVE",
"370 1274 OFFCURVE",
"250 1140 CURVE SMOOTH",
"134 1010 OFFCURVE",
"74 858 OFFCURVE",
"74 686 CURVE SMOOTH",
"74 544 OFFCURVE",
"118 378 OFFCURVE",
"184 276 CURVE SMOOTH",
"224 214 OFFCURVE",
"266 168 OFFCURVE",
"340 106 CURVE",
"264 -30 LINE",
"296 -48 LINE",
"372 82 LINE",
"484 6 OFFCURVE",
"574 -24 OFFCURVE",
"684 -24 CURVE SMOOTH",
"1018 -24 OFFCURVE",
"1310 296 OFFCURVE",
"1310 662 CURVE SMOOTH",
"1310 788 OFFCURVE",
"1274 920 OFFCURVE",
"1206 1038 CURVE SMOOTH",
"1162 1112 OFFCURVE",
"1126 1154 OFFCURVE",
"1032 1234 CURVE"
);
},
{
closed = 1;
nodes = (
"986 1154 LINE",
"1054 1040 OFFCURVE",
"1088 872 OFFCURVE",
"1088 648 CURVE SMOOTH",
"1088 228 OFFCURVE",
"952 6 OFFCURVE",
"694 6 CURVE SMOOTH",
"574 6 OFFCURVE",
"484 54 OFFCURVE",
"414 156 CURVE"
);
},
{
closed = 1;
nodes = (
"390 190 LINE",
"320 318 OFFCURVE",
"290 460 OFFCURVE",
"290 676 CURVE SMOOTH",
"290 918 OFFCURVE",
"326 1082 OFFCURVE",
"406 1194 CURVE SMOOTH",
"466 1280 OFFCURVE",
"574 1332 OFFCURVE",
"690 1332 CURVE SMOOTH",
"806 1332 OFFCURVE",
"884 1290 OFFCURVE",
"964 1188 CURVE"
);
}
);
};
layerId = "D8920F3A-17A0-4356-83F5-269BC56823A0";
name = "Regular Sep 22 15, 13:24";
paths = (
{
closed = 1;
nodes = (
"1072 -26 OFFCURVE",
"1266 42 OFFCURVE",
"1412 182 CURVE SMOOTH",
"1556 320 OFFCURVE",
"1634 508 OFFCURVE",
"1634 712 CURVE SMOOTH",
"1634 926 OFFCURVE",
"1548 1116 OFFCURVE",
"1412 1244 CURVE SMOOTH",
"1274 1374 OFFCURVE",
"1062 1460 OFFCURVE",
"870 1460 CURVE SMOOTH",
"678 1460 OFFCURVE",
"466 1370 OFFCURVE",
"330 1244 CURVE SMOOTH",
"196 1118 OFFCURVE",
"106 930 OFFCURVE",
"106 712 CURVE SMOOTH",
"106 508 OFFCURVE",
"184 320 OFFCURVE",
"330 182 CURVE SMOOTH",
"476 44 OFFCURVE",
"668 -26 OFFCURVE",
"870 -26 CURVE SMOOTH"
);
},
{
closed = 1;
nodes = (
"554 4 OFFCURVE",
"342 288 OFFCURVE",
"342 712 CURVE SMOOTH",
"342 1142 OFFCURVE",
"554 1430 OFFCURVE",
"870 1430 CURVE SMOOTH",
"1186 1430 OFFCURVE",
"1398 1142 OFFCURVE",
"1398 712 CURVE SMOOTH",
"1398 288 OFFCURVE",
"1186 4 OFFCURVE",
"870 4 CURVE SMOOTH"
);
}
);
width = 1740;
},
{
anchors = (
{
name = bottom;
position = "{870, -5}";
},
{
name = top;
position = "{870, 1435}";
}
);
components = (
{
name = O;
},
{
name = slashlongcomb.case;
transform = "{1, 0, 0, 1, 304, -2}";
}
);
layerId = "09CD4194-2486-478D-AB32-B0AA8D4EDA22";
width = 1548;
},
{
anchors = (
{
name = bottom;
position = "{896, 62}";
},
{
name = top;
position = "{896, 1357}";
}
);
background = {
anchors = (
{
name = bottom;
position = "{896, 62}";
},
{
name = top;
position = "{896, 1357}";
}
);
components = (
{
name = O;
},
{
name = slashlongcomb.case;
transform = "{1, 0, 0, 1, 118, -1}";
}
);
};
components = (
{
name = O;
},
{
name = slashlongcomb.case;
transform = "{1, 0, 0, 1, 117, -7}";
}
);
layerId = "66066CCB-AAC9-4485-8967-3F6B885ABFA4";
width = 1694;
},
{
anchors = (
{
name = bottom;
position = "{896, 21}";
},
{
name = top;
position = "{896, 1409}";
}
);
background = {
anchors = (
{
name = bottom;
position = "{896, 21}";
},
{
name = top;
position = "{896, 1409}";
}
);
components = (
{
name = O;
},
{
name = slashlongcomb.case;
transform = "{1, 0, 0, 1, 39, -6}";
}
);
};
components = (
{
name = O;
},
{
name = slashlongcomb.case;
transform = "{1, 0, 0, 1, 19, -6}";
}
);
layerId = "B71E0DD6-B640-4F5E-B48D-BF5E04BC2E71";
width = 1610;
}
);
leftKerningGroup = O;
note = Oslash;
rightKerningGroup = O;
unicode = 00D8;
},
